if (_typeface_js && _typeface_js.loadFace) _typeface_js.loadFace({"glyphs":{"ᴴ":{"x_min":25.09375,"x_max":706.65625,"ha":732,"o":"m 134 1020 l 299 1020 l 257 804 l 500 804 l 542 1020 l 706 1020 l 596 452 l 432 452 l 479 693 l 236 693 l 189 453 l 25 453 l 134 1020 "},"Ҿ":{"x_min":59.515625,"x_max":1367.03125,"ha":1426,"o":"m 346 624 q 529 891 408 789 q 939 1031 694 1031 q 1294 891 1182 1031 q 1345 449 1406 752 l 576 449 q 622 256 555 342 q 846 169 690 169 q 1018 193 930 169 q 1201 265 1106 216 l 1160 55 q 974 0 1070 18 q 777 -20 878 -20 q 392 120 515 -20 q 307 449 282 244 q 112 552 186 449 q 66 795 39 654 l 77 848 l 274 848 l 262 789 q 284 665 248 717 q 346 624 317 617 m 619 624 l 1100 624 q 1071 753 1100 701 q 902 842 1022 842 q 699 753 782 842 q 619 624 650 701 m 752 -11 l 848 -11 q 782 -88 800 -61 q 765 -134 765 -115 q 781 -170 765 -157 q 828 -183 798 -183 q 881 -177 854 -183 q 938 -162 909 -172 l 919 -265 q 850 -278 880 -274 q 793 -283 819 -283 q 683 -259 721 -283 q 646 -191 646 -236 q 671 -104 646 -147 q 752 -11 696 -61 "},"ȋ":{"x_min":42.21875,"x_max":579,"ha":476,"o":"m 190 760 l 434 760 l 285 0 l 42 0 l 190 760 m 577 888 l 481 888 l 481 894 q 451 961 481 937 q 368 985 422 985 q 278 961 313 985 q 223 888 242 937 l 120 888 q 213 1036 143 984 q 388 1089 282 1089 q 531 1047 483 1089 q 579 923 579 1005 q 579 901 579 908 q 577 888 579 894 "},"ճ":{"x_min":54.4375,"x_max":976.5625,"ha":989,"o":"m 603 772 q 701 721 656 752 q 849 401 887 593 l 771 0 l 528 0 l 550 109 q 414 11 482 42 q 273 -20 347 -20 q 88 60 141 -20 q 65 295 35 141 l 84 393 q 229 668 111 532 q 140 680 189 675 l 174 851 q 401 829 299 851 q 531 923 449 866 q 976 1048 710 1048 l 942 872 q 603 772 718 872 m 444 615 q 328 393 349 499 l 320 355 q 308 272 312 312 q 313 213 303 234 q 345 176 323 189 q 398 164 366 164 q 528 222 474 164 q 603 384 592 290 l 605 401 q 520 585 621 541 q 444 615 464 609 "},"⣌":{"x_min":203,"x_max":881,"ha":1084,"o":"m 203 362 l 474 362 l 474 91 l 203 91 l 203 362 m 610 1085 l 881 1085 l 881 814 l 610 814 l 610 1085 m 203 0 l 474 0 l 474 -271 l 203 -271 l 203 0 m 610 0 l 881 0 l 881 -271 l 610 -271 l 610 0 "},"׃":{"x_min":62.390625,"x_max":453.015625,"ha":517,"o":"m 210 760 l 453 760 l 402 499 l 159 499 l 210 760 m 113 261 l 356 261 l 305 0 l 62 0 l 113 261 "},"Ꙫ":{"x_min":57.515625,"x_max":1382.9375,"ha":1440,"o":"m 465 627 l 689 627 l 641 378 l 417 378 l 465 627 m 798 627 l 1022 627 l 973 378 l 750 378 l 798 627 m 785 842 q 487 753 604 842 q 339 505 370 665 q 390 257 307 345 q 655 169 474 169 q 953 257 836 169 q 1102 505 1070 345 q 1050 753 1133 665 q 785 842 967 842 m 822 1031 q 1273 891 1127 1031 q 1371 505 1418 751 q 1123 119 1323 259 q 617 -20 922 -20 q 167 119 313 -20 q 69 505 21 259 q 317 891 116 751 q 822 1031 518 1031 "},"ꙥ":{"x_min":2.71875,"x_max":1307.515625,"ha":1270,"o":"m 2 0 l 36 173 q 204 277 161 198 q 293 635 234 335 l 318 760 l 1307 760 l 1278 610 l 945 610 l 826 0 l 583 0 l 697 586 l 526 586 l 522 561 q 400 176 466 266 q 2 0 271 0 "},"⏥":{"x_min":4.0625,"x_max":1064.046875,"ha":1068,"o":"m 760 181 l 945 540 l 307 540 l 122 181 l 760 181 m 797 104 l 4 104 l 271 617 l 1064 617 l 797 104 "},"ϼ":{"x_min":-42.71875,"x_max":970.40625,"ha":994,"o":"m 697 544 q 590 602 668 602 q 459 544 512 602 q 385 378 406 487 q 394 213 364 270 q 503 156 425 156 q 633 213 581 156 q 706 379 685 270 q 697 544 727 487 m -42 -213 l -17 -82 l 52 -82 l 140 366 q 297 650 177 557 q 492 751 404 732 q 714 777 609 777 q 923 674 847 777 q 957 383 994 577 q 811 93 923 205 q 559 -20 699 -20 q 425 11 480 -20 q 332 109 370 42 l 295 -82 l 550 -82 l 524 -213 l 270 -213 l 255 -288 l 12 -288 l 27 -213 l -42 -213 "},"◦":{"x_min":200,"x_max":688,"ha":888,"o":"m 263 592 q 249 516 249 557 q 263 441 249 476 q 305 377 278 405 q 368 335 333 350 q 442 321 403 321 q 518 335 483 321 q 582 377 554 350 q 624 441 609 405 q 639 517 639 476 q 624 591 639 556 q 582 654 610 626 q 519 696 554 681 q 444 711 483 711 q 369 696 404 711 q 305 654 333 682 q 263 592 277 627 m 218 422 q 200 516 200 466 q 218 611 200 567 q 270 689 236 655 q 350 741 306 723 q 444 760 394 760 q 538 741 493 760 q 616 689 582 723 q 670 610 652 654 q 688 517 688 566 q 669 422 688 466 q 616 343 651 377 q 537 290 582 308 q 442 272 493 272 q 349 290 393 272 q 270 343 305 308 q 218 422 236 377 "},"Ⅽ":{"x_min":50,"x_max":1005.234375,"ha":1019,"o":"m 841 47 q 661 -3 747 13 q 498 -20 575 -20 q 172 91 294 -20 q 50 388 50 203 q 88 617 50 509 q 202 813 127 725 q 416 974 291 918 q 685 1031 541 1031 q 843 1012 764 1031 q 1005 955 923 993 l 963 746 q 832 818 898 795 q 691 842 766 842 q 428 721 534 842 q 323 418 323 600 q 388 235 323 302 q 567 169 453 169 q 713 193 636 169 q 885 271 790 218 l 841 47 "},"ͅ":{"x_min":-512.328125,"x_max":-338.40625,"ha":0,"o":"m -348 -289 l -469 -289 q -505 -165 -529 -289 l -485 -62 l -352 -62 l -373 -166 q -351 -237 -386 -237 l -338 -237 l -348 -289 "},"ѕ":{"x_min":13.84375,"x_max":778.765625,"ha":828,"o":"m 778 735 l 742 546 q 600 598 671 580 q 467 616 530 616 q 356 597 395 616 q 317 544 317 578 q 338 511 317 523 q 424 485 360 499 l 468 477 q 674 397 615 446 q 734 260 734 348 q 630 54 734 128 q 339 -20 526 -20 q 180 -7 261 -20 q 13 28 98 4 l 50 219 q 191 160 116 180 q 344 141 266 141 q 460 159 421 141 q 499 212 499 177 q 477 250 499 237 q 387 278 455 264 l 343 286 q 157 366 213 314 q 102 513 102 419 q 198 708 102 640 q 472 777 294 777 q 626 766 550 777 q 778 735 702 756 "},"⚭":{"x_min":243,"x_max":920,"ha":1163,"o":"m 488 371 q 463 415 473 392 q 446 505 446 458 q 463 598 446 558 q 488 643 473 621 q 479 643 483 643 q 427 632 450 643 q 383 602 400 620 q 354 558 364 581 q 344 506 344 534 q 354 455 344 479 q 383 411 364 429 q 427 381 403 392 q 479 371 451 371 q 488 371 483 371 m 581 292 q 569 286 575 289 q 479 269 528 269 q 389 286 428 269 q 312 338 343 307 q 260 415 278 372 q 243 505 243 458 q 260 598 243 555 q 312 675 278 641 q 389 727 346 708 q 479 745 430 745 q 569 727 530 745 q 581 721 575 724 q 592 727 586 724 q 682 745 633 745 q 773 727 731 745 q 850 675 816 708 q 902 598 884 641 q 920 505 920 555 q 902 415 920 458 q 850 338 883 372 q 773 286 818 307 q 682 269 733 269 q 592 286 633 269 q 581 292 586 289 m 673 371 l 682 371 q 734 381 710 371 q 778 411 756 390 q 808 455 797 429 q 819 506 819 479 q 808 558 819 534 q 778 602 797 585 q 734 632 756 624 q 682 643 710 643 q 673 643 678 643 q 698 598 688 621 q 716 505 716 555 q 698 415 716 458 q 673 371 688 392 m 581 417 q 604 455 595 433 q 615 506 615 479 q 604 558 615 534 q 581 596 595 580 q 557 558 564 576 q 547 506 547 534 q 557 455 547 479 q 581 417 566 433 "},"◴":{"x_min":76,"x_max":1136,"ha":1212,"o":"m 146 94 q 76 359 76 217 q 146 623 76 500 q 340 818 217 747 q 606 889 463 889 q 871 818 748 889 q 1065 623 994 747 q 1136 359 1136 500 q 1065 94 1136 217 q 871 -99 994 -28 q 606 -171 748 -171 q 340 -99 463 -171 q 146 94 217 -28 m 567 813 q 377 750 472 803 q 164 399 164 629 l 567 399 l 567 813 m 164 322 q 374 -28 164 91 q 601 -94 488 -94 q 828 -28 715 -94 q 1057 360 1057 101 q 830 750 1057 619 q 644 813 737 803 l 644 322 l 164 322 "},"℣":{"x_min":30.515625,"x_max":1218.671875,"ha":1159,"o":"m 701 1021 l 497 1109 l 566 1228 l 882 1093 l 520 483 l 562 250 l 1025 1060 l 1218 1060 l 608 0 l 420 0 l 375 238 l 141 -157 l 30 -110 l 341 416 l 221 1060 l 415 1060 l 488 662 l 701 1021 "},"໊":{"x_min":-939.90625,"x_max":51.546875,"ha":0,"o":"m -642 1343 q -554 1291 -597 1343 q -498 1254 -520 1254 q -419 1294 -476 1254 q -289 1339 -349 1339 q -152 1110 -104 1339 q -236 1001 -166 1042 q -132 1019 -153 1001 q -99 1088 -107 1039 l 51 1088 q -69 907 29 974 q -330 879 -110 879 l -495 879 l -472 996 q -292 1125 -305 1066 q -314 1214 -269 1224 q -375 1179 -328 1211 q -514 1136 -440 1136 q -627 1173 -602 1136 q -689 1213 -650 1210 q -788 1065 -731 1220 q -749 974 -806 974 q -746 1022 -752 993 q -640 1100 -729 1100 q -564 1010 -543 1100 q -641 893 -582 930 q -775 863 -692 863 q -933 1065 -973 863 q -642 1343 -878 1343 "},"≷":{"x_min":141,"x_max":1017,"ha":1163,"o":"m 1011 283 l 402 141 l 1011 0 l 1011 -164 l 141 63 l 141 222 l 1011 449 l 1011 283 m 148 775 l 148 941 l 1017 714 l 1017 555 l 148 327 l 148 492 l 756 634 l 148 775 "},"︢":{"x_min":-298.390625,"x_max":234.640625,"ha":0,"o":"m 210 1084 l 208 1084 l 115 1108 q 46 1128 55 1126 q -6 1135 17 1135 q -105 1110 -65 1135 q -168 1050 -160 1077 l -298 1050 q -191 1192 -278 1141 q 26 1242 -105 1242 q 142 1232 101 1242 q 234 1207 160 1228 l 210 1084 "},"ἣ":{"x_min":69.640625,"x_max":933.953125,"ha":989,"o":"m 922 462 l 776 -289 l 532 -289 l 604 75 l 657 354 q 680 489 680 452 q 673 544 680 527 q 644 582 664 568 q 590 595 621 595 q 460 535 514 595 q 384 373 405 477 l 312 0 l 69 0 l 217 760 l 460 760 l 438 648 q 574 746 506 715 q 716 778 642 778 q 900 697 848 778 q 922 462 953 616 m 479 1090 l 462 1000 l 362 1000 q 444 909 344 909 l 428 826 q 280 1021 242 826 l 294 1090 l 479 1090 m 720 1111 l 861 856 l 728 856 l 528 1111 l 720 1111 "},"ԋ":{"x_min":39.59375,"x_max":1328.515625,"ha":1407,"o":"m 913 759 l 831 336 q 826 286 826 309 q 842 208 826 243 q 916 167 863 167 q 1008 208 972 167 q 1070 336 1055 262 l 1106 522 l 1328 522 l 1284 295 q 1135 60 1257 157 q 874 -20 1034 -20 q 638 60 707 -20 q 574 230 574 133 q 580 294 574 261 l 585 320 l 344 320 l 282 0 l 39 0 l 187 758 l 430 758 l 373 470 l 614 470 l 670 759 l 913 759 "},"ᓠ":{"x_min":111.21875,"x_max":1728.65625,"ha":1782,"o":"m 143 589 l 329 589 l 297 422 l 111 422 l 143 589 m 1690 453 l 920 453 q 795 415 844 453 q 733 310 746 378 q 751 226 722 256 q 870 197 780 197 l 832 0 q 516 81 596 0 q 464 310 436 162 q 622 564 497 478 q 958 650 747 650 l 1728 650 l 1690 453 m 940 926 l 1127 926 l 1095 759 l 908 759 l 940 926 "},"✉":{"x_min":90,"x_max":1075,"ha":1165,"o":"m 688 591 l 986 794 l 178 794 l 476 591 q 487 602 481 597 q 531 632 506 621 q 582 643 555 643 q 634 632 610 643 q 678 602 663 619 q 688 591 684 596 m 715 481 l 1007 284 l 1007 727 l 715 530 q 718 506 718 518 q 715 481 718 493 m 478 421 l 178 217 l 986 217 l 687 421 q 678 411 683 415 q 634 381 658 392 q 582 371 610 371 q 531 381 555 371 q 487 411 506 392 q 478 421 482 415 m 449 531 l 158 727 l 158 284 l 449 480 q 447 506 447 493 q 449 531 447 518 m 90 149 l 90 863 l 1075 863 l 1075 149 l 90 149 "},"⇱":{"x_min":83,"x_max":1094.453125,"ha":1164,"o":"m 267 761 l 334 829 l 711 829 l 711 690 l 521 690 l 1077 133 l 962 18 l 406 574 l 406 384 l 267 384 l 267 761 m 1094 1013 l 1094 932 l 164 932 l 164 0 l 83 0 l 83 1013 l 1094 1013 "},"ᕺ":{"x_min":147.5,"x_max":1277,"ha":1357,"o":"m 420 329 l 502 750 l 306 513 l 147 654 l 454 1012 l 813 1012 l 744 654 q 905 671 817 671 q 1213 585 1127 671 q 1277 417 1277 523 q 1267 329 1277 376 q 1104 68 1234 156 q 771 -20 974 -20 q 488 70 590 -20 q 412 252 412 139 q 420 329 412 288 m 807 169 q 927 210 871 169 q 997 329 983 251 q 1002 370 1002 351 q 978 442 1002 414 q 866 482 945 482 q 745 444 793 482 q 681 329 696 407 q 677 288 677 307 q 704 210 677 240 q 807 169 743 169 m 639 1288 l 825 1288 l 794 1121 l 607 1121 l 639 1288 "},"k":{"x_min":42.71875,"x_max":994.203125,"ha":924,"o":"m 247 1055 l 491 1055 l 380 483 l 708 760 l 994 760 l 552 408 l 873 0 l 596 0 l 349 327 l 286 0 l 42 0 l 247 1055 "},"ȇ":{"x_min":50,"x_max":889,"ha":942,"o":"m 873 350 l 865 312 l 297 312 q 296 300 297 307 q 296 288 296 292 q 340 177 296 214 q 473 141 384 141 q 635 164 550 141 q 814 232 720 187 l 776 44 q 599 -4 687 11 q 421 -20 512 -20 q 146 62 243 -20 q 50 293 50 144 q 80 462 50 380 q 170 611 111 544 q 338 735 240 693 q 554 777 435 777 q 798 694 708 777 q 889 474 889 612 q 885 416 889 446 q 873 350 881 386 m 643 462 q 646 479 645 470 q 648 497 648 489 q 615 584 648 552 q 527 616 582 616 q 406 576 456 616 q 330 462 356 537 l 643 462 m 808 888 l 712 888 l 712 894 q 682 961 712 937 q 599 985 653 985 q 509 961 544 985 q 454 888 473 937 l 351 888 q 444 1036 374 984 q 619 1089 513 1089 q 762 1047 714 1089 q 810 923 810 1005 q 810 901 810 908 q 808 888 810 894 "},"𝍖":{"x_min":115,"x_max":1130,"ha":1245,"o":"m 345 0 l 115 0 l 115 136 l 345 136 l 345 0 m 900 0 l 900 136 l 1130 136 l 1130 0 l 900 0 m 737 0 l 508 0 l 508 136 l 737 136 l 737 0 m 345 260 l 115 260 l 115 396 l 345 396 l 345 260 m 900 260 l 900 396 l 1130 396 l 1130 260 l 900 260 m 737 260 l 508 260 l 508 396 l 737 396 l 737 260 m 345 521 l 115 521 l 115 657 l 345 657 l 345 521 m 900 521 l 900 657 l 1130 657 l 1130 521 l 900 521 m 737 521 l 508 521 l 508 657 l 737 657 l 737 521 m 345 781 l 115 781 l 115 917 l 345 917 l 345 781 m 900 781 l 900 917 l 1130 917 l 1130 781 l 900 781 m 737 781 l 508 781 l 508 917 l 737 917 l 737 781 "},"≚":{"x_min":147,"x_max":1016,"ha":1163,"o":"m 147 669 l 1016 669 l 1016 510 l 147 510 l 147 669 m 147 361 l 1016 361 l 1016 200 l 147 200 l 147 361 m 344 1166 l 495 1166 l 582 942 l 673 1166 l 818 1166 l 643 713 l 521 713 l 344 1166 "},"Ⴣ":{"x_min":99.984375,"x_max":887.671875,"ha":855,"o":"m 467 -51 l 552 389 q 527 362 541 373 q 498 343 513 351 q 469 333 483 336 q 444 330 455 330 q 334 352 383 330 q 251 414 284 375 q 208 493 218 453 q 199 563 199 534 q 204 617 199 590 l 206 630 l 99 630 l 136 818 l 452 818 l 431 712 q 420 636 426 670 q 415 580 415 603 q 415 560 415 576 q 429 530 415 545 q 480 515 443 515 q 516 522 498 515 q 551 543 535 530 q 580 575 568 557 q 596 613 592 593 l 681 1052 l 887 1052 l 673 -51 l 467 -51 "},"☈":{"x_min":115,"x_max":1121.421875,"ha":1244,"o":"m 159 1015 l 1078 1015 q 1121 959 1121 1015 q 1103 918 1121 936 l 713 530 l 1043 201 l 1116 346 l 1116 51 l 815 51 l 971 136 l 613 498 q 603 540 603 509 q 638 593 603 559 l 966 918 l 212 918 l 212 47 q 163 0 212 0 q 115 45 115 0 l 115 976 q 159 1015 115 1015 "},"ჳ":{"x_min":18,"x_max":796.53125,"ha":767,"o":"m 656 3 q 283 -277 601 -277 q 18 -71 18 -277 q 26 7 18 -35 l 65 97 l 265 76 l 236 2 q 232 -40 232 -21 q 316 -122 232 -122 q 448 3 423 -122 l 452 23 q 459 88 459 60 q 379 184 459 184 l 308 184 l 336 329 l 406 329 q 556 555 511 329 l 359 555 l 341 454 l 138 454 l 187 712 l 796 712 q 555 277 734 400 q 667 84 667 207 q 660 23 667 55 l 656 3 "},"ꜷ":{"x_min":24,"x_max":1419.34375,"ha":1462,"o":"m 1049 110 q 774 -20 925 -20 q 613 34 670 -20 q 563 124 577 70 q 258 -20 463 -20 q 87 35 150 -20 q 24 186 24 91 q 136 409 24 332 q 460 486 248 486 l 603 486 l 606 504 q 609 525 609 523 q 566 593 609 570 q 440 616 524 616 q 294 600 365 616 q 158 553 224 584 l 195 739 q 350 767 271 757 q 515 777 430 777 q 766 719 684 777 q 849 542 849 661 q 836 433 849 495 l 808 286 q 807 250 807 273 q 830 188 807 228 q 898 165 854 165 q 1028 223 973 165 q 1102 385 1082 282 l 1175 760 l 1419 760 l 1272 0 l 1027 0 l 1049 110 m 457 342 q 320 313 366 342 q 274 230 274 285 q 301 164 274 188 q 377 141 328 141 q 501 186 451 141 q 568 314 552 231 l 574 342 l 457 342 "},"▎":{"x_min":-13,"x_max":260,"ha":1068,"o":"m -13 -347 l -13 1069 l 260 1069 l 260 -347 l -13 -347 "},"ƀ":{"x_min":16.28125,"x_max":916.28125,"ha":994,"o":"m 384 647 q 515 745 447 714 q 661 777 582 777 q 870 665 802 777 q 904 378 939 554 q 758 91 870 202 q 506 -20 646 -20 q 372 12 427 -20 q 280 109 317 43 l 259 0 l 16 0 l 179 839 l 74 839 l 101 978 l 206 978 l 221 1055 l 463 1055 l 448 978 l 671 978 l 644 839 l 421 839 l 384 647 m 341 213 q 450 156 372 156 q 580 212 528 156 q 653 378 632 269 q 644 544 674 487 q 537 601 615 601 q 406 543 459 601 q 332 378 353 486 q 341 213 311 270 "},"𝞔":{"x_min":29.15625,"x_max":930.453125,"ha":949,"o":"m 226 1013 l 930 1013 l 891 816 l 448 816 l 412 627 l 829 627 l 790 430 l 373 430 l 328 197 l 786 197 l 748 0 l 29 0 l 226 1013 "},"⎢":{"x_min":87,"x_max":284,"ha":694,"o":"m 87 1070 l 284 1070 l 284 -350 l 87 -350 l 87 1070 "},"∺":{"x_min":147,"x_max":1016,"ha":1163,"o":"m 147 516 l 1016 516 l 1016 356 l 147 356 l 147 516 m 772 877 l 1016 877 l 1016 614 l 772 614 l 772 877 m 772 265 l 1016 265 l 1016 2 l 772 2 l 772 265 m 147 877 l 391 877 l 391 614 l 147 614 l 147 877 m 147 258 l 391 258 l 391 -5 l 147 -5 l 147 258 "},"Ϋ":{"x_min":87.484375,"x_max":1123.71875,"ha":1006,"o":"m 421 1288 l 581 1288 l 549 1121 l 389 1121 l 421 1288 m 689 1288 l 850 1288 l 817 1121 l 657 1121 l 689 1288 m 87 1013 l 348 1013 l 520 637 l 821 1013 l 1123 1013 l 623 422 l 541 0 l 280 0 l 362 422 l 87 1013 "},"҆":{"x_min":-533.046875,"x_max":-295.6875,"ha":0,"o":"m -309 1021 q -533 826 -347 826 l -516 909 q -399 1000 -417 909 l -499 1000 l -481 1090 l -295 1090 l -309 1021 "},"▥":{"x_min":126,"x_max":1185,"ha":1311,"o":"m 126 -171 l 126 893 l 1185 893 l 1185 -171 l 126 -171 m 990 -92 l 1111 -92 l 1111 814 l 990 814 l 990 -92 m 793 -92 l 912 -92 l 912 814 l 793 814 l 793 -92 m 596 -92 l 716 -92 l 716 814 l 596 814 l 596 -92 m 398 -92 l 519 -92 l 519 814 l 398 814 l 398 -92 m 202 -92 l 321 -92 l 321 814 l 202 814 l 202 -92 "},"Ḽ":{"x_min":29.15625,"x_max":786,"ha":885,"o":"m 269 -79 l 447 -79 l 571 -333 l 450 -333 l 344 -181 l 181 -333 l 47 -333 l 269 -79 m 226 1012 l 487 1012 l 328 197 l 786 197 l 748 0 l 29 0 l 226 1012 "},"8":{"x_min":31,"x_max":916,"ha":967,"o":"m 467 453 q 334 399 387 453 q 281 266 281 345 q 315 176 281 209 q 410 144 350 144 q 543 197 490 144 q 597 330 597 250 q 562 419 597 386 q 467 453 527 453 m 299 538 q 190 618 226 569 q 154 735 154 667 q 266 952 154 873 q 579 1031 379 1031 q 827 971 739 1031 q 916 802 916 911 q 854 637 916 706 q 679 538 793 569 q 801 453 762 507 q 841 317 841 399 q 719 70 841 161 q 385 -20 597 -20 q 124 46 217 -20 q 31 233 31 113 q 102 421 31 340 q 299 538 173 502 m 555 867 q 444 826 486 867 q 403 719 403 786 q 433 644 403 673 q 513 616 463 616 q 624 656 582 616 q 666 763 666 696 q 635 838 666 810 q 555 867 605 867 "},"≭":{"x_min":146,"x_max":1016,"ha":1163,"o":"m 525 544 q 146 647 353 544 l 146 812 q 593 699 387 699 l 706 972 l 841 916 l 760 721 q 1015 812 882 749 l 1015 647 q 687 546 838 572 l 636 415 q 1016 311 812 415 l 1016 146 q 568 258 781 258 l 455 -13 l 321 42 l 401 236 q 147 146 281 207 l 147 311 q 474 411 323 385 l 525 544 "},"☊":{"x_min":85,"x_max":1150,"ha":1234,"o":"m 1023 296 q 938 332 988 332 q 852 296 887 332 q 818 211 818 261 q 852 127 818 162 q 938 92 887 92 q 1022 127 987 92 q 1058 211 1058 162 q 1023 296 1058 261 m 296 332 q 211 297 246 332 q 176 212 176 262 q 211 127 176 162 q 296 92 246 92 q 381 127 346 92 q 416 212 416 162 q 381 297 416 262 q 296 332 346 332 m 1055 389 q 1087 363 1072 378 q 1150 212 1150 300 q 1088 62 1150 124 q 938 0 1026 0 q 788 62 850 0 q 727 213 727 125 q 788 365 727 302 q 918 421 843 421 q 1000 603 1000 499 q 886 812 1000 726 q 610 899 773 899 q 334 812 447 899 q 221 604 221 726 q 302 423 221 500 q 446 363 387 423 q 508 212 508 301 q 446 62 508 124 q 296 0 384 0 q 147 62 209 0 q 85 212 85 124 q 146 363 85 300 q 171 385 159 374 q 89 604 89 480 q 240 891 89 772 q 610 1010 392 1010 q 982 891 830 1010 q 1134 604 1134 772 q 1055 389 1134 484 "},"𝙨":{"x_min":13.84375,"x_max":778.765625,"ha":828,"o":"m 778 735 l 742 546 q 600 598 671 580 q 467 616 530 616 q 356 597 395 616 q 317 544 317 578 q 338 511 317 523 q 424 485 360 499 l 468 477 q 674 397 615 446 q 734 260 734 348 q 630 54 734 128 q 339 -20 526 -20 q 180 -7 261 -20 q 13 28 98 4 l 50 219 q 191 160 116 180 q 344 141 266 141 q 460 159 421 141 q 499 212 499 177 q 477 250 499 237 q 387 278 455 264 l 343 286 q 157 366 213 314 q 102 513 102 419 q 198 708 102 640 q 472 777 294 777 q 626 766 550 777 q 778 735 702 756 "},"⚈":{"x_min":115,"x_max":1129,"ha":1244,"o":"m 622 1016 q 870 950 749 1016 q 1060 762 991 885 q 1129 508 1129 640 q 1062 255 1129 376 q 874 68 995 135 q 622 1 753 1 q 369 68 490 1 q 181 255 248 135 q 115 508 115 376 q 183 762 115 640 q 372 950 251 885 q 622 1016 493 1016 m 879 423 q 921 433 900 423 q 953 465 941 444 q 965 508 965 486 q 953 551 965 530 q 921 582 942 571 q 879 594 901 594 q 837 582 857 594 q 805 551 816 571 q 794 508 794 530 q 805 465 794 486 q 837 433 817 444 q 879 423 857 423 "},"ນ":{"x_min":-12.203125,"x_max":1021.328125,"ha":1015,"o":"m 21 130 q 190 152 126 119 q 233 251 218 176 l 273 460 q 97 629 63 479 q 332 823 142 823 q 507 578 555 823 l 436 210 q 552 136 480 136 q 697 207 684 136 l 809 778 l 1021 778 l 910 210 q 520 -47 859 -47 q 330 14 402 -47 q -12 -52 201 -52 l 21 130 "},"𝌱":{"x_min":115,"x_max":1130,"ha":1244,"o":"m 345 260 l 115 260 l 115 396 l 345 396 l 345 260 m 900 260 l 900 396 l 1130 396 l 1130 260 l 900 260 m 737 260 l 508 260 l 508 396 l 737 396 l 737 260 m 115 136 l 527 136 l 527 0 l 115 0 l 115 136 m 717 136 l 1129 136 l 1129 0 l 717 0 l 717 136 m 115 657 l 527 657 l 527 521 l 115 521 l 115 657 m 717 657 l 1129 657 l 1129 521 l 717 521 l 717 657 m 115 917 l 527 917 l 527 781 l 115 781 l 115 917 m 717 917 l 1129 917 l 1129 781 l 717 781 l 717 917 "},"⊳":{"x_min":147,"x_max":1016.046875,"ha":1163,"o":"m 306 629 l 306 241 l 800 435 l 306 629 m 147 -2 l 147 872 l 1016 515 l 1016 355 l 147 -2 "},"⪐":{"x_min":147,"x_max":1016,"ha":1163,"o":"m 1016 501 l 1016 336 q 883 258 944 281 q 757 235 822 235 q 588 274 685 235 q 573 280 578 278 l 558 286 q 389 328 453 328 q 271 301 330 328 q 147 219 213 275 l 147 384 q 278 461 218 438 q 405 485 339 485 q 579 444 479 485 l 589 440 q 604 434 595 438 q 773 393 709 393 q 888 418 831 393 q 1016 501 946 444 m 1016 -175 l 1016 -340 l 147 -200 l 147 44 l 1016 186 l 1016 21 l 407 -77 l 1016 -175 m 147 896 l 147 1062 l 1016 921 l 1016 676 l 147 535 l 147 700 l 755 798 l 147 896 "},"מּ":{"x_min":12.96875,"x_max":974,"ha":1077,"o":"m 654 760 q 974 460 974 760 q 957 311 974 393 l 897 0 l 478 0 l 428 0 l 461 173 l 688 173 l 710 290 q 723 398 723 351 q 583 561 723 561 q 497 538 533 561 q 425 457 461 516 q 354 290 390 398 l 255 0 l 12 0 l 125 336 q 258 583 175 486 l 160 760 l 403 760 l 429 714 q 654 760 529 760 m 565 379 l 565 379 m 510 448 l 646 448 l 619 312 l 484 312 l 510 448 m 565 379 l 565 379 "},"ᶪ":{"x_min":32.546875,"x_max":358.078125,"ha":458,"o":"m 147 1044 l 301 1044 l 204 550 l 358 550 l 339 453 q 269 330 323 375 q 126 285 214 285 l 50 285 l 68 375 l 94 375 q 158 392 138 375 q 185 453 179 411 l 32 453 l 147 1044 "},"˞":{"x_min":-16.953125,"x_max":481.5,"ha":487,"o":"m 16 599 l 254 727 l 389 727 l 367 612 q 362 455 344 493 q 452 418 381 418 l 481 418 l 457 296 l 392 296 q 229 371 267 296 q 219 545 196 432 l -16 424 l 16 599 "},"‷":{"x_min":223.796875,"x_max":989.453125,"ha":875,"o":"m 989 760 l 879 760 l 732 1013 l 920 1013 l 989 760 m 738 760 l 628 760 l 481 1013 l 670 1013 l 738 760 m 480 760 l 370 760 l 223 1013 l 412 1013 l 480 760 "},"ᔴ":{"x_min":29.15625,"x_max":1282.421875,"ha":1383,"o":"m 1096 588 l 1282 588 l 1249 421 l 1064 421 l 1096 588 m 607 1012 l 967 540 l 931 351 l 358 351 l 290 0 l 29 0 l 134 540 l 705 540 l 345 1012 l 607 1012 m 426 1288 l 613 1288 l 581 1121 l 394 1121 l 426 1288 "},"Ϗ":{"x_min":56.96875,"x_max":1194.9375,"ha":1076,"o":"m 254 1013 l 515 1013 l 443 643 l 891 1013 l 1194 1013 l 613 533 l 1047 0 l 661 -288 l 487 -288 l 750 -35 l 396 398 l 318 0 l 56 0 l 254 1013 "},"⇓":{"x_min":267.375,"x_max":895.625,"ha":1164,"o":"m 531 195 l 581 144 l 632 195 l 632 1012 l 741 1012 l 741 304 l 797 359 l 895 262 l 629 -5 l 535 -5 l 267 262 l 366 359 l 422 304 l 422 1012 l 531 1012 l 531 195 "},"р":{"x_min":-13.859375,"x_max":940,"ha":994,"o":"m 308 109 l 230 -289 l -13 -289 l 190 760 l 434 760 l 412 648 q 528 746 467 715 q 662 778 589 778 q 865 696 790 778 q 940 474 940 615 q 913 304 940 387 q 838 153 887 221 q 699 24 777 68 q 532 -20 621 -20 q 400 11 454 -20 q 308 109 345 42 m 563 602 q 410 515 469 602 q 351 289 351 428 q 384 191 351 227 q 477 156 418 156 q 629 241 569 156 q 689 459 689 326 q 656 565 689 529 q 563 602 624 602 "},"Ö":{"x_min":50,"x_max":1130,"ha":1180,"o":"m 854 597 q 800 779 854 717 q 644 842 746 842 q 416 720 508 842 q 325 414 325 598 q 378 233 325 298 q 527 169 432 169 q 666 201 605 169 q 769 299 726 234 q 831 438 809 361 q 854 597 854 516 m 681 1031 q 1006 918 883 1031 q 1130 625 1130 806 q 1092 391 1130 501 q 982 194 1054 281 q 774 33 894 86 q 496 -20 654 -20 q 172 91 295 -20 q 50 385 50 203 q 87 619 50 509 q 197 817 124 729 q 404 978 283 925 q 681 1031 524 1031 m 535 1288 l 695 1288 l 663 1121 l 503 1121 l 535 1288 m 803 1288 l 964 1288 l 931 1121 l 771 1121 l 803 1288 "},"Θ":{"x_min":55,"x_max":1125,"ha":1181,"o":"m 824 753 q 655 842 775 842 q 453 753 535 842 q 339 505 370 665 q 327 376 327 443 q 356 257 327 310 q 525 169 405 169 q 727 257 645 169 q 841 505 810 345 q 854 633 854 567 q 824 753 854 700 m 69 505 q 282 891 116 751 q 692 1031 448 1031 q 1047 891 936 1031 q 1125 643 1125 793 q 1110 505 1125 579 q 897 119 1063 259 q 488 -20 731 -20 q 132 119 244 -20 q 55 367 55 217 q 69 505 55 431 m 440 626 l 787 626 l 748 429 l 402 429 l 440 626 "},"Ř":{"x_min":28.78125,"x_max":951,"ha":1069,"o":"m 509 563 q 644 604 598 563 q 690 725 690 645 q 658 799 690 776 q 559 823 626 823 l 451 823 l 399 563 l 509 563 m 365 383 l 289 0 l 28 0 l 226 1012 l 611 1012 q 864 949 778 1012 q 951 765 951 887 q 883 563 951 643 q 699 473 815 484 q 787 419 752 462 q 849 287 822 376 l 935 0 l 675 0 l 599 251 q 543 354 576 326 q 448 383 510 383 l 365 383 m 725 1109 l 488 1109 l 395 1288 l 512 1288 l 612 1178 l 769 1288 l 889 1288 l 725 1109 "},"ϙ":{"x_min":75.546875,"x_max":931.25,"ha":954,"o":"m 547 604 q 413 546 467 604 q 339 379 360 488 q 348 211 317 269 q 460 154 379 154 q 593 211 539 154 q 668 379 646 269 q 657 546 689 488 q 547 604 627 604 m 566 -2 l 511 -289 l 244 -289 l 300 -2 q 139 86 195 21 q 86 379 49 191 q 253 672 122 566 q 581 778 385 778 q 867 672 777 778 q 920 379 956 566 q 753 86 884 191 q 566 -2 672 21 "},"⬐":{"x_min":52.390625,"x_max":1084.796875,"ha":1164,"o":"m 318 -35 l 52 231 l 150 329 l 285 195 l 285 517 l 1084 517 l 1084 354 l 448 354 l 448 195 l 582 329 l 680 231 l 414 -35 l 318 -35 "},"ᶼ":{"x_min":48.65625,"x_max":609.5,"ha":727,"o":"m 142 879 l 559 879 l 541 784 l 243 550 l 496 550 l 478 460 q 473 401 469 413 q 482 392 475 393 q 538 375 482 375 l 609 375 l 591 285 l 471 285 q 346 330 383 285 q 323 453 309 374 l 48 453 l 66 547 l 364 782 l 123 782 l 142 879 "},"и":{"x_min":42.71875,"x_max":930.453125,"ha":973,"o":"m 42 0 l 190 760 l 433 760 l 354 355 l 678 760 l 930 760 l 782 0 l 539 0 l 618 404 l 295 0 l 42 0 "},"א":{"x_min":31.875,"x_max":982.671875,"ha":1043,"o":"m 179 760 l 436 760 l 619 440 q 641 458 632 448 q 719 654 691 510 l 739 760 l 982 760 l 958 639 q 836 380 924 460 q 695 307 773 323 l 872 0 l 615 0 l 402 371 q 383 355 391 364 q 305 159 333 303 l 274 0 l 31 0 l 65 175 q 188 434 101 354 q 324 506 254 491 l 179 760 m 423 0 l 423 0 m 406 118 l 406 118 "},"³":{"x_min":55.5625,"x_max":593,"ha":609,"o":"m 451 759 q 528 719 502 750 q 555 636 555 687 q 475 493 555 543 q 250 443 396 443 q 146 451 195 443 q 55 474 97 459 l 77 591 q 157 554 117 567 q 238 542 197 542 q 354 567 312 542 q 396 638 396 593 q 362 692 396 675 q 258 710 328 710 l 206 710 l 225 803 l 283 803 q 393 822 355 803 q 432 879 432 842 q 406 918 432 905 q 330 931 380 931 q 250 922 293 931 q 155 894 207 913 l 176 1007 q 275 1024 225 1018 q 375 1031 325 1031 q 536 997 480 1031 q 593 900 593 963 q 554 807 593 845 q 451 759 516 769 "},"♬":{"x_min":127.453125,"x_max":1117,"ha":1245,"o":"m 1114 1012 l 1117 1009 l 1117 147 q 939 2 1117 2 q 769 106 781 2 q 927 205 769 205 q 1054 169 1001 205 l 1057 169 l 1057 617 l 472 617 l 472 157 q 305 -7 472 17 l 302 -7 q 127 116 127 -7 q 287 203 127 203 q 415 164 355 203 l 415 1012 l 1114 1012 m 474 872 l 474 766 l 1057 766 l 1057 872 l 474 872 "},"͘":{"x_min":0.671875,"x_max":220.40625,"ha":0,"o":"m 34 1075 l 220 1075 l 187 908 l 0 908 l 34 1075 "},"ᶣ":{"x_min":75.78125,"x_max":612.75,"ha":633,"o":"m 81 619 l 131 878 l 285 878 l 277 835 l 247 680 q 235 604 235 625 q 239 572 235 582 q 259 552 245 559 q 293 545 273 545 q 374 577 340 545 q 419 669 407 610 l 460 878 l 612 878 l 497 287 l 344 287 l 389 515 q 304 460 347 478 q 216 443 262 443 q 98 487 133 443 q 81 619 64 532 "},"⣟":{"x_min":203,"x_max":881,"ha":1084,"o":"m 203 1085 l 474 1085 l 474 814 l 203 814 l 203 1085 m 203 724 l 474 724 l 474 453 l 203 453 l 203 724 m 203 362 l 474 362 l 474 91 l 203 91 l 203 362 m 610 1085 l 881 1085 l 881 814 l 610 814 l 610 1085 m 610 724 l 881 724 l 881 453 l 610 453 l 610 724 m 203 0 l 474 0 l 474 -271 l 203 -271 l 203 0 m 610 0 l 881 0 l 881 -271 l 610 -271 l 610 0 "},"𝞳":{"x_min":42.71875,"x_max":943.328125,"ha":987,"o":"m 342 291 l 285 0 l 42 0 l 190 760 l 433 760 l 390 542 l 673 760 l 943 760 l 599 491 l 835 0 l 547 0 l 389 328 l 342 291 "},"Ρ":{"x_min":28.765625,"x_max":999,"ha":1018,"o":"m 226 1012 l 659 1012 q 909 939 819 1012 q 999 736 999 866 q 969 585 999 657 q 883 460 939 514 q 739 377 823 403 q 529 351 656 351 l 357 351 l 289 0 l 28 0 l 226 1012 m 451 823 l 395 540 l 540 540 q 681 583 632 540 q 730 709 730 626 q 695 793 730 764 q 594 823 660 823 l 451 823 "},"⣥":{"x_min":203,"x_max":881,"ha":1084,"o":"m 203 1085 l 474 1085 l 474 814 l 203 814 l 203 1085 m 203 362 l 474 362 l 474 91 l 203 91 l 203 362 m 610 362 l 881 362 l 881 91 l 610 91 l 610 362 m 203 0 l 474 0 l 474 -271 l 203 -271 l 203 0 m 610 0 l 881 0 l 881 -271 l 610 -271 l 610 0 "},"Ṙ":{"x_min":28.78125,"x_max":951,"ha":1069,"o":"m 565 1289 l 751 1289 l 719 1122 l 533 1122 l 565 1289 m 509 563 q 644 604 598 563 q 690 725 690 645 q 658 799 690 776 q 559 823 626 823 l 451 823 l 399 563 l 509 563 m 365 383 l 289 0 l 28 0 l 226 1012 l 611 1012 q 864 949 778 1012 q 951 765 951 887 q 883 563 951 643 q 699 473 815 484 q 787 419 752 462 q 849 287 822 376 l 935 0 l 675 0 l 599 251 q 543 354 576 326 q 448 383 510 383 l 365 383 "},"ᴄ":{"x_min":52,"x_max":807.09375,"ha":823,"o":"m 807 735 l 768 537 q 672 587 719 570 q 579 604 624 604 q 385 524 460 604 q 310 320 310 444 q 356 197 310 241 q 489 153 403 153 q 600 170 546 153 q 705 220 655 187 l 668 22 q 546 -9 607 1 q 424 -20 485 -20 q 148 60 245 -20 q 52 288 52 140 q 87 469 52 381 q 189 626 123 556 q 359 740 263 703 q 579 777 454 777 q 693 767 636 777 q 807 735 750 756 "},"š":{"x_min":13.84375,"x_max":800.46875,"ha":828,"o":"m 778 735 l 742 546 q 600 598 671 580 q 467 616 530 616 q 356 597 395 616 q 317 544 317 578 q 338 511 317 523 q 424 485 360 499 l 468 477 q 674 397 615 446 q 734 260 734 348 q 630 54 734 128 q 339 -20 526 -20 q 180 -7 261 -20 q 13 28 98 4 l 50 219 q 191 160 116 180 q 344 141 266 141 q 460 159 421 141 q 499 212 499 177 q 477 250 499 237 q 387 278 455 264 l 343 286 q 157 366 213 314 q 102 513 102 419 q 198 708 102 640 q 472 777 294 777 q 626 766 550 777 q 778 735 702 756 m 577 856 l 400 856 l 276 1110 l 395 1110 l 501 956 l 667 1111 l 800 1111 l 577 856 "},"ᐸ":{"x_min":71.203125,"x_max":1212.5625,"ha":1231,"o":"m 1064 249 l 1015 0 l 71 350 l 132 662 l 1212 1012 l 1163 757 l 339 506 l 1064 249 "},"ჟ":{"x_min":-22,"x_max":838.515625,"ha":821,"o":"m 696 18 q 285 -275 639 -275 q -22 -76 -22 -275 q -15 -16 -22 -48 l 198 -16 q 196 -39 196 -29 q 313 -120 196 -120 q 489 18 462 -120 l 592 544 l 401 544 q 454 371 454 450 q 449 327 454 348 q 6 97 405 97 l 39 269 q 257 326 247 269 q 262 363 262 345 q 91 534 262 481 l 114 652 l 838 748 l 696 18 "},"1":{"x_min":59.671875,"x_max":802.953125,"ha":966,"o":"m 95 180 l 326 180 l 453 834 l 206 785 l 241 963 l 486 1012 l 734 1012 l 573 180 l 802 180 l 768 0 l 59 0 l 95 180 "},"ᕗ":{"x_min":70.53125,"x_max":1211.890625,"ha":1289,"o":"m 577 632 q 383 582 491 582 q 210 631 276 582 q 158 751 144 680 q 257 871 172 822 q 448 921 342 921 q 564 902 514 921 l 1211 662 l 1151 350 l 70 0 l 119 249 l 944 506 l 577 632 m 335 806 q 286 751 292 783 q 313 696 280 719 q 400 673 347 673 q 496 696 454 673 q 545 751 539 719 q 518 806 552 783 q 431 830 484 830 q 335 806 377 830 "},"בֿ":{"x_min":-22.203125,"x_max":848.203125,"ha":934,"o":"m 508 352 q 521 461 521 416 q 506 535 521 509 q 388 586 479 586 l 126 586 l 160 759 l 490 759 l 537 759 q 745 676 692 759 q 777 541 777 627 q 762 411 777 484 l 716 173 l 848 173 l 814 0 l 386 0 l -22 0 l 11 173 l 474 173 l 508 352 m 285 379 l 285 379 m 314 987 l 755 987 l 728 851 l 288 851 l 314 987 m 490 759 l 490 759 "},"צ":{"x_min":31.875,"x_max":982.671875,"ha":1043,"o":"m 179 759 l 436 759 l 619 440 q 641 458 632 448 q 719 654 691 510 l 739 759 l 982 759 l 958 638 q 836 379 923 457 q 695 307 773 323 l 872 0 l 408 0 l 31 0 l 65 173 l 515 173 l 179 759 m 250 379 l 250 379 "},"⟻":{"x_min":67.8125,"x_max":1912,"ha":1991,"o":"m 1749 354 l 298 354 l 432 219 l 334 121 l 67 387 l 67 483 l 334 749 l 432 651 l 298 517 l 1749 517 l 1749 727 l 1912 727 l 1912 144 l 1749 144 l 1749 354 "},"♏":{"x_min":46.921875,"x_max":1199.375,"ha":1246,"o":"m 868 183 q 903 65 868 108 q 998 23 938 23 l 1059 23 l 1059 103 l 1061 103 l 1199 -14 l 1061 -132 l 1059 -130 l 1059 -50 l 998 -50 q 815 31 861 -50 q 775 161 775 81 l 775 697 q 740 912 775 912 q 652 838 699 912 q 561 628 605 764 l 561 0 l 459 0 l 459 625 q 448 879 459 843 q 413 915 438 915 q 324 838 385 915 q 251 616 263 761 l 251 0 l 150 0 l 150 738 q 46 997 150 867 l 143 997 q 247 824 223 943 q 325 951 263 887 q 433 1015 387 1015 q 516 947 476 1015 q 556 793 556 880 q 651 944 584 874 q 769 1015 718 1015 q 840 958 812 1015 q 868 753 868 901 l 868 616 l 868 184 l 868 183 "},"ᵈ":{"x_min":66,"x_max":667.9375,"ha":665,"o":"m 302 540 q 399 588 361 540 q 436 714 436 637 q 415 770 436 749 q 357 790 394 790 q 261 741 299 790 q 224 619 224 694 q 244 560 224 580 q 302 540 264 540 m 464 815 l 513 1044 l 667 1044 l 538 453 l 384 453 l 398 514 q 324 459 363 477 q 240 442 286 442 q 112 487 159 442 q 66 611 66 532 q 82 707 66 660 q 129 791 98 753 q 217 863 168 839 q 322 888 266 888 q 406 870 371 888 q 464 815 440 852 "},"˕":{"x_min":201.421875,"x_max":530.328125,"ha":694,"o":"m 201 514 l 225 636 l 530 636 l 506 514 l 415 514 l 379 330 l 257 330 l 292 514 l 201 514 "},"ḽ":{"x_min":-157.328125,"x_max":491.671875,"ha":476,"o":"m 65 -79 l 242 -79 l 366 -333 l 245 -333 l 139 -181 l -23 -333 l -157 -333 l 65 -79 m 247 1055 l 491 1055 l 286 0 l 42 0 l 247 1055 "},"𝟘":{"x_min":66,"x_max":899,"ha":965,"o":"m 296 111 l 296 898 q 237 843 263 875 q 147 504 147 728 q 237 166 147 281 q 296 111 263 134 m 818 504 q 727 843 818 728 q 669 898 701 875 l 669 111 q 727 166 701 134 q 818 504 818 281 m 899 504 q 790 116 899 253 q 482 -20 682 -20 q 174 116 282 -20 q 66 504 66 253 q 174 893 66 756 q 482 1030 282 1030 q 790 893 682 1030 q 899 504 899 756 m 584 73 l 584 936 q 482 949 537 949 q 381 936 427 949 l 381 73 q 482 61 427 61 q 584 73 537 61 "},"ᓌ":{"x_min":48.8125,"x_max":1605.234375,"ha":1706,"o":"m 623 443 q 513 480 589 480 q 388 443 437 480 q 327 338 340 406 q 348 233 314 270 q 458 197 382 197 q 582 233 534 197 q 644 338 631 270 q 623 443 657 406 m 419 0 q 112 89 208 0 q 57 338 25 171 q 208 583 88 497 q 549 669 328 669 q 857 583 771 669 q 913 338 944 497 q 859 197 898 260 l 1228 197 l 1190 0 l 419 0 m 1419 589 l 1605 589 l 1572 422 l 1386 422 l 1419 589 "},"ī":{"x_min":42.71875,"x_max":558.8125,"ha":476,"o":"m 190 760 l 434 760 l 286 0 l 42 0 l 190 760 m 130 1060 l 558 1060 l 533 932 l 105 932 l 130 1060 "},"∐":{"x_min":102,"x_max":989,"ha":1093,"o":"m 102 -268 l 102 997 l 335 997 l 335 -72 l 756 -72 l 756 997 l 989 997 l 989 -268 l 102 -268 "},"̢":{"x_min":-439.671875,"x_max":17.625,"ha":0,"o":"m -400 162 l -156 162 l -185 12 q -183 -109 -203 -78 q -94 -141 -164 -141 l 17 -141 l -13 -300 l -204 -300 q -400 -220 -343 -300 q -429 13 -459 -138 l -400 162 "},"𝟀":{"x_min":-66.453125,"x_max":963,"ha":896,"o":"m 514 499 l 705 759 l 963 759 l 570 226 l 625 -39 q 657 -111 636 -93 q 714 -130 677 -130 l 790 -130 l 759 -289 l 646 -289 q 467 -238 522 -289 q 387 -61 413 -188 l 381 -30 l 190 -289 l -66 -289 l 324 241 l 269 509 q 236 583 258 565 q 182 600 214 600 l 106 600 l 136 759 l 277 759 q 423 711 366 759 q 507 531 480 663 l 514 499 "},"Բ":{"x_min":27.125,"x_max":1031.59375,"ha":1128,"o":"m 288 0 l 27 0 l 145 606 q 315 926 187 821 q 663 1032 443 1032 q 972 926 882 1032 q 1017 606 1059 823 l 1015 593 l 754 593 l 756 606 q 750 786 781 732 q 626 840 720 840 q 482 786 533 840 q 406 606 430 732 l 387 508 l 703 508 q 918 434 855 508 q 944 226 972 372 l 934 178 l 760 178 l 767 212 q 754 309 781 283 q 661 335 725 335 l 353 335 l 288 0 "},"ꞁ":{"x_min":14.921875,"x_max":461.15625,"ha":476,"o":"m 218 760 l 461 760 l 257 -289 l 14 -289 l 218 760 "},"Ễ":{"x_min":29.15625,"x_max":930.453125,"ha":949,"o":"m 506 1288 l 742 1288 l 845 1109 l 730 1109 l 619 1218 l 462 1109 l 341 1109 l 506 1288 m 640 1338 l 607 1363 q 580 1380 591 1376 q 556 1385 568 1385 q 514 1363 532 1385 q 489 1304 497 1341 l 396 1304 q 458 1437 414 1390 q 567 1484 503 1484 q 614 1475 592 1484 q 660 1449 636 1467 l 696 1422 q 719 1408 707 1413 q 742 1404 731 1404 q 787 1424 769 1404 q 811 1484 804 1445 l 905 1484 q 843 1350 887 1397 q 735 1304 798 1304 q 688 1311 710 1304 q 640 1338 666 1318 m 226 1013 l 930 1013 l 891 816 l 448 816 l 412 627 l 829 627 l 790 430 l 373 430 l 328 197 l 786 197 l 748 0 l 29 0 l 226 1013 "},"ˣ":{"x_min":-27.8125,"x_max":592.71875,"ha":573,"o":"m 198 670 l 63 878 l 227 878 l 303 751 l 427 878 l 592 878 l 377 671 l 518 453 l 354 453 l 271 587 l 136 453 l -27 453 l 198 670 "},"❉":{"x_min":66,"x_max":1098,"ha":1164,"o":"m 690 617 q 735 509 735 572 q 690 401 735 446 q 582 357 645 357 q 474 401 519 357 q 430 509 430 446 q 474 617 430 572 q 582 662 519 662 q 690 617 645 662 m 195 178 l 397 380 l 454 322 l 253 121 l 195 178 m 709 693 l 910 894 l 968 836 l 767 635 l 709 693 m 253 894 l 454 693 l 397 635 l 195 836 l 253 894 m 767 380 l 968 178 l 910 121 l 709 322 l 767 380 m 691 925 q 704 854 704 892 q 691 783 704 816 q 650 722 676 745 q 582 695 619 695 q 513 722 544 695 q 472 783 487 745 q 460 854 460 816 q 472 925 460 892 q 513 986 487 963 q 582 1014 544 1014 q 650 986 619 1014 q 691 925 676 963 m 691 212 q 704 141 704 179 q 691 70 704 103 q 650 9 676 32 q 582 -18 619 -18 q 513 9 544 -18 q 472 70 487 32 q 460 141 460 103 q 472 212 460 179 q 513 273 487 250 q 582 301 544 301 q 650 273 619 301 q 691 212 676 250 m 154 607 q 225 620 187 620 q 296 607 263 620 q 357 566 334 592 q 385 498 385 535 q 357 429 385 460 q 296 388 334 403 q 225 376 263 376 q 154 388 187 376 q 93 429 116 403 q 66 498 66 460 q 93 566 66 535 q 154 607 116 592 m 867 607 q 938 620 900 620 q 1009 607 976 620 q 1070 566 1047 592 q 1098 498 1098 535 q 1070 429 1098 460 q 1009 388 1047 403 q 938 376 976 376 q 867 388 900 376 q 806 429 829 403 q 779 498 779 460 q 806 566 779 535 q 867 607 829 592 "},"𝌸":{"x_min":115,"x_max":1130,"ha":1244,"o":"m 345 521 l 115 521 l 115 657 l 345 657 l 345 521 m 900 521 l 900 657 l 1130 657 l 1130 521 l 900 521 m 737 521 l 508 521 l 508 657 l 737 657 l 737 521 m 345 0 l 115 0 l 115 136 l 345 136 l 345 0 m 900 0 l 900 136 l 1130 136 l 1130 0 l 900 0 m 737 0 l 508 0 l 508 136 l 737 136 l 737 0 m 115 396 l 527 396 l 527 260 l 115 260 l 115 396 m 717 396 l 1129 396 l 1129 260 l 717 260 l 717 396 m 115 917 l 527 917 l 527 781 l 115 781 l 115 917 m 717 917 l 1129 917 l 1129 781 l 717 781 l 717 917 "},"❒":{"x_min":83,"x_max":1163,"ha":1246,"o":"m 1039 56 l 1039 956 l 139 956 l 139 56 l 1039 56 m 1095 0 l 83 0 l 83 1012 l 170 1080 l 1163 1080 l 1163 87 l 1095 0 "},"⢣":{"x_min":203,"x_max":881,"ha":1084,"o":"m 203 1085 l 474 1085 l 474 814 l 203 814 l 203 1085 m 203 724 l 474 724 l 474 453 l 203 453 l 203 724 m 610 362 l 881 362 l 881 91 l 610 91 l 610 362 m 610 0 l 881 0 l 881 -271 l 610 -271 l 610 0 "},"ƽ":{"x_min":-41.375,"x_max":795.5,"ha":890,"o":"m 102 159 l 134 325 l 219 760 l 795 760 l 766 610 l 433 610 l 377 325 l 381 325 q 614 293 546 325 q 750 175 714 245 q 771 9 788 97 q 611 -219 741 -141 q 259 -298 480 -298 q 105 -285 181 -298 q -41 -247 30 -272 l -2 -46 q 132 -101 63 -82 q 270 -120 200 -120 q 436 -84 374 -120 q 512 18 499 -48 q 476 123 525 87 q 315 159 425 159 l 102 159 "},"↢":{"x_min":68,"x_max":1101.53125,"ha":1164,"o":"m 68 387 l 68 483 l 334 749 l 432 651 l 298 517 l 770 517 l 1003 749 l 1101 651 l 885 435 l 1101 219 l 1003 121 l 770 354 l 298 354 l 432 219 l 334 121 l 68 387 "},"⧓":{"x_min":147,"x_max":1242,"ha":1389,"o":"m 1242 -67 l 694 337 l 147 -67 l 147 936 l 694 531 l 1242 936 l 1242 -67 "},"ᾯ":{"x_min":134.890625,"x_max":1440,"ha":1494,"o":"m 896 -289 l 775 -289 q 740 -165 715 -289 l 759 -62 l 892 -62 l 872 -166 q 893 -237 858 -237 l 906 -237 l 896 -289 m 379 1143 l 345 1168 q 318 1185 329 1181 q 294 1190 307 1190 q 252 1168 270 1190 q 227 1109 235 1146 l 134 1109 q 196 1242 152 1195 q 305 1289 241 1289 q 353 1280 330 1289 q 398 1254 375 1272 l 434 1227 q 457 1213 445 1218 q 480 1209 470 1209 q 525 1229 507 1209 q 550 1289 543 1250 l 643 1289 q 581 1155 626 1202 q 474 1109 537 1109 q 426 1116 448 1109 q 379 1143 404 1123 m 438 1090 l 420 1000 l 320 1000 q 402 909 303 909 l 386 826 q 238 1021 200 826 l 252 1090 l 438 1090 m 593 891 q 1003 1031 760 1031 q 1357 891 1246 1031 q 1440 648 1440 788 q 1428 541 1440 597 q 1185 197 1383 304 l 1393 197 l 1355 0 l 891 0 l 932 211 q 984 245 960 225 q 1157 534 1124 363 q 1166 637 1166 579 q 1134 753 1166 695 q 966 842 1086 842 q 764 753 847 842 q 656 535 681 665 q 648 449 648 490 q 717 245 648 332 q 756 211 733 225 l 715 0 l 250 0 l 288 197 l 497 197 q 377 439 377 280 q 387 541 377 487 q 593 891 428 751 "},"⢈":{"x_min":610,"x_max":881,"ha":1084,"o":"m 610 1085 l 881 1085 l 881 814 l 610 814 l 610 1085 m 610 0 l 881 0 l 881 -271 l 610 -271 l 610 0 "},"p":{"x_min":-13.859375,"x_max":940,"ha":994,"o":"m 308 109 l 230 -289 l -13 -289 l 190 760 l 434 760 l 412 648 q 528 746 467 715 q 662 778 589 778 q 865 696 790 778 q 940 474 940 615 q 913 304 940 387 q 838 153 887 221 q 699 24 777 68 q 532 -20 621 -20 q 400 11 454 -20 q 308 109 345 42 m 563 602 q 410 515 469 602 q 351 289 351 428 q 384 191 351 227 q 477 156 418 156 q 629 241 569 156 q 689 459 689 326 q 656 565 689 529 q 563 602 624 602 "},"Ἤ":{"x_min":40.015625,"x_max":1609.296875,"ha":1638,"o":"m 702 1011 l 963 1011 l 888 626 l 1273 626 l 1348 1011 l 1609 1011 l 1411 0 l 1150 0 l 1234 429 l 849 429 l 766 0 l 505 0 l 702 1011 m 91 1090 l 277 1090 l 263 1021 q 40 826 225 826 l 56 909 q 173 1000 155 909 l 73 1000 l 91 1090 m 497 1111 l 695 1111 l 398 855 l 262 855 l 497 1111 "},"Ѹ":{"x_min":79,"x_max":1647.359375,"ha":1596,"o":"m 865 505 q 705 156 827 306 q 376 -20 563 -20 q 146 100 225 -20 q 79 366 79 203 q 92 505 79 436 q 252 854 131 704 q 580 1031 394 1031 q 811 910 733 1031 q 879 644 879 807 q 865 505 879 574 m 618 609 q 633 728 633 686 q 544 842 633 842 q 424 757 467 842 q 379 609 399 709 q 360 505 373 575 q 339 404 360 505 q 325 286 325 333 q 413 169 325 169 q 533 253 490 169 q 577 401 558 302 l 618 609 m 1647 760 l 1166 -71 q 1033 -238 1099 -188 q 840 -300 954 -300 l 700 -300 l 730 -141 q 767 -141 744 -141 q 798 -141 789 -141 q 890 -123 860 -141 q 969 -29 928 -101 l 1041 97 l 916 759 l 1159 759 l 1210 395 q 1404 760 1273 511 l 1647 760 "},"䷯":{"x_min":115,"x_max":1130,"ha":1245,"o":"m 115 574 l 527 574 l 527 438 l 115 438 l 115 574 m 717 574 l 1129 574 l 1129 438 l 717 438 l 717 574 m 115 793 l 1130 793 l 1130 657 l 115 657 l 115 793 m 115 1013 l 527 1013 l 527 877 l 115 877 l 115 1013 m 717 1013 l 1129 1013 l 1129 877 l 717 877 l 717 1013 m 115 -84 l 527 -84 l 527 -220 l 115 -220 l 115 -84 m 717 -84 l 1129 -84 l 1129 -220 l 717 -220 l 717 -84 m 115 135 l 1130 135 l 1130 -1 l 115 -1 l 115 135 m 115 355 l 1130 355 l 1130 219 l 115 219 l 115 355 "},"ⱡ":{"x_min":-48.15625,"x_max":541.859375,"ha":500,"o":"m 109 421 l 144 597 l 20 597 l 54 773 l 179 773 l 233 1055 l 476 1055 l 421 773 l 541 773 l 507 597 l 387 597 l 352 421 l 472 421 l 438 245 l 318 245 l 271 0 l 28 0 l 75 245 l -48 245 l -14 421 l 109 421 "},"►":{"x_min":4,"x_max":1063.984375,"ha":1068,"o":"m 4 14 l 4 706 l 1063 360 l 4 14 "},"Ӭ":{"x_min":1.65625,"x_max":963,"ha":1019,"o":"m 411 1288 l 571 1288 l 539 1121 l 379 1121 l 411 1288 m 679 1288 l 840 1288 l 807 1121 l 647 1121 l 679 1288 m 232 604 l 689 604 q 690 617 690 610 q 638 766 690 691 q 441 842 586 842 q 135 746 294 842 l 176 955 q 504 1031 336 1031 q 876 889 756 1031 q 963 633 963 787 q 950 505 963 573 q 727 121 903 262 q 299 -20 552 -20 q 1 55 131 -20 l 42 264 q 310 169 164 169 q 540 247 456 169 q 651 407 623 325 l 194 407 l 232 604 "},"῭":{"x_min":210.90625,"x_max":672.0625,"ha":694,"o":"m 242 1075 l 404 1075 l 370 908 l 210 908 l 242 1075 m 512 1075 l 672 1075 l 638 908 l 479 908 l 512 1075 m 421 1357 l 562 1103 l 429 1103 l 229 1357 l 421 1357 "},"ບ":{"x_min":13.25,"x_max":994.875,"ha":1010,"o":"m 160 504 q 109 648 86 549 q 358 852 156 852 q 536 673 571 852 q 295 369 515 562 q 242 283 249 329 q 449 152 219 152 q 691 315 660 152 l 783 790 l 994 790 l 902 317 q 415 -20 836 -20 q 18 242 -31 -20 q 160 504 50 396 "},"ϕ":{"x_min":72.984375,"x_max":1022.84375,"ha":1106,"o":"m 708 588 l 629 180 l 677 211 q 768 378 744 255 q 744 558 788 479 q 708 588 727 588 m 537 -288 l 537 -288 m 591 -16 l 537 -289 l 296 -289 l 349 -16 q 139 86 209 4 q 82 379 47 196 q 232 672 116 553 q 503 773 316 756 l 558 1055 l 799 1055 l 744 773 q 975 672 925 756 q 1011 379 1045 553 q 840 86 976 196 q 591 -16 739 4 m 799 1055 l 799 1055 m 387 180 l 467 588 q 419 558 448 588 q 326 378 345 479 q 351 211 302 255 l 387 180 "},"y":{"x_min":0,"x_max":954.1875,"ha":905,"o":"m 91 759 l 320 759 l 425 232 l 694 760 l 954 760 l 473 -71 q 324 -256 392 -212 q 147 -300 255 -300 l 0 -300 l 25 -141 l 101 -141 q 194 -120 161 -141 q 252 -50 227 -100 l 275 -10 l 91 759 "},"Ⴌ":{"x_min":-18.8125,"x_max":858.109375,"ha":893,"o":"m 506 -50 l 575 311 q 580 348 580 329 q 575 387 580 363 q 554 434 571 410 q 510 472 537 458 q 451 486 484 486 q 387 477 417 486 q 330 451 356 469 q 286 404 304 433 q 259 334 268 375 l 185 -51 l -18 -51 l 124 687 q 180 830 139 763 q 280 946 221 896 q 411 1024 339 996 q 561 1053 483 1053 l 858 1053 l 822 869 l 525 869 q 458 854 490 869 q 399 815 426 840 q 354 758 373 791 q 329 688 335 725 l 308 583 q 354 625 331 608 q 400 652 377 641 q 445 666 423 662 q 487 671 467 671 q 731 593 670 671 q 793 414 793 516 q 781 311 793 367 l 711 -50 l 506 -50 "},"ḓ":{"x_min":50,"x_max":1005.234375,"ha":994,"o":"m 282 -79 l 460 -79 l 583 -333 l 462 -333 l 357 -181 l 193 -333 l 60 -333 l 282 -79 m 426 157 q 578 243 519 157 q 637 468 637 329 q 604 566 637 531 q 512 602 571 602 q 360 516 420 602 q 301 298 301 431 q 333 193 301 229 q 426 157 365 157 m 681 648 l 760 1055 l 1005 1055 l 799 0 l 555 0 l 577 110 q 460 12 521 43 q 327 -19 399 -19 q 124 62 199 -19 q 50 283 50 143 q 76 454 50 371 q 151 604 102 536 q 290 733 212 689 q 456 778 367 778 q 589 746 534 778 q 681 648 643 715 "},"∵":{"x_min":83,"x_max":885,"ha":967,"o":"m 361 372 l 605 372 l 605 109 l 361 109 l 361 372 m 641 899 l 885 899 l 885 636 l 641 636 l 641 899 m 83 899 l 327 899 l 327 636 l 83 636 l 83 899 "},"б":{"x_min":33,"x_max":889,"ha":970,"o":"m 539 777 q 812 687 735 777 q 889 479 889 596 q 865 312 889 433 q 711 85 842 191 q 383 -20 580 -20 q 110 70 187 -20 q 33 277 33 161 q 50 415 33 324 q 68 562 68 505 q 75 626 68 585 q 157 852 100 761 q 364 1050 261 1017 q 788 1079 450 1079 q 863 1100 823 1079 l 887 949 q 564 913 834 936 q 393 870 446 903 q 277 715 303 816 q 539 777 389 777 m 609 557 q 505 604 585 604 q 371 546 425 604 q 302 411 317 488 q 288 289 288 334 q 312 199 288 245 q 417 153 337 153 q 550 211 497 153 q 619 346 604 269 q 634 467 634 423 q 609 557 634 511 "},"☻":{"x_min":115,"x_max":1130,"ha":1245,"o":"m 115 506 q 263 866 115 717 q 622 1015 412 1015 q 981 866 833 1015 q 1130 506 1130 717 q 981 147 1130 295 q 622 0 833 0 q 263 147 412 0 q 115 506 115 295 m 383 502 l 337 502 q 618 212 337 212 q 908 504 908 212 l 860 504 q 622 293 795 293 q 383 502 467 293 m 915 698 q 826 795 915 795 q 728 695 728 795 q 819 602 728 602 q 915 698 915 602 m 520 700 q 430 795 520 795 q 332 695 332 795 q 424 602 332 602 q 520 700 520 602 "},"‐":{"x_min":34.59375,"x_max":499.8125,"ha":576,"o":"m 73 498 l 499 498 l 461 301 l 34 301 l 73 498 "},"ᒜ":{"x_min":111.21875,"x_max":1339.390625,"ha":1429,"o":"m 143 588 l 329 588 l 297 421 l 111 421 l 143 588 m 1078 330 l 1339 330 q 1176 68 1306 156 q 842 -20 1046 -20 q 560 70 662 -20 q 491 329 459 161 l 624 1012 l 885 1012 l 752 330 q 776 210 737 251 q 879 169 815 169 q 1005 212 947 169 q 1078 330 1064 255 "},"⨛":{"x_min":20.625,"x_max":761.140625,"ha":781,"o":"m 471 -114 q 390 -278 471 -219 q 246 -315 340 -315 q 73 -262 129 -315 q 20 -128 33 -224 l 171 -113 q 224 -152 183 -152 q 269 -89 269 -152 q 310 847 310 -89 q 390 1011 310 952 q 534 1048 440 1048 q 707 995 652 1048 q 761 861 747 957 l 610 846 q 555 885 598 885 q 510 822 510 885 q 471 -114 471 822 m 753 1096 l 102 1096 l 102 1249 l 753 1249 l 753 1096 "},"➩":{"x_min":79,"x_max":1061.234375,"ha":1163,"o":"m 561 104 l 561 266 l 79 266 l 79 605 l 561 605 l 561 766 l 730 766 l 1061 435 l 730 104 l 561 104 m 615 320 l 615 158 l 891 435 l 615 712 l 615 551 l 133 551 l 133 320 l 615 320 "},"₰":{"x_min":2.421875,"x_max":917,"ha":967,"o":"m 126 332 l 2 421 q 261 605 150 605 q 383 558 342 605 q 466 485 450 485 q 517 503 496 485 q 429 718 429 597 q 435 789 429 752 q 524 965 458 906 q 716 1031 597 1031 q 886 965 832 1031 q 917 862 917 928 q 908 789 917 830 q 783 519 878 635 q 862 331 862 431 q 856 279 862 305 q 713 53 826 127 q 435 -20 600 -20 l 465 134 q 606 177 548 134 q 662 280 648 208 q 665 306 665 294 q 635 383 665 349 q 433 305 541 305 q 306 375 348 305 q 243 430 273 430 q 126 332 209 430 m 656 627 q 725 789 708 700 q 730 833 730 813 q 725 867 730 853 q 689 906 713 906 q 637 867 661 906 q 608 789 617 834 q 604 744 604 765 q 656 627 604 673 "},"ц":{"x_min":61.71875,"x_max":947.40625,"ha":1029,"o":"m 208 759 l 451 759 l 337 173 l 578 173 l 692 759 l 935 759 l 821 174 l 947 174 l 876 -192 l 703 -192 l 740 0 l 61 0 l 208 759 "},"⌌":{"x_min":488,"x_max":1054,"ha":1123,"o":"m 488 300 l 634 300 l 634 -107 l 488 -107 l 488 300 m 648 313 l 648 460 l 1054 460 l 1054 313 l 648 313 "},"о":{"x_min":50,"x_max":904,"ha":954,"o":"m 520 604 q 365 518 426 604 q 304 300 304 433 q 337 191 304 228 q 433 153 370 153 q 588 239 527 153 q 649 458 649 325 q 616 566 649 529 q 520 604 583 604 m 540 777 q 807 691 710 777 q 904 456 904 605 q 873 289 904 370 q 784 141 842 208 q 621 20 715 61 q 410 -20 526 -20 q 146 66 243 -20 q 50 300 50 152 q 81 468 50 386 q 170 617 112 549 q 332 736 238 696 q 540 777 426 777 "},"𝌛":{"x_min":115,"x_max":1130,"ha":1244,"o":"m 345 521 l 115 521 l 115 657 l 345 657 l 345 521 m 900 521 l 900 657 l 1130 657 l 1130 521 l 900 521 m 737 521 l 508 521 l 508 657 l 737 657 l 737 521 m 115 136 l 1130 136 l 1130 0 l 115 0 l 115 136 m 115 917 l 1130 917 l 1130 781 l 115 781 l 115 917 m 115 396 l 527 396 l 527 260 l 115 260 l 115 396 m 717 396 l 1129 396 l 1129 260 l 717 260 l 717 396 "},"⋜":{"x_min":147,"x_max":1016,"ha":1163,"o":"m 1016 647 l 147 647 l 147 808 l 1016 808 l 1016 647 m 1016 165 l 1016 0 l 147 226 l 147 385 l 1016 613 l 1016 448 l 407 307 l 1016 165 "},"⊥":{"x_min":119,"x_max":1151,"ha":1270,"o":"m 562 147 l 562 979 l 708 979 l 708 147 l 1151 147 l 1151 0 l 119 0 l 119 147 l 562 147 "},"Д":{"x_min":-35.9375,"x_max":1129.828125,"ha":1237,"o":"m 428 197 l 710 197 l 830 815 l 611 815 l 599 753 q 428 197 515 319 m 388 1012 l 1129 1012 l 971 197 l 1114 197 l 1034 -218 l 836 -218 l 878 0 l 203 0 l 161 -218 l -35 -218 l 44 197 l 120 197 q 233 312 200 243 q 351 821 266 381 l 388 1012 "},"𝘾":{"x_min":50,"x_max":1005.234375,"ha":1019,"o":"m 841 47 q 661 -3 747 13 q 498 -20 575 -20 q 172 91 294 -20 q 50 388 50 203 q 88 617 50 509 q 202 813 127 725 q 416 974 291 918 q 685 1031 541 1031 q 843 1012 764 1031 q 1005 955 923 993 l 963 746 q 832 818 898 795 q 691 842 766 842 q 428 721 534 842 q 323 418 323 600 q 388 235 323 302 q 567 169 453 169 q 713 193 636 169 q 885 271 790 218 l 841 47 "},"ᒷ":{"x_min":29.15625,"x_max":1112.875,"ha":1213,"o":"m 927 589 l 1112 589 l 1080 422 l 894 422 l 927 589 m 486 1012 l 328 197 l 771 197 l 733 0 l 29 0 l 225 1012 l 486 1012 "},"❿":{"x_min":81,"x_max":1094,"ha":1175,"o":"m 1094 486 q 945 127 1094 275 q 586 -20 797 -20 q 229 127 377 -20 q 81 486 81 275 q 149 740 81 618 q 339 927 217 862 q 586 993 460 993 q 836 927 714 993 q 1026 740 958 862 q 1094 486 1094 619 m 244 224 l 564 224 l 564 346 l 468 346 l 468 795 l 350 795 l 242 766 l 242 646 l 341 672 l 341 346 l 244 346 l 244 224 m 790 333 q 749 370 762 333 q 736 509 736 407 q 749 646 736 609 q 790 683 762 683 q 831 646 818 683 q 845 509 845 609 q 831 370 845 407 q 790 333 818 333 m 790 804 q 652 725 700 804 q 604 507 604 647 q 652 289 604 367 q 790 212 700 212 q 928 289 880 212 q 977 507 977 367 q 928 725 977 647 q 790 804 880 804 "},"Ӂ":{"x_min":-78.390625,"x_max":1733.671875,"ha":1700,"o":"m 770 1288 l 866 1288 q 901 1228 873 1247 q 982 1210 928 1210 q 1067 1230 1031 1210 q 1118 1288 1102 1251 l 1222 1288 q 1128 1154 1195 1200 q 961 1109 1061 1109 q 819 1154 869 1109 q 770 1285 770 1200 l 770 1288 m -78 0 l 453 607 l 162 1013 l 436 1013 l 736 595 l 817 1013 l 1078 1013 l 997 595 l 1459 1013 l 1733 1013 l 1284 607 l 1581 0 l 1293 0 l 1085 426 l 938 294 l 881 0 l 620 0 l 677 294 l 582 426 l 209 0 l -78 0 "},"◜":{"x_min":4,"x_max":534,"ha":538,"o":"m 4 361 q 269 819 4 666 q 534 896 401 896 l 534 816 q 309 750 421 816 q 83 361 83 620 l 4 361 "},"͌":{"x_min":-607.640625,"x_max":-43.40625,"ha":0,"o":"m -363 830 l -396 855 q -424 872 -413 868 q -447 877 -435 877 q -489 855 -472 877 q -514 796 -507 833 l -607 796 q -545 929 -590 882 q -436 976 -501 976 q -389 967 -411 976 q -343 941 -367 959 l -307 914 q -284 900 -297 905 q -261 896 -272 896 q -217 916 -235 896 q -192 976 -199 937 l -99 976 q -161 842 -116 889 q -268 796 -205 796 q -316 803 -294 796 q -363 830 -337 810 m -307 1014 l -341 1039 q -368 1056 -357 1052 q -391 1061 -379 1061 q -434 1039 -416 1061 q -459 979 -451 1017 l -552 979 q -489 1113 -534 1066 q -381 1160 -445 1160 q -333 1151 -356 1160 q -288 1125 -311 1143 l -252 1097 q -229 1083 -241 1088 q -206 1079 -217 1079 q -161 1099 -179 1079 q -136 1160 -143 1120 l -43 1160 q -105 1026 -61 1073 q -212 979 -149 979 q -260 986 -238 979 q -307 1014 -282 994 "},"Ĵ":{"x_min":-230.578125,"x_max":629.34375,"ha":517,"o":"m 290 1288 l 526 1288 l 629 1109 l 514 1109 l 402 1218 l 246 1109 l 124 1109 l 290 1288 m 226 1013 l 487 1013 l 309 98 q 155 -188 270 -99 q -177 -278 40 -278 l -230 -278 l -191 -81 l -151 -81 q -19 -35 -70 -81 q 48 98 31 10 l 226 1013 "},"Ҕ":{"x_min":29.109375,"x_max":984,"ha":1095,"o":"m 412 627 l 766 627 q 950 546 896 627 q 984 414 984 495 q 973 311 984 367 l 931 98 q 773 -184 894 -90 q 444 -278 653 -278 l 391 -278 l 430 -81 l 471 -81 q 603 -35 552 -81 q 670 98 653 10 l 687 187 q 710 324 707 292 q 710 343 710 335 q 704 379 710 366 q 674 417 695 403 q 621 430 652 430 l 374 430 l 290 0 l 29 0 l 225 1013 l 945 1013 l 907 816 l 448 816 l 412 627 "},"⪶":{"x_min":147,"x_max":1016,"ha":1163,"o":"m 147 740 l 147 934 q 1016 622 386 701 l 1016 461 q 147 149 397 392 l 147 344 q 664 555 346 529 q 147 740 347 555 m 1016 125 l 1016 -36 l 698 -36 l 648 -123 l 1016 -123 l 1016 -284 l 555 -284 l 475 -422 l 336 -343 l 370 -284 l 147 -284 l 147 -123 l 464 -123 l 514 -36 l 147 -36 l 147 125 l 607 125 l 687 263 l 826 184 l 792 125 l 1016 125 "},"г":{"x_min":39.328125,"x_max":762.9375,"ha":726,"o":"m 187 760 l 762 760 l 733 610 l 400 610 l 282 0 l 39 0 l 187 760 "},"⚤":{"x_min":110,"x_max":1525,"ha":1587,"o":"m 1150 273 q 877 162 1037 162 q 683 213 769 162 q 560 178 625 185 l 560 0 l 745 0 l 745 -84 l 560 -84 l 560 -258 l 443 -258 l 443 -84 l 272 -84 l 272 0 l 443 0 l 443 178 q 224 276 317 189 q 110 544 110 383 q 223 819 110 706 q 500 932 337 932 q 689 883 604 932 q 871 925 772 925 q 1102 850 1026 925 l 1346 1087 l 1095 1087 l 1190 1183 l 1525 1183 l 1525 849 l 1428 752 l 1428 1005 l 1183 767 q 1257 539 1257 694 q 1150 273 1257 383 m 1060 728 q 873 807 980 807 q 793 798 831 807 q 888 544 888 692 q 791 292 888 392 q 875 278 830 278 q 1062 356 985 278 q 1140 543 1140 435 q 1060 728 1140 650 m 579 300 q 492 545 492 404 l 490 547 q 585 798 490 691 q 499 813 545 813 q 310 735 388 813 q 232 546 232 658 q 310 362 232 436 q 499 289 388 289 q 579 300 541 289 m 684 360 q 766 546 766 432 q 688 735 766 657 q 610 545 610 657 q 684 360 610 435 "},"⭔":{"x_min":53,"x_max":1154.046875,"ha":1207,"o":"m 703 1002 l 130 816 l 130 212 l 703 25 l 1059 514 l 703 1002 m 733 1093 l 1154 514 l 733 -65 l 53 156 l 53 872 l 733 1093 "},"ᾙ":{"x_min":89.859375,"x_max":1291.90625,"ha":1321,"o":"m 385 1012 l 646 1012 l 571 627 l 956 627 l 1030 1012 l 1291 1012 l 1094 0 l 833 0 l 916 430 l 532 430 l 448 0 l 187 0 l 385 1012 m 295 1090 l 278 1000 l 178 1000 q 260 909 160 909 l 244 826 q 96 1021 58 826 l 109 1090 l 295 1090 m 732 -289 l 611 -289 q 575 -165 551 -289 l 595 -62 l 728 -62 l 708 -166 q 729 -237 694 -237 l 742 -237 l 732 -289 "},"⡳":{"x_min":203,"x_max":881,"ha":1084,"o":"m 203 1085 l 474 1085 l 474 814 l 203 814 l 203 1085 m 203 724 l 474 724 l 474 453 l 203 453 l 203 724 m 610 724 l 881 724 l 881 453 l 610 453 l 610 724 m 610 362 l 881 362 l 881 91 l 610 91 l 610 362 m 203 0 l 474 0 l 474 -271 l 203 -271 l 203 0 "},"Յ":{"x_min":31,"x_max":1050.703125,"ha":1102,"o":"m 157 768 q 291 963 182 896 q 653 1031 400 1031 q 987 964 905 1031 q 1044 768 1069 897 q 970 624 1028 681 q 814 538 911 566 q 951 445 911 510 q 972 284 991 382 q 828 56 943 133 q 450 -20 713 -20 q 101 56 189 -20 q 31 254 31 118 l 291 254 q 321 184 295 218 q 480 144 351 144 q 654 184 596 144 q 728 297 713 223 q 699 413 740 359 q 538 442 676 442 l 115 442 l 149 616 l 572 616 q 728 648 676 616 q 792 741 780 681 q 764 834 801 789 q 621 867 737 867 q 465 834 517 867 q 404 768 411 801 l 157 768 "},"ʟ":{"x_min":42.71875,"x_max":657.140625,"ha":749,"o":"m 190 759 l 436 759 l 326 197 l 657 197 l 618 0 l 42 0 l 190 759 "},"Җ":{"x_min":-56.96875,"x_max":1755.109375,"ha":1700,"o":"m -56 0 l 475 607 l 183 1013 l 457 1013 l 758 594 l 838 1013 l 1099 1013 l 1019 594 l 1481 1013 l 1755 1013 l 1306 607 l 1506 197 l 1641 197 l 1602 0 l 1560 -218 l 1300 -218 l 1342 0 l 1314 0 l 1106 426 l 960 294 l 903 0 l 642 0 l 699 294 l 604 426 l 230 0 l -56 0 "},"⊻":{"x_min":142,"x_max":984,"ha":1127,"o":"m 209 1055 l 451 1055 l 563 530 l 674 1055 l 917 1055 l 695 251 l 429 251 l 209 1055 m 142 159 l 984 159 l 984 0 l 142 0 l 142 159 "},"ᓅ":{"x_min":-27.125,"x_max":1245.234375,"ha":1293,"o":"m 947 443 q 836 480 912 480 q 712 443 760 480 q 650 338 663 406 q 671 233 637 270 q 781 197 705 197 q 906 233 857 197 q 968 338 954 270 q 947 443 981 406 m 743 0 l -27 0 l 11 197 l 380 197 q 381 338 366 260 q 532 583 412 497 q 873 669 652 669 q 1181 583 1094 669 q 1236 338 1268 497 q 1085 89 1204 171 q 743 0 954 0 m 813 926 l 999 926 l 967 759 l 781 759 l 813 926 "},"։":{"x_min":92.90625,"x_max":462.515625,"ha":555,"o":"m 217 645 l 462 645 l 411 382 l 166 382 l 217 645 m 143 263 l 388 263 l 337 0 l 92 0 l 143 263 "},"ﬗ":{"x_min":80.484375,"x_max":2334.828125,"ha":2378,"o":"m 1138 881 l 931 881 q 887 851 889 881 q 891 809 885 828 l 910 749 q 904 552 930 687 l 797 0 l 554 0 l 576 109 q 440 11 508 43 q 299 -20 373 -20 q 114 60 167 -20 q 91 295 61 141 l 181 759 l 425 759 l 410 683 q 379 528 398 622 q 355 404 361 435 q 334 272 334 312 q 338 213 334 231 q 370 176 349 189 q 423 164 392 164 q 554 222 499 164 q 628 384 609 280 l 662 557 q 669 691 681 654 l 637 797 q 645 972 603 905 q 830 1055 699 1055 l 1414 1055 l 1335 648 q 1440 745 1360 709 q 1582 778 1508 778 q 1766 697 1714 778 q 1789 462 1819 616 l 1778 404 q 1755 272 1755 301 q 1760 213 1755 231 q 1792 176 1771 189 q 1845 164 1814 164 q 1944 222 1889 164 q 2018 384 1999 280 l 2092 760 l 2334 760 l 2187 0 l 1944 0 l 1965 109 q 1862 12 1902 30 q 1721 -20 1795 -20 q 1536 60 1589 -20 q 1512 295 1483 141 l 1524 354 q 1546 489 1541 440 q 1541 544 1550 523 q 1510 581 1531 568 q 1457 595 1488 595 q 1357 535 1411 595 q 1281 373 1302 476 l 1152 -289 l 910 -289 l 1138 881 "},"Ἀ":{"x_min":-90.203125,"x_max":959.609375,"ha":1075,"o":"m 682 185 l 278 185 l 177 0 l -90 0 l 482 1013 l 780 1013 l 959 1 l 711 1 l 682 185 m 376 369 l 648 369 l 587 759 l 376 369 m 175 1091 l 361 1091 l 347 1022 q 124 827 309 827 l 140 910 q 257 1001 239 910 l 158 1001 l 175 1091 "},"𝟜":{"x_min":62.03125,"x_max":902.453125,"ha":966,"o":"m 473 862 l 137 374 l 473 374 l 473 862 m 677 931 l 554 931 l 554 81 l 677 81 l 677 931 m 467 1012 l 758 1012 l 758 374 l 902 374 l 902 293 l 758 293 l 758 0 l 473 0 l 473 293 l 62 293 l 62 408 l 467 1012 "},"Ὕ":{"x_min":87.140625,"x_max":1782.90625,"ha":1665,"o":"m 746 1013 l 1007 1013 l 1180 637 l 1481 1013 l 1782 1013 l 1283 422 l 1201 0 l 939 0 l 1022 422 l 746 1013 m 292 1090 l 275 1000 l 175 1000 q 257 909 158 909 l 241 826 q 93 1021 55 826 l 107 1090 l 292 1090 m 538 1111 l 737 1111 l 440 856 l 303 856 l 538 1111 "},"պ":{"x_min":110.625,"x_max":1433.65625,"ha":1447,"o":"m 605 124 q 474 17 545 53 q 328 -20 404 -20 q 144 60 197 -20 q 121 295 91 141 l 211 757 l 455 757 l 379 361 q 374 343 376 352 q 368 316 372 333 q 369 198 352 235 q 439 163 386 163 q 556 219 508 163 q 627 384 605 276 l 700 758 l 944 758 l 868 361 q 857 198 842 235 q 928 163 872 163 q 1047 220 998 163 q 1116 384 1095 277 l 1189 758 l 1433 758 l 1230 -289 l 986 -289 l 1063 109 q 941 12 1006 45 q 807 -20 877 -20 q 676 17 729 -20 q 605 124 623 55 "},"Ԥ":{"x_min":50.1875,"x_max":1256.640625,"ha":1329,"o":"m 996 197 l 1256 197 l 1175 -218 l 915 -218 l 957 0 l 696 0 l 855 815 l 469 815 l 311 0 l 50 0 l 246 1012 l 1154 1012 l 996 197 "},"𝙂":{"x_min":50,"x_max":1080.484375,"ha":1140,"o":"m 946 74 q 740 3 847 26 q 512 -20 634 -20 q 173 89 296 -20 q 50 388 50 199 q 88 618 50 511 q 203 815 127 726 q 424 977 297 923 q 715 1031 552 1031 q 898 1012 806 1031 q 1080 955 990 993 l 1040 746 q 878 818 957 794 q 719 842 799 842 q 434 725 544 842 q 325 425 325 608 q 389 236 325 303 q 569 169 453 169 q 645 174 607 169 q 722 190 683 179 l 761 387 l 601 387 l 634 562 l 1040 562 l 946 74 "},"⨒":{"x_min":20.265625,"x_max":760.890625,"ha":781,"o":"m 292 474 l 487 474 l 487 264 l 292 264 l 292 474 m 280 -90 l 280 178 l 602 178 l 602 553 l 333 553 l 333 848 q 408 1011 333 954 q 545 1048 456 1048 q 710 994 657 1048 q 760 861 748 955 l 610 846 q 554 885 597 885 q 507 823 507 885 l 507 699 l 748 699 l 748 32 l 443 32 l 443 -114 q 368 -278 443 -221 q 232 -315 320 -315 q 70 -261 122 -315 q 20 -128 32 -222 l 170 -113 q 229 -152 183 -152 q 280 -90 280 -152 "},"ᔾ":{"x_min":78.671875,"x_max":624.59375,"ha":687,"o":"m 269 453 l 113 453 l 447 712 l 78 712 l 138 1019 l 294 1019 l 254 818 l 624 818 l 604 712 l 269 453 "},"ḳ":{"x_min":42.71875,"x_max":994.203125,"ha":924,"o":"m 247 1055 l 491 1055 l 380 483 l 708 760 l 994 760 l 552 408 l 873 0 l 596 0 l 349 327 l 286 0 l 42 0 l 247 1055 m 499 -295 l 314 -295 l 347 -128 l 533 -128 l 499 -295 "},"ѫ":{"x_min":-17.90625,"x_max":948.71875,"ha":954,"o":"m 641 610 l 397 610 l 478 399 l 641 610 m 200 0 l -17 0 q 150 293 18 187 q 296 371 215 345 l 148 760 l 948 760 l 649 371 q 763 293 719 345 q 828 101 828 217 q 817 0 828 53 l 598 0 q 606 70 606 38 q 580 167 606 129 q 516 214 557 200 l 474 0 l 322 0 l 363 213 q 284 167 319 198 q 200 0 221 109 "},"Ѝ":{"x_min":29.15625,"x_max":1133.21875,"ha":1162,"o":"m 693 1288 l 791 1109 l 670 1109 l 514 1288 l 693 1288 m 1133 1013 l 936 0 l 689 0 l 823 694 l 320 0 l 29 0 l 225 1013 l 473 1013 l 338 318 l 841 1013 l 1133 1013 "},"䷼":{"x_min":115,"x_max":1130,"ha":1245,"o":"m 115 574 l 527 574 l 527 438 l 115 438 l 115 574 m 717 574 l 1129 574 l 1129 438 l 717 438 l 717 574 m 115 793 l 1130 793 l 1130 657 l 115 657 l 115 793 m 115 1013 l 1130 1013 l 1130 877 l 115 877 l 115 1013 m 115 -84 l 1130 -84 l 1130 -220 l 115 -220 l 115 -84 m 115 135 l 1130 135 l 1130 -1 l 115 -1 l 115 135 m 115 355 l 527 355 l 527 219 l 115 219 l 115 355 m 717 355 l 1129 355 l 1129 219 l 717 219 l 717 355 "},"ǲ":{"x_min":29.28125,"x_max":1966.828125,"ha":2014,"o":"m 1304 759 l 1966 759 l 1933 590 l 1460 173 l 1852 173 l 1819 0 l 1140 0 l 1172 169 l 1647 586 l 1271 586 l 1304 759 m 450 816 l 329 197 l 422 197 q 711 299 605 197 q 818 576 818 402 q 748 755 818 695 q 541 816 678 816 l 450 816 m 226 1013 l 501 1013 q 796 989 697 1013 q 959 911 894 966 q 1058 777 1025 856 q 1092 600 1092 699 q 1035 340 1092 462 q 876 136 978 218 q 668 31 786 62 q 304 0 550 0 l 29 0 l 226 1013 "},"͞":{"x_min":-403.515625,"x_max":858.5625,"ha":0,"o":"m -378 1235 l 858 1235 l 833 1107 l -403 1107 l -378 1235 "},"⤆":{"x_min":68.1875,"x_max":1085,"ha":1164,"o":"m 922 486 l 268 486 l 217 435 l 268 385 l 922 385 l 922 486 m 922 276 l 376 276 l 433 219 l 334 121 l 68 388 l 68 482 l 334 749 l 433 651 l 376 595 l 922 595 l 922 727 l 1085 727 l 1085 144 l 922 144 l 922 276 "},"У":{"x_min":106.46875,"x_max":1127.796875,"ha":1071,"o":"m 138 1012 l 410 1012 l 545 551 l 853 1013 l 1127 1013 l 565 167 q 480 73 527 110 q 153 0 384 0 l 106 0 l 144 197 l 216 197 q 343 243 311 197 l 357 264 l 138 1012 "},"𝟇":{"x_min":72.984375,"x_max":1022.84375,"ha":1106,"o":"m 708 588 l 629 180 l 677 211 q 768 378 744 255 q 744 558 788 479 q 708 588 727 588 m 537 -288 l 537 -288 m 591 -16 l 537 -289 l 296 -289 l 349 -16 q 139 86 209 4 q 82 379 47 196 q 232 672 116 553 q 503 773 316 756 l 558 1055 l 799 1055 l 744 773 q 975 672 925 756 q 1011 379 1045 553 q 840 86 976 196 q 591 -16 739 4 m 799 1055 l 799 1055 m 387 180 l 467 588 q 419 558 448 588 q 326 378 345 479 q 351 211 302 255 l 387 180 "},"ᴎ":{"x_min":42.71875,"x_max":930.453125,"ha":973,"o":"m 42 0 l 190 760 l 433 760 l 354 355 l 678 760 l 930 760 l 782 0 l 539 0 l 618 404 l 295 0 l 42 0 "},"⟦":{"x_min":10.171875,"x_max":691.734375,"ha":677,"o":"m 295 974 l 105 -102 l 215 -102 l 405 974 l 295 974 m 228 1055 l 691 1055 l 677 974 l 486 974 l 297 -102 l 487 -102 l 473 -183 l 10 -183 l 228 1055 "},"➍":{"x_min":6,"x_max":1158,"ha":1164,"o":"m 626 815 l 626 382 l 349 382 l 626 815 m 598 911 l 261 397 l 261 292 l 627 292 l 627 101 l 736 101 l 736 292 l 851 292 l 851 383 l 736 383 l 736 911 l 598 911 m 360 1039 q 582 1083 463 1083 q 803 1039 700 1083 q 989 912 904 997 q 1115 726 1074 827 q 1158 503 1158 623 q 1115 284 1158 387 q 989 98 1074 183 q 803 -28 904 13 q 582 -72 700 -72 q 360 -28 463 -72 q 174 98 259 13 q 48 284 89 183 q 6 503 6 387 q 48 726 6 623 q 174 912 89 827 q 360 1039 259 997 "},"Ģ":{"x_min":50,"x_max":1080.484375,"ha":1140,"o":"m 416 -109 l 636 -109 l 446 -311 l 316 -311 l 416 -109 m 946 74 q 740 3 847 26 q 512 -20 634 -20 q 173 89 296 -20 q 50 388 50 199 q 88 618 50 511 q 203 815 127 726 q 424 977 297 923 q 715 1031 552 1031 q 898 1012 806 1031 q 1080 955 990 993 l 1040 746 q 878 818 957 794 q 719 842 799 842 q 434 725 544 842 q 325 425 325 608 q 389 236 325 303 q 569 169 453 169 q 645 174 607 169 q 722 190 683 179 l 761 387 l 601 387 l 634 562 l 1040 562 l 946 74 "},"⣂":{"x_min":203,"x_max":881,"ha":1084,"o":"m 203 724 l 474 724 l 474 453 l 203 453 l 203 724 m 203 0 l 474 0 l 474 -271 l 203 -271 l 203 0 m 610 0 l 881 0 l 881 -271 l 610 -271 l 610 0 "},"⡞":{"x_min":203,"x_max":881,"ha":1084,"o":"m 203 724 l 474 724 l 474 453 l 203 453 l 203 724 m 203 362 l 474 362 l 474 91 l 203 91 l 203 362 m 610 1085 l 881 1085 l 881 814 l 610 814 l 610 1085 m 610 724 l 881 724 l 881 453 l 610 453 l 610 724 m 203 0 l 474 0 l 474 -271 l 203 -271 l 203 0 "},"ᕻ":{"x_min":95.5,"x_max":766,"ha":858,"o":"m 227 635 l 261 813 l 181 705 l 95 794 l 269 1019 l 458 1019 l 416 804 q 527 824 495 824 q 716 782 667 824 q 766 677 766 741 q 761 635 766 658 q 662 491 742 540 q 453 443 582 443 q 281 487 339 443 q 223 597 223 531 q 227 635 223 615 m 472 542 q 549 566 510 542 q 596 635 588 590 q 599 654 599 646 q 574 704 599 684 q 507 725 550 725 q 426 703 460 725 q 383 635 391 681 q 381 616 381 625 q 407 564 381 586 q 472 542 433 542 "},"⁵":{"x_min":16.953125,"x_max":545.25,"ha":608,"o":"m 146 1019 l 545 1019 l 524 912 l 253 912 l 236 825 q 274 832 255 829 q 314 835 293 835 q 480 782 427 835 q 515 638 533 731 q 419 494 497 545 q 217 443 339 443 q 114 451 164 443 q 16 480 65 461 l 39 595 q 128 555 84 568 q 211 542 170 542 q 307 568 267 542 q 355 638 347 594 q 335 709 364 683 q 248 735 307 735 q 173 726 214 735 q 84 701 132 718 l 146 1019 "},"ớ":{"x_min":55,"x_max":1067,"ha":955,"o":"m 525 604 q 370 518 431 604 q 309 300 309 433 q 342 191 309 228 q 438 153 375 153 q 593 239 532 153 q 654 458 654 325 q 621 566 654 529 q 525 604 588 604 m 545 777 q 812 691 715 777 q 909 456 909 605 q 878 289 909 370 q 789 141 847 208 q 626 20 720 61 q 415 -20 531 -20 q 151 66 248 -20 q 55 300 55 152 q 86 468 55 386 q 175 617 117 549 q 337 736 243 696 q 545 777 431 777 m 770 576 l 789 671 q 850 624 828 637 q 890 612 872 612 q 937 632 916 612 q 964 685 957 652 q 969 737 969 711 q 963 791 969 764 l 1067 791 q 1067 721 1067 753 q 1061 662 1067 690 q 1006 542 1046 584 q 908 501 967 501 q 838 519 872 501 q 770 576 804 537 m 565 1110 l 763 1110 l 466 856 l 330 856 l 565 1110 "},"á":{"x_min":24,"x_max":871.375,"ha":938,"o":"m 457 342 q 320 313 366 342 q 274 230 274 285 q 301 164 274 188 q 377 141 328 141 q 501 186 451 141 q 568 314 552 231 l 574 342 l 457 342 m 836 432 l 752 0 l 509 0 l 529 112 q 403 12 469 44 q 258 -20 336 -20 q 87 35 150 -20 q 24 186 24 91 q 136 409 24 332 q 460 486 248 486 l 603 486 l 606 504 q 608 518 608 514 q 609 525 609 522 q 566 593 609 570 q 440 616 524 616 q 294 600 365 616 q 158 553 224 584 l 195 738 q 350 767 271 757 q 515 777 430 777 q 766 719 684 777 q 849 542 849 661 q 845 492 849 519 q 836 432 842 464 m 672 1111 l 871 1111 l 574 856 l 438 856 l 672 1111 "},"ᵡ":{"x_min":-34.59375,"x_max":599.5,"ha":564,"o":"m 320 732 l 437 878 l 599 878 l 360 579 l 398 431 q 418 391 405 401 q 455 381 432 381 l 502 381 l 485 291 l 414 291 q 301 319 336 291 q 248 419 265 348 l 243 436 l 127 291 l -34 291 l 204 588 l 166 738 q 144 778 158 769 q 109 789 130 789 l 62 789 l 79 878 l 167 878 q 260 851 223 878 q 316 750 297 824 l 320 732 "},"ꟽ":{"x_min":29.15625,"x_max":1352.265625,"ha":1382,"o":"m 29 0 l 225 1013 l 473 1013 l 329 271 l 668 818 l 834 818 l 961 271 l 1105 1013 l 1352 1013 l 1155 0 l 823 0 l 697 541 l 361 0 l 29 0 "},"Ⅎ":{"x_min":29.15625,"x_max":930.453125,"ha":949,"o":"m 733 0 l 29 0 l 67 197 l 510 197 l 547 386 l 130 386 l 169 583 l 585 583 l 669 1012 l 930 1012 l 733 0 "},"໔":{"x_min":33.375,"x_max":899.25,"ha":1012,"o":"m 849 -217 q 434 -112 596 -112 q 100 -23 179 -112 q 43 262 7 79 q 242 578 80 455 l 409 705 q 662 988 641 881 l 899 988 q 571 571 859 787 l 398 442 q 283 279 300 368 q 325 105 261 168 q 448 57 376 57 q 559 46 501 57 q 507 294 484 177 q 721 469 541 469 q 871 303 903 469 q 750 161 846 176 q 885 -33 789 18 l 849 -217 "},"☦":{"x_min":115,"x_max":786,"ha":901,"o":"m 377 912 l 377 871 l 514 871 l 514 912 l 377 912 m 390 946 l 390 1016 l 506 1016 l 506 946 l 591 946 l 591 836 l 506 836 l 506 776 l 512 776 l 786 776 l 786 657 l 506 657 l 506 293 l 603 199 l 603 93 l 511 183 l 511 -2 l 390 -2 l 390 299 l 299 389 l 299 495 l 390 406 l 390 657 l 115 657 l 115 777 l 390 777 l 390 836 l 310 836 l 310 946 l 390 946 m 422 392 l 469 392 l 469 692 l 651 692 l 651 741 l 469 741 l 469 808 l 421 808 l 421 741 l 240 741 l 240 692 l 422 692 l 422 392 "},"ứ":{"x_min":79,"x_max":1101,"ha":989,"o":"m 89 295 l 178 759 l 421 759 l 345 363 q 333 298 337 325 q 329 255 329 270 q 352 188 329 212 q 420 165 376 165 q 550 223 495 165 q 624 385 604 281 l 697 759 l 941 759 l 794 0 l 549 0 l 571 110 q 440 12 509 45 q 296 -20 372 -20 q 135 34 192 -20 q 79 190 79 89 q 81 240 79 213 q 89 295 84 266 m 804 576 l 823 671 q 884 624 861 637 q 924 612 906 612 q 971 631 950 612 q 998 685 991 651 q 1003 737 1003 711 q 997 791 1003 763 l 1101 791 q 1101 721 1101 753 q 1095 662 1101 690 q 1040 542 1080 584 q 942 501 1001 501 q 872 519 906 501 q 804 576 838 537 m 642 1109 l 840 1109 l 543 854 l 407 854 l 642 1109 "},"ȴ":{"x_min":44.765625,"x_max":582.25,"ha":683,"o":"m 372 155 q 474 216 463 155 q 459 233 477 233 q 373 198 408 233 l 341 166 q 372 155 354 155 m 335 348 q 470 411 398 411 q 557 378 529 411 q 573 221 596 332 q 496 52 552 112 q 318 -18 430 -18 q 211 0 256 -18 q 146 -104 177 -50 l 44 -55 q 111 57 65 -18 q 97 378 50 133 l 229 1055 l 472 1055 l 335 348 "},"ⱴ":{"x_min":60.9375,"x_max":953.40625,"ha":905,"o":"m 382 457 l 419 235 l 709 760 l 953 760 l 506 0 l 239 0 l 164 366 l 88 338 l 60 450 l 143 481 l 143 602 q 259 776 175 734 q 457 814 335 814 q 576 790 555 814 q 588 661 622 747 q 382 457 541 543 m 360 592 l 396 617 q 446 697 436 646 q 433 716 450 716 q 355 625 373 716 q 360 592 351 607 "},"ᴇ":{"x_min":53.578125,"x_max":730.390625,"ha":776,"o":"m 201 760 l 730 760 l 701 612 l 368 612 l 341 470 l 653 470 l 624 322 l 311 322 l 279 155 l 623 155 l 593 0 l 53 0 l 201 760 "},"K":{"x_min":29.15625,"x_max":1162.375,"ha":1076,"o":"m 226 1013 l 487 1013 l 416 648 l 847 1013 l 1162 1013 l 581 521 l 1019 0 l 712 0 l 372 422 l 290 0 l 29 0 l 226 1013 "},"ן":{"x_min":-59,"x_max":436.734375,"ha":476,"o":"m 232 -289 l -10 -289 l 193 760 l 436 760 l 232 -289 m -59 0 l -59 0 "},"ᔫ":{"x_min":109.859375,"x_max":1072.859375,"ha":1078,"o":"m 469 0 l 109 472 l 146 661 l 718 661 l 787 1012 l 1048 1012 l 943 472 l 371 472 l 731 0 l 469 0 m 886 1289 l 1072 1289 l 1040 1122 l 854 1122 l 886 1289 "},"b":{"x_min":42.421875,"x_max":940,"ha":994,"o":"m 563 601 q 410 514 469 601 q 351 289 351 428 q 384 191 351 227 q 477 156 418 156 q 629 241 569 156 q 689 459 689 326 q 656 564 689 528 q 563 601 624 601 m 308 109 l 285 0 l 42 0 l 247 1055 l 491 1055 l 412 647 q 528 745 467 714 q 662 777 589 777 q 865 695 790 777 q 940 474 940 614 q 913 303 940 386 q 838 153 887 221 q 699 24 777 68 q 532 -20 621 -20 q 400 11 454 -20 q 308 109 345 42 "},"≕":{"x_min":134,"x_max":1341,"ha":1475,"o":"m 134 670 l 1003 670 l 1003 511 l 134 511 l 134 670 m 134 361 l 1003 361 l 1003 200 l 134 200 l 134 361 m 1097 722 l 1341 722 l 1341 459 l 1097 459 l 1097 722 m 1097 405 l 1341 405 l 1341 142 l 1097 142 l 1097 405 "},"≮":{"x_min":147,"x_max":1016,"ha":1163,"o":"m 582 510 l 362 434 l 524 379 l 582 510 m 463 240 l 147 355 l 147 515 l 668 704 l 781 958 l 908 902 l 849 769 l 1016 829 l 1016 659 l 761 572 l 656 334 l 1016 210 l 1016 41 l 593 193 l 504 -6 l 378 50 l 463 240 "},"ɢ":{"x_min":49.15625,"x_max":795.5,"ha":871,"o":"m 694 48 q 538 -3 617 14 q 379 -20 459 -20 q 110 82 196 -20 q 59 369 23 184 q 223 657 95 556 q 540 759 351 759 q 677 745 613 759 q 795 704 741 731 l 764 544 q 652 593 709 577 q 534 610 595 610 q 349 549 422 610 q 254 369 277 490 q 277 189 230 249 q 432 129 324 129 q 487 133 461 129 q 535 143 513 136 l 556 257 l 368 257 l 402 427 l 768 427 l 694 48 "},"ຣ":{"x_min":20.359375,"x_max":1066.078125,"ha":1069,"o":"m 515 370 q 112 622 82 412 q 345 825 133 769 q 616 855 459 855 q 873 820 767 855 q 1066 669 1005 777 l 906 540 q 575 677 807 677 q 351 639 359 677 q 575 560 342 590 q 955 261 1004 505 q 471 -14 899 -14 q 71 51 147 -14 q 25 207 4 107 q 252 377 60 377 q 391 166 495 377 q 504 156 396 156 q 727 250 708 156 q 688 344 739 318 q 515 370 666 355 "},"⧐":{"x_min":147,"x_max":1306.046875,"ha":1453,"o":"m 306 -2 l 147 -2 l 147 873 l 306 873 l 306 -2 m 596 629 l 596 241 l 1090 435 l 596 629 m 437 -2 l 437 873 l 1306 515 l 1306 355 l 437 -2 "},"ᑾ":{"x_min":111.21875,"x_max":1280.765625,"ha":1361,"o":"m 143 588 l 329 588 l 297 421 l 111 421 l 143 588 m 423 329 l 556 1012 l 817 1012 l 748 654 q 909 671 821 671 q 1217 585 1131 671 q 1271 329 1304 499 q 1108 68 1238 156 q 775 -20 978 -20 q 493 70 594 -20 q 423 329 391 161 m 811 169 q 931 210 875 169 q 1002 329 987 251 q 982 442 1016 403 q 870 482 948 482 q 749 444 797 482 q 685 329 700 407 q 708 210 670 251 q 811 169 747 169 "},"⍺":{"x_min":67,"x_max":896,"ha":954,"o":"m 652 686 l 676 760 l 887 760 l 756 368 l 774 264 q 840 153 794 153 l 896 153 l 896 0 l 826 0 q 663 57 718 0 q 648 76 651 69 q 583 9 615 35 q 382 -17 551 -17 q 140 85 214 -17 q 67 389 67 188 q 143 671 67 589 q 426 776 240 776 q 652 686 583 776 m 558 399 l 538 510 q 429 613 519 613 q 346 554 384 613 q 309 376 309 495 q 342 203 309 257 q 427 150 376 150 q 512 253 480 150 l 558 399 "},"Ḡ":{"x_min":50,"x_max":1080.484375,"ha":1140,"o":"m 946 74 q 740 3 847 26 q 512 -20 634 -20 q 173 89 296 -20 q 50 388 50 199 q 88 618 50 511 q 203 815 127 726 q 424 977 297 923 q 715 1031 552 1031 q 898 1012 806 1031 q 1080 955 990 993 l 1040 746 q 878 818 957 794 q 719 842 799 842 q 434 725 544 842 q 325 425 325 608 q 389 236 325 303 q 569 169 453 169 q 645 174 607 169 q 722 190 683 179 l 761 387 l 601 387 l 634 562 l 1040 562 l 946 74 m 550 1249 l 978 1249 l 952 1121 l 525 1121 l 550 1249 "},"ȭ":{"x_min":50,"x_max":904,"ha":954,"o":"m 520 604 q 365 518 426 604 q 304 300 304 433 q 337 191 304 228 q 433 153 370 153 q 588 239 527 153 q 649 458 649 325 q 616 566 649 529 q 520 604 583 604 m 540 777 q 807 691 710 777 q 904 456 904 605 q 873 289 904 370 q 784 141 842 208 q 621 20 715 61 q 410 -20 526 -20 q 146 66 243 -20 q 50 300 50 152 q 81 468 50 386 q 170 617 112 549 q 332 736 238 696 q 540 777 426 777 m 561 924 l 528 949 q 521 954 526 951 q 475 975 495 975 q 434 951 452 975 q 410 887 416 928 l 315 887 q 377 1030 333 980 q 486 1080 422 1080 q 533 1070 510 1080 q 581 1041 556 1061 l 617 1012 q 640 996 629 1001 q 662 991 652 991 q 705 1013 688 991 q 731 1079 723 1036 l 825 1079 q 763 936 807 986 q 655 886 719 886 q 612 893 632 886 q 561 924 592 901 m 403 1270 l 831 1270 l 806 1142 l 378 1142 l 403 1270 "},"Ŋ":{"x_min":43.5625,"x_max":1076,"ha":1162,"o":"m 960 98 q 816 -184 921 -103 q 487 -278 695 -278 l 434 -278 l 472 -81 l 513 -81 q 647 -34 594 -81 q 715 98 699 12 l 787 468 q 816 659 816 615 q 803 727 816 703 q 755 770 790 752 q 673 788 721 788 q 491 710 567 788 q 389 495 415 632 l 293 0 l 43 0 l 240 1013 l 492 1013 l 462 858 q 642 990 555 950 q 827 1031 729 1031 q 1040 923 981 1031 q 1076 777 1076 859 q 1060 612 1076 694 l 960 98 "},"Ẋ":{"x_min":-70.53125,"x_max":1127.796875,"ha":1071,"o":"m 571 1288 l 757 1288 l 725 1121 l 539 1121 l 571 1288 m 689 512 l 937 0 l 672 0 l 507 339 l 210 0 l -70 0 l 384 519 l 144 1013 l 410 1013 l 566 694 l 844 1013 l 1127 1013 l 689 512 "},"ͷ":{"x_min":42.71875,"x_max":930.453125,"ha":973,"o":"m 42 0 l 190 760 l 433 760 l 354 355 l 678 760 l 930 760 l 782 0 l 539 0 l 618 404 l 295 0 l 42 0 "},"ď":{"x_min":50,"x_max":1315.15625,"ha":994,"o":"m 426 157 q 578 243 519 157 q 637 468 637 329 q 604 566 637 531 q 512 602 571 602 q 360 516 420 602 q 301 298 301 431 q 333 193 301 229 q 426 157 365 157 m 681 648 l 760 1055 l 1005 1055 l 799 0 l 555 0 l 577 110 q 460 12 521 43 q 327 -19 399 -19 q 124 62 199 -19 q 50 283 50 143 q 76 454 50 371 q 151 604 102 536 q 290 733 212 689 q 456 778 367 778 q 589 746 534 778 q 681 648 643 715 m 1116 1054 l 1315 1054 l 1169 799 l 1033 799 l 1116 1054 "},"Ⴠ":{"x_min":106.046875,"x_max":1196.96875,"ha":1238,"o":"m 1126 310 q 1071 167 1112 233 q 971 53 1030 102 q 839 -23 912 4 q 688 -51 766 -51 q 547 -23 610 -51 q 444 53 485 4 q 390 152 403 102 q 378 239 378 202 q 384 310 378 273 l 493 868 l 333 868 l 294 663 l 106 663 l 181 1052 l 737 1052 l 593 310 q 590 274 590 292 q 595 233 590 257 q 618 186 600 209 q 663 149 636 163 q 724 136 691 136 q 792 149 760 136 q 849 186 823 163 q 893 241 875 209 q 917 310 910 273 l 988 671 l 1196 671 l 1126 310 "},"䷨":{"x_min":115,"x_max":1130,"ha":1245,"o":"m 115 574 l 527 574 l 527 438 l 115 438 l 115 574 m 717 574 l 1129 574 l 1129 438 l 717 438 l 717 574 m 115 793 l 527 793 l 527 657 l 115 657 l 115 793 m 717 793 l 1129 793 l 1129 657 l 717 657 l 717 793 m 115 1013 l 1130 1013 l 1130 877 l 115 877 l 115 1013 m 115 -84 l 1130 -84 l 1130 -220 l 115 -220 l 115 -84 m 115 135 l 1130 135 l 1130 -1 l 115 -1 l 115 135 m 115 355 l 527 355 l 527 219 l 115 219 l 115 355 m 717 355 l 1129 355 l 1129 219 l 717 219 l 717 355 "},"⟸":{"x_min":68,"x_max":1912,"ha":1991,"o":"m 268 385 l 1912 385 l 1912 276 l 376 276 l 432 219 l 334 121 l 68 388 l 68 482 l 334 749 l 432 651 l 376 595 l 1912 595 l 1912 486 l 268 486 l 217 435 l 268 385 "},"Ώ":{"x_min":-1.8125,"x_max":1188,"ha":1242,"o":"m 264 1110 l 456 1110 l 156 856 l 23 856 l 264 1110 m 341 891 q 751 1031 508 1031 q 1105 891 994 1031 q 1188 649 1188 788 q 1176 541 1188 597 q 933 197 1131 304 l 1141 197 l 1103 0 l 639 0 l 680 211 q 732 245 708 225 q 905 535 872 364 q 914 637 914 579 q 882 753 914 696 q 714 842 834 842 q 512 753 595 842 q 404 535 429 665 q 396 449 396 490 q 465 245 396 332 q 504 211 481 225 l 463 0 l -1 0 l 36 197 l 245 197 q 125 439 125 280 q 135 541 125 487 q 341 891 176 751 "},"ᴧ":{"x_min":-52.890625,"x_max":811.09375,"ha":905,"o":"m 811 0 l 568 0 l 481 525 l 190 0 l -52 0 l 394 760 l 660 760 l 811 0 "},"̟":{"x_min":-525.578125,"x_max":-177.6875,"ha":0,"o":"m -421 -229 l -525 -229 l -502 -113 l -398 -113 l -377 -8 l -261 -8 l -282 -113 l -177 -113 l -200 -229 l -305 -229 l -325 -333 l -441 -333 l -421 -229 "},"䷋":{"x_min":115,"x_max":1130,"ha":1245,"o":"m 115 -84 l 527 -84 l 527 -220 l 115 -220 l 115 -84 m 717 -84 l 1129 -84 l 1129 -220 l 717 -220 l 717 -84 m 115 135 l 527 135 l 527 -1 l 115 -1 l 115 135 m 717 135 l 1129 135 l 1129 -1 l 717 -1 l 717 135 m 115 355 l 527 355 l 527 219 l 115 219 l 115 355 m 717 355 l 1129 355 l 1129 219 l 717 219 l 717 355 m 115 574 l 1130 574 l 1130 438 l 115 438 l 115 574 m 115 794 l 1130 794 l 1130 658 l 115 658 l 115 794 m 115 1013 l 1130 1013 l 1130 877 l 115 877 l 115 1013 "},"סּ":{"x_min":91.90625,"x_max":1019,"ha":1075,"o":"m 228 586 l 91 586 l 125 760 l 262 760 l 505 760 l 717 760 q 980 657 908 760 q 1019 509 1019 602 q 1006 387 1019 454 q 517 -26 925 -26 q 235 73 321 -26 q 176 259 176 142 q 188 380 176 314 l 228 586 m 471 586 l 447 460 q 427 293 427 356 q 433 237 427 259 q 552 154 456 154 q 714 231 671 154 q 762 386 741 280 q 773 479 773 439 q 769 522 773 502 q 683 586 758 586 l 471 586 m 597 379 l 597 379 m 528 0 l 528 0 m 543 448 l 678 448 l 652 312 l 516 312 l 543 448 m 597 379 l 597 379 "},"ჼ":{"x_min":52,"x_max":490.390625,"ha":511,"o":"m 291 689 q 293 725 296 710 q 285 752 291 741 q 270 767 279 762 q 253 772 262 772 q 237 767 246 772 q 218 751 227 761 q 200 723 209 740 q 188 685 192 707 q 185 642 185 660 q 190 612 185 624 q 203 594 195 600 q 219 588 211 588 q 238 594 227 588 q 259 613 248 600 q 278 644 269 626 q 291 689 287 663 m 262 870 q 346 861 311 870 q 401 831 381 852 q 424 787 421 810 q 428 750 428 763 q 421 688 428 723 q 197 473 379 473 q 52 615 52 473 q 60 689 52 648 l 101 902 q 294 1052 130 1052 l 490 1052 l 471 956 l 261 956 l 242 858 l 262 870 "},"Ѿ":{"x_min":45,"x_max":1455,"ha":1517,"o":"m 1260 1263 l 1147 1100 l 1106 1100 l 1081 1182 l 939 1182 l 882 1100 l 842 1100 l 817 1182 l 675 1182 l 618 1100 l 578 1100 l 527 1263 l 1260 1263 m 328 251 q 423 178 353 178 q 542 249 493 178 q 616 436 594 325 l 647 599 l 904 599 l 872 436 q 861 331 861 378 q 872 249 861 285 q 964 178 895 178 q 1087 251 1037 178 q 1176 515 1140 332 q 1191 667 1191 594 q 1186 747 1191 708 q 1123 1012 1157 964 l 1339 1012 q 1426 818 1402 921 q 1455 599 1455 696 q 1446 498 1455 545 q 1266 100 1391 220 q 969 -20 1141 -20 q 777 43 848 -20 q 707 224 707 107 q 553 43 648 107 q 338 -20 458 -20 q 89 100 162 -20 q 45 298 45 173 q 66 498 45 386 q 209 818 93 637 q 371 1012 278 926 l 588 1012 q 423 747 535 964 q 343 515 366 639 q 320 325 320 397 q 328 251 320 279 "},"Ⴃ":{"x_min":54,"x_max":1195.1875,"ha":1163,"o":"m 870 442 q 877 510 877 476 q 877 545 877 519 q 864 608 877 570 q 831 677 852 645 q 782 731 811 708 q 716 767 753 754 q 638 780 680 780 q 555 767 596 780 q 476 731 514 754 q 405 677 439 708 q 345 608 371 645 q 300 528 319 570 q 273 442 281 486 q 267 379 267 409 q 276 307 267 349 q 317 223 285 265 q 399 158 350 182 q 511 135 449 135 q 635 158 576 135 q 742 222 694 181 q 824 319 791 263 q 870 442 857 375 m 1077 442 q 1001 248 1057 338 q 863 91 944 157 q 682 -13 782 24 q 476 -51 583 -51 q 345 -33 406 -51 q 233 15 284 -16 q 144 91 182 46 q 84 191 106 136 q 58 287 62 246 q 54 349 54 328 q 63 442 54 394 q 109 574 77 511 q 189 691 142 637 q 295 790 236 746 q 418 868 353 835 l 147 868 l 182 1046 l 1195 1046 l 1160 868 l 889 868 q 982 790 941 835 q 1048 691 1022 746 q 1080 592 1074 636 q 1086 522 1086 548 q 1077 442 1086 483 "},"ṏ":{"x_min":50,"x_max":904,"ha":954,"o":"m 608 921 l 575 946 q 547 963 558 959 q 524 968 536 968 q 482 946 499 968 q 456 886 464 924 l 364 886 q 426 1020 381 973 q 535 1067 470 1067 q 582 1058 560 1067 q 627 1032 604 1050 l 663 1004 q 686 990 674 995 q 710 986 699 986 q 754 1006 736 986 q 779 1067 772 1027 l 872 1067 q 810 933 855 980 q 703 886 766 886 q 655 894 677 886 q 608 921 634 901 m 456 1250 l 617 1250 l 585 1083 l 425 1083 l 456 1250 m 724 1250 l 886 1250 l 853 1083 l 693 1083 l 724 1250 m 520 604 q 365 518 426 604 q 304 300 304 433 q 337 191 304 228 q 433 153 370 153 q 588 239 527 153 q 649 458 649 325 q 616 566 649 529 q 520 604 583 604 m 540 777 q 807 691 710 777 q 904 456 904 605 q 873 289 904 370 q 784 141 842 208 q 621 20 715 61 q 410 -20 526 -20 q 146 66 243 -20 q 50 300 50 152 q 81 468 50 386 q 170 617 112 549 q 332 736 238 696 q 540 777 426 777 "},"ᖒ":{"x_min":102.265625,"x_max":1790.359375,"ha":1799,"o":"m 387 926 q 307 906 339 926 q 267 848 275 886 q 284 791 261 812 q 357 771 307 771 q 439 791 408 771 q 476 848 469 811 q 461 905 484 884 q 387 926 438 926 m 571 642 l 579 679 l 339 679 q 145 728 206 679 q 106 865 88 773 q 192 973 119 932 q 407 1028 290 1028 q 601 973 537 1028 q 644 865 657 926 q 592 771 634 809 l 753 771 l 728 642 q 743 585 720 605 q 810 565 765 565 q 885 585 855 565 q 922 642 915 605 l 948 771 l 1104 771 l 1078 642 q 992 509 1062 555 q 791 465 923 465 q 606 510 657 465 q 571 642 555 557 m 1051 329 q 1079 212 1037 255 q 1188 169 1121 169 q 1307 210 1252 169 q 1377 329 1362 251 l 1510 1012 l 1771 1012 l 1638 329 q 1469 70 1605 161 q 1151 -20 1332 -20 q 852 68 948 -20 q 790 329 757 156 l 1051 329 m 1603 1288 l 1790 1288 l 1758 1121 l 1572 1121 l 1603 1288 "},"Ć":{"x_min":50,"x_max":1005.234375,"ha":1019,"o":"m 841 47 q 661 -3 747 13 q 498 -20 575 -20 q 172 91 294 -20 q 50 388 50 203 q 88 617 50 509 q 202 813 127 725 q 416 974 291 918 q 685 1031 541 1031 q 843 1012 764 1031 q 1005 955 923 993 l 963 746 q 832 818 898 795 q 691 842 766 842 q 428 721 534 842 q 323 418 323 600 q 388 235 323 302 q 567 169 453 169 q 713 193 636 169 q 885 271 790 218 l 841 47 m 795 1288 l 985 1288 l 769 1109 l 628 1109 l 795 1288 "},"ẓ":{"x_min":-12.203125,"x_max":813.796875,"ha":808,"o":"m 151 759 l 813 759 l 780 590 l 307 173 l 699 173 l 666 0 l -12 0 l 19 169 l 494 586 l 118 586 l 151 759 m 401 -295 l 215 -295 l 248 -128 l 435 -128 l 401 -295 "},"↫":{"x_min":68,"x_max":1085,"ha":1164,"o":"m 818 517 l 870 517 q 889 521 880 517 q 907 532 899 525 q 918 549 914 540 q 922 569 922 558 q 918 589 922 580 q 907 606 914 598 q 889 617 899 613 q 870 622 880 622 q 850 617 859 622 q 832 606 840 613 q 821 589 825 598 q 818 569 818 580 l 818 517 m 818 354 l 818 191 l 655 191 l 655 354 l 298 354 l 433 219 l 334 121 l 68 387 l 68 483 l 334 749 l 433 651 l 298 517 l 655 517 l 655 569 q 671 651 655 611 q 718 722 687 692 q 788 769 748 751 q 869 785 823 785 q 952 769 916 785 q 1021 722 992 751 q 1068 651 1051 694 q 1085 569 1085 613 q 1068 487 1085 527 q 1021 416 1052 446 q 951 369 991 387 q 870 354 916 354 l 818 354 "},"Ͱ":{"x_min":29.15625,"x_max":865.34375,"ha":969,"o":"m 225 1011 l 486 1011 l 412 626 l 865 626 l 826 429 l 373 429 l 290 0 l 29 0 l 225 1011 "},"Ğ":{"x_min":50,"x_max":1080.375,"ha":1140,"o":"m 946 74 q 740 3 847 26 q 512 -20 634 -20 q 173 89 296 -20 q 50 388 50 199 q 88 618 50 511 q 203 815 127 726 q 424 977 297 923 q 715 1031 551 1031 q 898 1012 806 1031 q 1080 955 990 993 l 1040 746 q 878 818 957 794 q 719 842 799 842 q 434 725 544 842 q 325 425 325 608 q 389 236 325 303 q 569 169 453 169 q 645 174 607 169 q 722 190 683 179 l 760 387 l 601 387 l 634 562 l 1040 562 l 946 74 m 489 1288 l 585 1288 q 620 1228 592 1247 q 701 1210 647 1210 q 786 1230 750 1210 q 837 1288 821 1251 l 941 1288 q 847 1154 914 1200 q 680 1109 780 1109 q 538 1154 588 1109 q 489 1285 489 1200 l 489 1288 "},"Ї":{"x_min":29.15625,"x_max":650.359375,"ha":517,"o":"m 226 1013 l 487 1013 l 290 0 l 29 0 l 226 1013 m 221 1288 l 381 1288 l 349 1121 l 189 1121 l 221 1288 m 488 1288 l 650 1288 l 617 1121 l 457 1121 l 488 1288 "},"Ṁ":{"x_min":29.15625,"x_max":1352.953125,"ha":1382,"o":"m 724 1289 l 910 1289 l 878 1122 l 692 1122 l 724 1289 m 226 1013 l 547 1013 l 677 475 l 1019 1013 l 1352 1013 l 1155 0 l 908 0 l 1052 747 l 701 195 l 560 195 l 421 747 l 276 0 l 29 0 l 226 1013 "},"𝕒":{"x_min":60,"x_max":868,"ha":978,"o":"m 665 81 l 787 81 l 787 433 q 719 634 787 577 q 641 674 690 659 q 665 580 665 633 l 665 81 m 868 433 l 868 0 l 584 0 l 584 112 q 473 11 535 43 q 325 -20 412 -20 q 133 48 207 -20 q 60 227 60 117 q 151 423 60 361 q 440 486 243 486 l 584 486 l 584 580 q 538 665 584 638 q 396 692 492 692 q 250 676 318 692 q 126 629 183 660 l 126 739 q 291 768 208 758 q 457 778 374 778 q 771 696 674 778 q 868 433 868 615 m 584 366 l 584 405 l 440 405 q 352 400 392 405 l 352 68 q 544 165 467 68 q 584 366 584 214 m 271 67 l 271 388 q 197 356 225 376 q 141 235 141 318 q 189 107 141 153 q 271 67 222 77 "},"ໝ":{"x_min":39.78125,"x_max":1883.109375,"ha":1893,"o":"m 1217 606 q 1111 664 1228 664 q 974 598 1066 664 l 904 238 q 429 -28 852 -28 q 44 216 -3 -28 q 174 504 77 385 q 106 651 86 550 q 355 856 146 856 q 531 668 567 856 q 393 464 509 554 q 265 224 265 367 q 469 165 265 165 q 693 237 679 165 l 744 505 q 686 498 730 489 q 572 691 539 526 q 797 861 605 861 q 958 808 914 861 q 1158 859 1056 859 q 1429 609 1476 859 l 1358 241 q 1440 184 1392 184 q 1560 238 1549 184 l 1670 809 l 1883 809 l 1772 241 q 1405 -17 1721 -17 q 1252 45 1324 -17 q 908 -21 1122 -21 l 946 178 q 1114 200 1050 167 q 1154 282 1143 224 l 1217 606 "},"Ⴋ":{"x_min":31,"x_max":1210.0625,"ha":1251,"o":"m 447 486 q 378 472 411 486 q 318 436 345 459 q 272 380 291 412 q 246 310 253 348 q 243 273 243 290 q 247 233 243 256 q 270 186 252 210 q 315 149 287 163 q 379 136 344 136 q 446 149 414 136 q 504 186 478 163 q 548 242 530 210 q 573 310 566 273 l 607 486 l 447 486 m 881 -30 l 982 486 l 815 486 l 780 310 q 725 169 766 235 q 624 54 683 103 q 492 -22 565 5 q 343 -51 419 -51 q 202 -22 265 -51 q 98 54 139 6 q 43 154 56 103 q 31 242 31 204 q 37 310 31 275 q 95 453 53 388 q 197 568 136 519 q 331 643 257 616 q 483 671 405 671 l 643 671 l 681 867 l 228 867 l 264 1053 l 925 1053 l 851 671 l 1210 671 l 1073 -30 l 881 -30 "},"ʚ":{"x_min":37.859375,"x_max":933.125,"ha":1016,"o":"m 415 135 q 578 200 507 135 q 670 378 647 263 q 647 555 693 500 q 501 623 594 623 q 395 599 437 623 q 347 546 352 574 q 375 493 341 516 q 484 473 405 473 l 568 473 l 539 321 l 459 321 q 324 295 371 321 q 266 228 274 269 q 298 162 259 189 q 415 135 337 135 m 358 -20 q 101 38 181 -20 q 42 215 20 97 q 109 340 57 291 q 248 409 162 388 q 149 468 178 426 q 132 578 119 512 q 240 729 151 680 q 485 778 328 778 q 863 672 768 778 q 922 379 959 566 q 750 85 886 191 q 358 -20 613 -20 "},"↶":{"x_min":15.390625,"x_max":1134,"ha":1165,"o":"m 1134 506 l 971 506 q 950 614 971 564 q 888 705 930 662 q 797 766 847 744 q 691 788 748 788 q 584 766 633 788 q 493 705 534 744 q 431 614 451 662 q 411 506 411 564 l 545 640 l 643 541 l 377 275 l 281 275 l 15 541 l 113 640 l 248 506 q 281 676 248 596 q 378 821 315 758 q 522 918 439 881 q 691 951 597 951 q 859 918 784 951 q 1003 821 942 881 q 1100 676 1066 758 q 1134 506 1134 596 "},"ῖ":{"x_min":59,"x_max":588.59375,"ha":541,"o":"m 327 246 q 318 171 318 196 q 323 137 318 147 q 373 116 335 116 q 434 118 412 116 l 409 -9 q 220 -26 364 -26 q 133 -13 174 -26 q 59 84 59 10 q 67 158 59 112 l 185 760 l 427 760 l 327 246 m 324 925 l 291 950 q 284 955 289 952 q 238 976 259 976 q 197 952 215 976 q 173 888 180 928 l 78 888 q 141 1031 96 981 q 249 1081 185 1081 q 296 1071 273 1081 q 344 1042 319 1062 l 380 1013 q 404 997 392 1002 q 425 992 415 992 q 469 1014 451 992 q 494 1080 486 1037 l 588 1080 q 526 937 570 987 q 419 887 482 887 q 375 894 395 887 q 324 925 355 902 "},"𝌔":{"x_min":115,"x_max":1130,"ha":1245,"o":"m 115 917 l 1130 917 l 1130 781 l 115 781 l 115 917 m 115 657 l 527 657 l 527 521 l 115 521 l 115 657 m 717 657 l 1129 657 l 1129 521 l 717 521 l 717 657 m 115 396 l 527 396 l 527 260 l 115 260 l 115 396 m 717 396 l 1129 396 l 1129 260 l 717 260 l 717 396 m 345 0 l 115 0 l 115 136 l 345 136 l 345 0 m 900 0 l 900 136 l 1130 136 l 1130 0 l 900 0 m 737 0 l 508 0 l 508 136 l 737 136 l 737 0 "},"ᓿ":{"x_min":-41.375,"x_max":1230.875,"ha":1331,"o":"m 1045 589 l 1230 589 l 1198 422 l 1012 422 l 1045 589 m 233 64 l 219 0 l -41 0 l -14 138 q 256 525 33 388 q 655 663 479 663 l 723 1013 l 984 1013 l 879 472 l 733 472 q 405 376 531 472 q 233 64 280 280 m 809 1289 l 996 1289 l 964 1122 l 777 1122 l 809 1289 "},"ԝ":{"x_min":147,"x_max":1286.828125,"ha":1283,"o":"m 147 760 l 357 760 l 357 237 l 599 760 l 806 760 l 806 238 l 1048 760 l 1286 760 l 939 0 l 669 0 l 669 522 l 424 0 l 147 0 l 147 760 "},"𝕠":{"x_min":60,"x_max":895,"ha":955,"o":"m 478 777 q 784 671 674 777 q 895 378 895 565 q 784 85 895 191 q 478 -20 674 -20 q 170 85 281 -20 q 60 378 60 191 q 170 671 60 565 q 478 777 281 777 m 272 109 l 272 647 q 226 612 247 632 q 141 378 141 531 q 226 144 141 225 q 272 109 247 124 m 353 75 q 478 61 408 61 q 602 75 547 61 l 602 681 q 478 696 547 696 q 353 681 408 696 l 353 75 m 683 647 l 683 109 q 728 144 708 124 q 814 378 814 225 q 728 612 814 531 q 683 647 708 632 "},"⠘":{"x_min":610,"x_max":881,"ha":1084,"o":"m 610 1085 l 881 1085 l 881 814 l 610 814 l 610 1085 m 610 723 l 881 723 l 881 452 l 610 452 l 610 723 "},"ᕈ":{"x_min":29.15625,"x_max":1003.125,"ha":1018,"o":"m 29 0 l 134 540 l 539 540 q 664 576 615 540 q 725 681 712 613 q 704 786 739 749 q 594 823 670 823 l 189 823 l 225 1012 l 659 1012 q 939 926 852 1012 q 994 681 1026 840 q 844 436 964 522 q 531 351 724 351 l 358 351 l 290 0 l 29 0 "},"à":{"x_min":24,"x_max":849,"ha":938,"o":"m 457 342 q 320 313 366 342 q 274 230 274 285 q 301 164 274 188 q 377 141 328 141 q 501 186 451 141 q 568 314 552 231 l 574 342 l 457 342 m 836 432 l 752 0 l 509 0 l 529 112 q 403 12 469 44 q 258 -20 336 -20 q 87 35 150 -20 q 24 186 24 91 q 136 409 24 332 q 460 486 248 486 l 603 486 l 606 504 q 608 518 608 514 q 609 525 609 522 q 566 593 609 570 q 440 616 524 616 q 294 600 365 616 q 158 553 224 584 l 195 738 q 350 767 271 757 q 515 777 430 777 q 766 719 684 777 q 849 542 849 661 q 845 492 849 519 q 836 432 842 464 m 496 1110 l 638 856 l 504 856 l 304 1110 l 496 1110 "},"𝙍":{"x_min":28.78125,"x_max":951,"ha":1069,"o":"m 509 563 q 644 604 598 563 q 690 725 690 645 q 658 799 690 776 q 559 823 626 823 l 451 823 l 399 563 l 509 563 m 365 383 l 289 0 l 28 0 l 226 1012 l 611 1012 q 864 949 778 1012 q 951 765 951 887 q 883 563 951 643 q 699 473 815 484 q 787 419 752 462 q 849 287 822 376 l 935 0 l 675 0 l 599 251 q 543 354 576 326 q 448 383 510 383 l 365 383 "},"⡂":{"x_min":203,"x_max":474,"ha":1084,"o":"m 203 724 l 474 724 l 474 453 l 203 453 l 203 724 m 203 0 l 474 0 l 474 -271 l 203 -271 l 203 0 "},"♲":{"x_min":117,"x_max":1129,"ha":1245,"o":"m 548 984 l 816 984 q 875 935 855 984 l 927 845 l 994 883 l 999 883 q 1003 878 1003 883 l 885 675 l 649 675 l 646 678 l 646 681 q 714 721 658 693 l 714 725 q 575 959 586 945 q 545 977 545 974 l 545 980 l 548 984 m 468 972 l 483 972 q 597 885 559 972 q 618 845 618 851 q 487 621 498 632 l 485 621 q 278 742 280 737 l 278 744 q 396 940 385 935 q 468 972 426 972 m 613 956 l 613 954 l 749 714 l 735 704 l 735 702 l 871 702 l 936 819 l 917 810 q 829 952 840 944 l 816 956 l 613 956 m 315 750 l 478 657 l 586 846 q 492 944 544 944 l 473 944 q 386 874 416 944 l 315 750 m 1013 693 q 1125 497 1025 682 l 1129 469 l 1129 456 q 1075 358 1129 403 q 1035 346 1059 346 l 936 346 q 806 568 928 353 l 806 572 l 1013 693 m 842 561 l 948 373 l 1038 373 q 1100 443 1075 373 l 1100 461 q 1068 546 1100 499 l 1004 655 q 842 561 849 568 m 341 640 l 354 640 q 440 495 360 640 q 475 433 475 442 l 471 430 l 468 430 l 400 468 q 267 236 278 258 l 265 221 l 269 194 l 264 191 l 262 191 q 130 414 247 209 q 117 452 117 432 l 117 457 q 174 565 117 476 l 188 593 l 186 593 l 119 632 l 119 636 l 122 640 l 341 640 m 209 614 l 209 610 l 221 602 l 223 602 l 223 600 q 145 461 223 595 l 145 454 q 250 264 145 436 l 386 501 l 387 501 l 407 495 l 407 497 l 342 614 l 209 614 m 775 411 l 778 411 l 782 407 l 782 329 l 1033 329 q 1086 351 1061 329 l 1087 351 l 1091 347 l 1091 346 q 954 104 1086 331 q 914 85 937 85 l 782 85 l 782 2 l 778 0 l 773 0 q 656 204 656 195 l 656 206 l 775 411 m 600 329 l 606 323 l 606 88 l 602 85 l 400 85 q 289 175 321 85 l 285 201 l 285 210 q 344 329 285 244 l 600 329 m 751 320 l 687 203 l 751 88 l 755 88 l 755 93 q 760 113 755 113 l 917 113 q 964 178 932 113 l 1035 301 l 760 301 q 755 314 755 301 l 755 320 l 751 320 m 358 301 q 313 210 317 234 l 313 203 q 374 117 313 146 l 394 113 l 578 113 l 578 301 l 358 301 "},"ᔖ":{"x_min":50,"x_max":1527,"ha":1577,"o":"m 898 321 q 807 171 811 176 q 630 29 735 79 q 417 -20 525 -20 q 117 76 220 -20 q 50 249 50 139 q 59 338 50 290 q 200 567 87 486 q 547 649 312 649 l 509 452 q 379 422 419 452 q 328 338 339 393 q 323 290 323 312 q 347 224 323 244 q 455 177 407 177 q 586 227 527 177 q 680 334 645 278 q 769 477 766 474 q 930 616 845 563 q 1159 669 1015 669 q 1459 573 1358 669 q 1527 400 1527 511 q 1517 310 1527 359 q 1376 81 1489 162 q 1029 0 1264 0 l 1067 197 q 1197 226 1157 197 q 1248 310 1237 256 q 1254 357 1254 336 q 1228 425 1254 404 q 1121 472 1172 472 q 982 416 1043 472 q 898 321 922 361 m 752 926 l 939 926 l 907 759 l 721 759 l 752 926 "},"ᒰ":{"x_min":111.21875,"x_max":1259.359375,"ha":1199,"o":"m 143 589 l 329 589 l 297 422 l 111 422 l 143 589 m 619 0 l 358 0 l 554 1013 l 1259 1013 l 1221 816 l 777 816 l 619 0 m 896 1289 l 1083 1289 l 1051 1122 l 864 1122 l 896 1289 "},"ҁ":{"x_min":46,"x_max":796.03125,"ha":823,"o":"m 471 170 l 672 170 l 583 -288 l 339 -288 l 395 0 q 108 99 195 0 q 46 284 46 172 q 56 379 46 329 q 229 672 92 567 q 570 778 365 778 q 686 767 630 778 q 796 735 742 756 l 757 537 q 667 588 714 571 q 567 604 621 604 q 397 545 465 604 q 309 379 329 485 q 303 320 303 347 q 328 226 303 264 q 471 170 369 170 "},"ꜞ":{"x_min":210.9375,"x_max":474.75,"ha":399,"o":"m 210 453 l 252 670 l 305 829 l 411 829 l 411 670 l 364 453 l 210 453 m 295 885 l 320 1020 l 474 1020 l 448 885 l 295 885 "},"☯":{"x_min":115,"x_max":1130,"ha":1245,"o":"m 623 515 l 623 497 q 690 336 623 401 q 857 271 758 271 q 1026 341 957 271 q 1096 515 1096 411 q 954 842 1096 704 q 619 981 813 981 q 287 849 420 981 q 155 505 155 717 q 225 682 164 622 q 388 743 286 743 q 554 677 486 743 q 623 515 623 612 m 927 505 q 906 458 927 478 q 860 439 885 439 q 811 458 831 439 q 791 505 791 478 q 811 554 791 534 q 860 575 831 575 q 907 554 887 575 q 927 505 927 534 m 453 505 q 433 554 453 534 q 385 575 413 575 q 338 554 357 575 q 318 505 318 534 q 338 458 318 478 q 385 439 357 439 q 433 459 413 439 q 453 505 453 479 m 1130 506 q 981 147 1130 295 q 622 0 833 0 q 263 147 412 0 q 115 506 115 295 q 263 866 115 717 q 622 1015 412 1015 q 981 866 833 1015 q 1130 506 1130 717 "},"⡫":{"x_min":203,"x_max":881,"ha":1084,"o":"m 203 1085 l 474 1085 l 474 814 l 203 814 l 203 1085 m 203 724 l 474 724 l 474 453 l 203 453 l 203 724 m 610 1085 l 881 1085 l 881 814 l 610 814 l 610 1085 m 610 362 l 881 362 l 881 91 l 610 91 l 610 362 m 203 0 l 474 0 l 474 -271 l 203 -271 l 203 0 "},"ງ":{"x_min":-3.109375,"x_max":782.15625,"ha":790,"o":"m 472 824 q 769 434 845 824 l 693 41 q 584 -226 656 -150 q 277 -334 484 -334 q 29 -237 84 -334 q 4 -26 -18 -152 l 245 -26 q 312 -159 217 -159 q 421 -33 398 -159 l 511 435 q 477 661 548 626 q 263 441 477 441 q 103 617 68 441 q 472 824 143 824 "},"ᑯ":{"x_min":15.828125,"x_max":1005.046875,"ha":1032,"o":"m 872 329 q 702 70 839 161 q 385 -20 566 -20 q 86 68 181 -20 q 24 329 -8 156 q 177 585 57 499 q 519 671 297 671 q 674 654 608 671 l 743 1012 l 1005 1012 l 872 329 m 318 210 q 422 169 358 169 q 541 210 486 169 q 611 329 596 251 q 592 444 626 407 q 484 482 558 482 q 357 442 406 482 q 293 329 307 403 q 318 210 278 251 "},"e":{"x_min":50,"x_max":889,"ha":942,"o":"m 873 350 l 865 312 l 297 312 q 296 300 297 307 q 296 288 296 292 q 340 177 296 214 q 473 141 384 141 q 634 164 549 141 q 813 232 719 187 l 776 44 q 599 -4 687 11 q 420 -20 511 -20 q 146 62 243 -20 q 50 293 50 144 q 80 462 50 380 q 170 611 111 544 q 338 735 240 693 q 554 777 435 777 q 798 694 708 777 q 889 474 889 612 q 885 416 889 446 q 873 350 881 386 m 643 462 q 646 479 645 470 q 648 497 648 489 q 615 584 648 552 q 527 616 582 616 q 406 576 456 616 q 330 462 356 537 l 643 462 "},"⊏":{"x_min":147,"x_max":1016.046875,"ha":1163,"o":"m 147 811 l 1016 811 l 1016 652 l 306 652 l 306 159 l 1016 159 l 1016 0 l 147 0 l 147 811 "},"ᐮ":{"x_min":86.125,"x_max":1705.59375,"ha":1802,"o":"m 900 674 l 354 506 l 835 337 l 900 674 m 1030 0 l 86 350 l 147 662 l 1227 1012 l 1030 0 m 1287 902 l 1426 1003 l 1705 569 l 1567 469 l 1287 902 "},"ᑦ":{"x_min":76.625,"x_max":647.65625,"ha":671,"o":"m 537 453 l 455 453 q 243 470 311 453 q 132 532 174 488 q 82 619 94 570 q 82 731 70 668 q 126 847 95 798 q 210 934 158 896 q 344 995 269 977 q 564 1018 436 1018 l 647 1018 l 626 912 l 494 912 q 328 863 400 912 q 247 732 264 819 q 278 605 231 650 q 426 560 324 560 l 558 560 l 537 453 "},"𝌀":{"x_min":115,"x_max":1130,"ha":1245,"o":"m 345 326 l 115 326 l 115 462 l 345 462 l 345 326 m 900 326 l 900 462 l 1130 462 l 1130 326 l 900 326 m 737 326 l 508 326 l 508 462 l 737 462 l 737 326 "},"ò":{"x_min":50,"x_max":904,"ha":954,"o":"m 520 604 q 365 518 426 604 q 304 300 304 433 q 337 191 304 228 q 433 153 370 153 q 588 239 527 153 q 649 458 649 325 q 616 566 649 529 q 520 604 583 604 m 540 777 q 807 691 710 777 q 904 456 904 605 q 873 289 904 370 q 784 141 842 208 q 621 20 715 61 q 410 -20 526 -20 q 146 66 243 -20 q 50 300 50 152 q 81 468 50 386 q 170 617 112 549 q 332 736 238 696 q 540 777 426 777 m 504 1110 l 646 856 l 512 856 l 312 1110 l 504 1110 "},"ℎ":{"x_min":42.921875,"x_max":908,"ha":989,"o":"m 895 462 l 805 0 l 562 0 l 639 396 q 651 461 647 434 q 656 504 656 488 q 631 571 656 547 q 563 595 607 595 q 434 536 488 595 q 359 373 380 477 l 286 0 l 42 0 l 247 1055 l 491 1055 l 412 648 q 547 746 479 714 q 689 778 615 778 q 851 723 794 778 q 908 568 908 668 q 904 520 908 546 q 895 462 901 493 "},"♻":{"x_min":116.21875,"x_max":1127,"ha":1245,"o":"m 549 977 l 813 977 q 875 920 852 977 l 925 835 l 991 873 l 996 873 l 996 871 q 879 670 889 685 l 647 670 l 647 674 q 716 716 712 710 l 581 956 q 549 974 557 974 l 549 977 m 479 970 q 579 908 551 970 l 612 849 l 481 625 q 282 743 300 730 q 398 938 383 919 q 479 970 431 970 m 1013 681 q 1127 477 1127 493 l 1127 450 q 1061 342 1127 381 q 1024 337 1051 337 l 939 337 q 811 560 929 347 q 963 651 827 575 l 1013 681 m 351 632 q 468 429 467 437 l 392 471 q 259 237 261 248 l 259 209 l 261 190 l 258 190 l 121 425 l 116 447 q 173 555 118 468 q 191 590 191 583 l 123 629 l 123 632 l 277 632 l 351 632 m 771 396 l 773 396 l 773 318 l 1040 318 q 1082 336 1062 318 l 1085 336 q 948 93 1085 329 q 910 78 931 78 l 773 78 l 773 0 l 769 0 l 655 198 l 771 396 m 591 318 l 595 313 l 595 81 l 591 78 l 394 78 q 284 164 316 78 l 281 197 q 338 318 281 229 l 591 318 "},"Ȣ":{"x_min":35,"x_max":1069,"ha":1125,"o":"m 552 453 q 375 412 443 453 q 293 298 308 372 q 291 267 291 281 q 331 184 291 214 q 492 144 382 144 q 668 184 602 144 q 747 298 733 223 q 751 330 751 315 q 712 413 751 382 q 552 453 662 453 m 682 912 l 705 1027 q 987 966 895 1027 q 1069 817 1069 912 q 1064 768 1069 794 q 980 624 1047 682 q 795 538 911 566 q 964 446 913 510 q 1001 335 1001 399 q 995 284 1001 311 q 831 56 966 133 q 460 -20 696 -20 q 117 56 223 -20 q 35 222 35 117 q 41 284 35 252 q 135 446 60 382 q 339 538 211 510 q 188 617 230 559 q 153 713 153 667 q 155 734 153 724 q 297 877 169 809 q 600 925 385 925 l 579 825 q 462 799 503 825 q 391 721 398 761 q 390 706 390 713 q 431 641 390 669 q 584 616 470 616 q 747 655 674 616 q 824 769 809 688 q 828 799 828 785 q 790 875 828 849 q 682 912 743 907 "},"𝞶":{"x_min":94.796875,"x_max":907,"ha":946,"o":"m 799 760 q 907 535 907 709 q 902 485 907 508 q 761 233 876 352 q 511 0 610 78 l 245 0 l 94 760 l 337 760 l 429 200 q 676 572 676 391 q 612 760 676 706 l 799 760 "},"￼":{"x_min":0,"x_max":0,"ha":0},"⠆":{"x_min":203,"x_max":474,"ha":1084,"o":"m 203 723 l 474 723 l 474 452 l 203 452 l 203 723 m 203 361 l 474 361 l 474 90 l 203 90 l 203 361 "},"⁻":{"x_min":93,"x_max":640,"ha":733,"o":"m 93 742 l 640 742 l 640 652 l 93 652 l 93 742 "},"ṉ":{"x_min":42.921875,"x_max":908,"ha":989,"o":"m 895 462 l 805 0 l 562 0 l 639 396 q 651 461 647 434 q 656 504 656 488 q 631 571 656 547 q 563 595 607 595 q 434 536 488 595 q 359 373 380 477 l 286 0 l 42 0 l 190 760 l 434 760 l 412 648 q 547 746 479 714 q 689 778 615 778 q 851 723 794 778 q 908 568 908 668 q 904 520 908 546 q 895 462 901 493 m 181 -129 l 609 -129 l 584 -257 l 156 -257 l 181 -129 "},"ᵒ":{"x_min":68,"x_max":606,"ha":678,"o":"m 364 791 q 266 742 305 791 q 228 621 228 695 q 249 560 228 581 q 309 539 270 539 q 407 587 369 539 q 446 709 446 635 q 425 770 446 749 q 364 791 404 791 m 377 888 q 544 839 483 888 q 606 708 606 791 q 587 614 606 660 q 530 532 568 569 q 428 464 487 487 q 295 442 368 442 q 129 490 190 442 q 68 621 68 538 q 87 715 68 669 q 143 798 107 760 q 246 865 186 842 q 377 888 305 888 "},"ѻ":{"x_min":48,"x_max":1142,"ha":1198,"o":"m 553 601 l 517 601 q 383 544 436 601 q 308 378 329 485 q 300 298 300 334 q 318 211 300 246 q 430 154 349 154 l 464 154 q 477 166 470 160 q 517 189 489 178 q 559 198 537 198 q 599 189 582 198 q 630 166 621 178 q 637 154 634 160 l 674 154 q 807 211 753 154 q 881 378 860 269 q 890 457 890 422 q 871 544 890 509 q 761 601 841 601 l 723 601 l 713 591 q 672 568 700 579 q 630 560 652 560 q 590 568 607 560 q 559 591 567 579 l 553 601 m 748 736 l 787 736 q 1074 642 996 736 q 1142 456 1142 563 q 1134 379 1142 418 q 972 113 1103 219 q 648 20 858 20 l 608 20 l 600 11 q 560 -12 587 0 q 517 -20 539 -20 q 477 -12 494 -20 q 447 11 458 -1 q 441 20 443 15 l 404 20 q 115 112 194 20 q 48 300 48 191 q 56 378 48 338 q 218 642 86 536 q 543 736 333 736 l 579 736 l 589 745 q 629 769 601 758 q 672 778 649 778 q 712 769 694 778 q 742 745 734 758 l 748 736 "},"ˆ":{"x_min":147.15625,"x_max":670.703125,"ha":694,"o":"m 369 1111 l 547 1111 l 670 856 l 550 856 l 444 1008 l 280 856 l 147 856 l 369 1111 "},"ū":{"x_min":83,"x_max":945.390625,"ha":988,"o":"m 93 295 l 182 759 l 425 759 l 349 363 q 337 297 341 325 q 333 255 333 270 q 356 188 333 212 q 424 165 380 165 q 554 223 499 165 q 628 385 608 281 l 701 760 l 945 760 l 798 0 l 553 0 l 575 110 q 444 12 513 45 q 300 -20 376 -20 q 139 34 196 -20 q 83 190 83 89 q 85 240 83 213 q 93 295 88 266 m 382 1059 l 810 1059 l 785 931 l 357 931 l 382 1059 "},"䷌":{"x_min":115,"x_max":1130,"ha":1245,"o":"m 115 574 l 1130 574 l 1130 438 l 115 438 l 115 574 m 115 794 l 1130 794 l 1130 658 l 115 658 l 115 794 m 115 1013 l 1130 1013 l 1130 877 l 115 877 l 115 1013 m 115 -84 l 1130 -84 l 1130 -220 l 115 -220 l 115 -84 m 115 135 l 527 135 l 527 -1 l 115 -1 l 115 135 m 717 135 l 1129 135 l 1129 -1 l 717 -1 l 717 135 m 115 355 l 1130 355 l 1130 219 l 115 219 l 115 355 "},"ꙗ":{"x_min":43.046875,"x_max":1258,"ha":1347,"o":"m 1245 432 l 1161 0 l 918 0 l 938 112 q 812 12 878 44 q 667 -20 745 -20 q 496 35 559 -20 q 433 186 433 91 q 456 305 433 252 l 345 305 l 285 0 l 43 0 l 190 759 l 433 759 l 374 455 l 640 455 q 869 486 734 486 l 1012 486 l 1015 504 q 1017 518 1017 514 q 1018 525 1018 522 q 975 593 1018 570 q 849 616 933 616 q 703 600 774 616 q 567 553 633 584 l 604 739 q 759 767 680 757 q 924 777 839 777 q 1175 719 1093 777 q 1258 542 1258 661 q 1254 492 1258 519 q 1245 432 1251 464 m 866 342 q 729 313 775 342 q 683 230 683 285 q 710 164 683 188 q 786 141 737 141 q 910 186 860 141 q 977 313 961 231 l 983 342 l 866 342 "},"☬":{"x_min":115,"x_max":871,"ha":986,"o":"m 493 1016 q 593 964 538 1016 l 581 954 l 570 869 q 691 784 656 838 q 729 671 729 729 q 591 470 729 536 l 591 420 l 510 420 l 510 338 q 688 426 591 338 q 779 666 779 532 q 694 863 779 785 l 708 876 l 712 876 q 871 589 871 764 q 769 182 871 393 q 634 301 688 301 q 596 270 596 301 q 678 151 596 251 q 699 94 699 124 q 661 54 690 54 q 613 75 617 48 q 508 270 572 237 l 508 168 q 564 40 508 119 q 493 0 564 0 q 418 41 418 0 q 472 171 472 119 l 472 270 q 368 77 368 207 q 320 54 363 54 q 283 94 292 54 q 335 194 283 137 q 385 273 387 251 q 353 301 385 301 q 219 183 298 301 q 115 605 115 379 q 269 876 115 763 l 272 876 l 287 863 q 202 663 202 781 q 347 382 202 492 q 473 338 390 350 l 473 420 l 392 420 l 392 470 q 253 671 253 532 q 414 869 253 800 l 398 954 l 387 966 q 493 1016 446 1016 m 307 667 q 398 518 307 568 l 401 518 q 449 683 449 589 q 429 825 449 739 q 334 758 368 808 q 307 667 307 715 m 556 825 q 534 680 534 747 q 577 518 534 587 q 675 673 675 559 q 556 825 675 776 "},"ᕂ":{"x_min":118.125,"x_max":1382.78125,"ha":1434,"o":"m 453 649 l 387 310 q 408 205 374 242 q 518 169 442 169 q 643 205 594 169 q 705 310 691 242 l 771 649 l 1382 649 l 1344 452 l 993 452 l 966 310 q 817 65 935 151 q 482 -20 699 -20 q 180 64 265 -20 q 126 310 94 148 l 192 649 l 453 649 "},"ֺ":{"x_min":-46.109375,"x_max":115.28125,"ha":0,"o":"m -20 1004 l 115 1004 l 89 868 l -46 868 l -20 1004 "},"✘":{"x_min":171,"x_max":1047,"ha":1164,"o":"m 925 1027 q 963 1006 944 1027 q 982 952 976 991 q 1006 949 999 952 q 1037 932 1028 941 q 1047 909 1047 923 q 1036 871 1047 882 q 713 510 873 722 q 914 261 814 371 q 926 233 926 249 q 905 182 926 199 q 866 170 892 170 q 856 134 865 157 q 818 95 839 95 q 773 111 793 95 q 758 91 767 99 q 715 73 733 73 q 682 92 700 73 q 539 286 622 156 q 324 17 383 109 q 298 0 312 0 q 273 24 285 -1 q 262 54 263 45 q 236 46 248 46 q 199 66 219 46 q 175 101 175 90 q 195 150 175 120 q 183 161 189 152 q 171 193 171 177 q 187 229 171 208 q 408 492 275 348 q 258 801 325 620 q 244 862 244 843 q 259 913 244 880 q 285 935 270 935 q 335 908 302 935 q 342 935 335 918 q 369 969 358 969 q 408 950 399 969 q 581 691 480 817 q 907 1018 738 871 q 925 1027 915 1027 "},"⟱":{"x_min":59.375,"x_max":1107.625,"ha":1164,"o":"m 629 -5 l 537 -5 l 59 472 l 158 569 l 214 514 l 214 1012 l 323 1012 l 323 405 l 424 304 l 424 1012 l 533 1012 l 533 195 l 583 144 l 634 195 l 634 1012 l 743 1012 l 743 304 l 844 405 l 844 1012 l 953 1012 l 953 514 l 1008 569 l 1107 472 l 629 -5 "},"ᐰ":{"x_min":-91.28125,"x_max":970.15625,"ha":1075,"o":"m 707 0 l 590 775 l 171 0 l -91 0 l 480 1013 l 791 1013 l 970 0 l 707 0 m 882 1266 q 826 1128 882 1184 q 689 1073 770 1073 q 551 1128 607 1073 q 496 1266 496 1184 q 551 1403 496 1347 q 689 1459 607 1459 q 826 1403 770 1459 q 882 1266 882 1347 m 790 1266 q 761 1338 790 1310 q 689 1367 733 1367 q 616 1338 644 1367 q 588 1266 588 1310 q 616 1193 588 1222 q 689 1165 645 1165 q 761 1193 733 1165 q 790 1266 790 1221 "},"ȝ":{"x_min":-65.328125,"x_max":784,"ha":844,"o":"m 784 590 q 720 432 784 508 q 556 312 657 356 q 633 281 601 300 q 681 239 665 262 q 704 195 697 217 q 712 150 712 173 q 707 113 712 131 q -65 -293 649 -163 l -32 -138 q 6 -129 -15 -134 q 69 -114 28 -124 q 151 -90 111 -103 q 237 -60 191 -77 q 323 -22 284 -43 q 395 21 362 -1 q 446 72 428 44 q 465 128 465 99 q 431 193 465 169 q 353 216 398 216 q 277 202 318 216 l 136 156 l 165 295 l 319 348 q 417 390 375 367 q 482 434 459 413 q 519 478 505 455 q 537 516 533 500 q 542 548 542 532 q 528 589 542 571 q 494 616 515 607 q 451 628 472 624 q 408 633 429 633 q 153 547 313 633 l 182 687 q 508 778 340 778 q 617 767 568 778 q 695 738 665 756 q 746 696 726 721 q 775 645 767 671 q 784 590 784 620 "},"∡":{"x_min":106.765625,"x_max":1139,"ha":1245,"o":"m 590 682 l 823 1012 l 1031 1012 l 718 571 q 843 399 790 494 q 936 170 906 287 l 1139 170 l 1139 0 l 965 0 q 965 -61 965 -30 l 867 -61 q 867 0 867 -30 l 106 0 l 533 602 q 491 630 513 617 l 544 712 q 590 682 567 698 m 660 489 l 432 170 l 835 170 q 759 349 808 261 q 660 489 716 426 "},"☡":{"x_min":116.265625,"x_max":1129.21875,"ha":1245,"o":"m 738 1014 q 912 918 835 1014 q 948 813 948 866 q 863 653 948 719 l 416 240 l 409 198 q 474 120 409 138 l 1070 262 q 1129 196 1123 262 l 1129 194 q 1057 134 1129 134 l 472 0 q 290 117 363 0 q 272 191 272 153 l 272 207 q 366 374 272 301 q 800 778 787 759 q 808 811 808 796 q 741 887 808 865 l 734 887 l 162 749 q 116 803 123 749 l 116 823 q 182 875 116 866 l 192 875 l 738 1014 "},"ℕ":{"x_min":127,"x_max":1034,"ha":1161,"o":"m 290 931 l 743 81 l 867 81 l 414 931 l 290 931 m 127 1012 l 464 1012 l 953 93 l 953 1012 l 1034 1012 l 1034 0 l 693 0 l 208 913 l 208 0 l 127 0 l 127 1012 "},"ᕕ":{"x_min":1.078125,"x_max":971.8125,"ha":1075,"o":"m 180 204 q 131 149 137 181 q 158 94 124 117 q 245 71 191 71 q 341 94 299 71 q 390 149 383 117 q 363 204 396 181 q 276 228 329 228 q 180 204 222 228 m 18 190 l 482 1013 l 793 1013 l 971 0 l 709 0 l 592 775 l 343 316 q 465 269 416 306 q 518 149 532 219 q 419 29 504 78 q 227 -20 334 -20 q 55 29 121 -20 q 3 149 -10 79 q 18 190 7 171 "},"œ":{"x_min":50,"x_max":1464,"ha":1520,"o":"m 1218 462 q 1221 479 1220 470 q 1223 497 1223 489 q 1190 584 1223 552 q 1102 616 1157 616 q 980 576 1031 616 q 903 462 928 536 l 1218 462 m 1448 350 l 1440 312 l 872 312 q 871 300 872 307 q 870 288 870 292 q 914 177 870 214 q 1048 141 959 141 q 1209 164 1124 141 q 1388 232 1294 187 l 1351 44 q 1174 -4 1262 11 q 993 -20 1086 -20 q 820 6 888 -20 q 713 88 753 32 q 580 6 652 32 q 414 -20 507 -20 q 147 65 244 -20 q 50 300 50 151 q 80 468 50 386 q 169 617 111 550 q 332 737 237 696 q 544 777 427 777 q 708 750 639 777 q 820 667 776 722 q 961 749 884 722 q 1131 777 1038 777 q 1373 694 1282 777 q 1464 475 1464 611 q 1459 416 1464 448 q 1448 350 1455 385 m 520 604 q 365 518 426 604 q 304 300 304 433 q 337 191 304 228 q 433 153 370 153 q 588 239 527 153 q 649 458 649 325 q 616 566 649 529 q 520 604 583 604 "},"Ὲ":{"x_min":116.640625,"x_max":1272.25,"ha":1291,"o":"m 568 1013 l 1272 1013 l 1233 816 l 790 816 l 754 627 l 1171 627 l 1131 430 l 715 430 l 670 197 l 1127 197 l 1090 0 l 370 0 l 568 1013 m 308 1111 l 450 856 l 316 856 l 116 1111 l 308 1111 "},"⇦":{"x_min":36.84375,"x_max":1084,"ha":1163,"o":"m 313 578 l 171 436 l 313 293 l 313 358 l 989 358 l 989 514 l 313 514 l 313 578 m 408 64 l 36 436 l 408 807 l 408 609 l 1084 609 l 1084 263 l 408 263 l 408 64 "},"Ɵ":{"x_min":50,"x_max":1130,"ha":1180,"o":"m 681 1031 q 1006 918 883 1031 q 1130 625 1130 806 q 1092 391 1130 501 q 982 194 1054 281 q 774 33 894 86 q 496 -20 654 -20 q 172 91 295 -20 q 50 385 50 203 q 87 619 50 509 q 197 817 124 729 q 404 978 283 925 q 681 1031 524 1031 m 524 169 q 726 257 643 169 q 826 449 794 329 l 329 449 q 326 392 326 419 q 355 257 326 311 q 524 169 404 169 m 852 624 q 822 753 852 701 q 654 842 774 842 q 452 753 534 842 q 372 624 403 701 l 852 624 "},"℆":{"x_min":35,"x_max":1623.84375,"ha":1594,"o":"m 637 992 l 601 811 q 511 861 544 849 q 448 873 478 873 q 315 817 367 873 q 263 674 263 762 q 293 590 263 619 q 380 562 324 562 q 458 573 419 562 q 565 632 496 585 l 529 440 q 426 413 473 421 q 331 405 379 405 q 112 469 189 405 q 35 650 35 533 q 62 789 35 721 q 141 911 89 857 q 275 1000 199 971 q 447 1030 350 1030 q 537 1021 492 1030 q 637 992 581 1013 m 440 -33 l 234 -33 l 1092 1043 l 1299 1043 l 440 -33 m 948 237 l 1017 596 l 1234 596 l 1174 284 q 1165 235 1168 255 q 1162 205 1162 216 q 1175 164 1162 177 q 1213 151 1188 151 q 1298 190 1261 151 q 1349 305 1335 230 l 1407 596 l 1623 596 l 1508 -1 l 1290 -1 l 1299 44 q 1236 11 1291 36 q 1120 -14 1182 -14 q 987 31 1035 -14 q 940 156 940 76 q 942 194 940 174 q 948 237 944 215 "},"ᓄ":{"x_min":-27.125,"x_max":1245.234375,"ha":1293,"o":"m 947 443 q 836 480 912 480 q 712 443 760 480 q 650 338 663 406 q 671 233 637 270 q 781 197 705 197 q 906 233 857 197 q 968 338 954 270 q 947 443 981 406 m 743 0 l -27 0 l 11 197 l 380 197 q 381 338 366 260 q 532 583 412 497 q 873 669 652 669 q 1181 583 1094 669 q 1236 338 1268 497 q 1085 89 1204 171 q 743 0 954 0 "},"𝙟":{"x_min":-177.6875,"x_max":491.671875,"ha":476,"o":"m 190 759 l 434 759 l 288 13 q 172 -223 257 -146 q -56 -300 87 -300 l -177 -300 l -147 -141 l -104 -141 q -4 -110 -35 -141 q 44 12 27 -79 l 190 759 m 247 1055 l 491 1055 l 453 857 l 208 857 l 247 1055 "},"ᵛ":{"x_min":115.96875,"x_max":654.4375,"ha":696,"o":"m 115 878 l 257 878 l 318 581 l 499 878 l 654 878 l 373 453 l 210 453 l 115 878 "},"ș":{"x_min":13.84375,"x_max":778.765625,"ha":828,"o":"m 190 -126 l 410 -126 l 220 -328 l 90 -328 l 190 -126 m 778 736 l 742 547 q 600 599 671 581 q 467 617 530 617 q 356 598 395 617 q 317 545 317 579 q 338 512 317 524 q 424 486 360 500 l 468 478 q 674 398 615 447 q 734 261 734 349 q 630 55 734 129 q 339 -19 526 -19 q 180 -6 261 -19 q 13 29 98 5 l 50 220 q 191 161 116 181 q 344 142 266 142 q 460 160 421 142 q 499 213 499 178 q 477 251 499 238 q 387 279 455 265 l 343 287 q 157 367 213 315 q 102 514 102 420 q 198 709 102 641 q 472 778 294 778 q 626 767 550 778 q 778 736 702 757 "},"ἱ":{"x_min":59,"x_max":434.640625,"ha":541,"o":"m 327 246 q 318 171 318 196 q 323 137 318 147 q 373 116 335 116 q 434 118 412 116 l 409 -9 q 220 -26 364 -26 q 133 -13 174 -26 q 59 84 59 10 q 67 158 59 112 l 185 760 l 427 760 l 327 246 m 432 1091 l 414 1001 l 315 1001 q 397 909 297 909 l 381 826 q 233 1022 195 826 l 246 1091 l 432 1091 "},"ˈ":{"x_min":111.890625,"x_max":313.3125,"ha":425,"o":"m 313 1054 l 240 678 l 111 678 l 185 1054 l 313 1054 "},"ɘ":{"x_min":30.984375,"x_max":884.75,"ha":942,"o":"m 60 381 q 223 669 94 561 q 530 777 351 777 q 819 670 727 777 q 874 378 910 564 q 703 85 838 189 q 362 -20 568 -20 q 193 -3 276 -20 q 30 45 110 13 l 66 232 q 218 163 142 186 q 371 141 294 141 q 527 183 466 141 q 614 312 588 226 l 46 312 l 60 381 m 325 462 l 642 462 q 606 575 642 536 q 499 616 569 616 q 386 573 435 616 q 325 462 338 531 "},"ạ":{"x_min":24,"x_max":849,"ha":938,"o":"m 457 342 q 320 313 366 342 q 274 230 274 285 q 301 165 274 189 q 377 142 328 142 q 501 187 451 142 q 568 314 552 232 l 574 342 l 457 342 m 836 433 l 752 0 l 509 0 l 529 112 q 403 12 469 44 q 258 -19 336 -19 q 87 36 150 -19 q 24 187 24 92 q 136 409 24 332 q 460 486 248 486 l 603 486 l 606 505 q 608 518 608 514 q 609 526 609 522 q 566 594 609 571 q 440 617 524 617 q 294 601 365 617 q 158 554 224 585 l 195 739 q 350 768 271 758 q 515 778 430 778 q 766 720 684 778 q 849 543 849 662 q 845 492 849 520 q 836 433 842 465 m 442 -295 l 257 -295 l 290 -128 l 476 -128 l 442 -295 "},"❥":{"x_min":233,"x_max":1011.53125,"ha":1163,"o":"m 1011 507 q 686 130 850 412 q 487 0 608 0 q 390 18 437 0 q 307 74 344 36 q 251 156 272 109 q 233 252 233 200 q 251 348 233 304 q 307 431 270 394 q 390 487 342 466 q 487 507 435 506 q 390 525 435 507 q 307 581 342 544 q 251 664 270 618 q 233 760 233 707 q 251 856 233 811 q 307 938 272 902 q 390 994 344 975 q 487 1013 437 1013 q 686 882 610 1013 q 1011 507 850 599 "},"ӥ":{"x_min":42.71875,"x_max":930.453125,"ha":973,"o":"m 382 1075 l 543 1075 l 510 908 l 350 908 l 382 1075 m 652 1075 l 811 1075 l 778 908 l 619 908 l 652 1075 m 42 0 l 190 760 l 433 760 l 354 355 l 678 760 l 930 760 l 782 0 l 539 0 l 618 404 l 295 0 l 42 0 "},"ʛ":{"x_min":21,"x_max":1066.078125,"ha":951,"o":"m 668 68 q 512 17 590 34 q 351 0 432 0 q 83 102 170 0 q 30 379 -3 204 q 193 657 65 556 q 509 759 321 759 q 531 759 520 759 q 647 975 562 898 q 875 1055 736 1055 l 1066 1055 l 1034 896 l 922 896 q 821 864 853 896 q 771 741 789 833 l 764 704 l 764 704 l 733 544 q 621 593 678 577 q 503 610 564 610 q 319 549 391 610 q 225 379 246 490 q 250 209 203 269 q 405 149 297 149 q 460 153 434 149 q 507 163 486 156 l 528 277 l 341 277 l 370 427 l 737 427 l 668 68 "},"ᐔ":{"x_min":111.21875,"x_max":1509.609375,"ha":1596,"o":"m 143 589 l 329 589 l 297 422 l 111 422 l 143 589 m 760 675 l 695 337 l 1241 506 l 760 675 m 368 0 l 564 1012 l 1509 662 l 1448 350 l 368 0 m 939 1289 l 1126 1289 l 1094 1122 l 908 1122 l 939 1289 "},"כּ":{"x_min":31.8125,"x_max":863,"ha":903,"o":"m 31 0 l 65 173 l 304 173 q 525 212 482 173 q 602 379 579 261 q 613 467 613 430 q 590 547 613 523 q 384 586 553 586 l 145 586 l 179 759 l 529 759 l 587 759 q 833 661 771 759 q 863 531 863 615 q 846 379 863 466 q 723 97 803 162 q 439 0 603 0 l 381 0 l 31 0 m 363 379 l 363 379 m 308 448 l 444 448 l 417 312 l 282 312 l 308 448 m 363 379 l 363 379 "},"➱":{"x_min":86.09375,"x_max":1109.203125,"ha":1163,"o":"m 187 398 l 86 622 l 120 690 l 670 690 l 670 730 l 703 797 l 778 797 l 1109 466 l 1075 398 l 744 67 l 670 67 l 670 175 l 86 175 l 187 398 m 250 398 l 172 229 l 724 229 l 724 122 l 1000 398 l 724 675 l 724 568 l 172 568 l 250 398 "},"Ḙ":{"x_min":61.71875,"x_max":963,"ha":949,"o":"m 259 1013 l 963 1013 l 924 816 l 481 816 l 444 627 l 861 627 l 822 430 l 406 430 l 361 197 l 818 197 l 781 0 l 61 0 l 259 1013 m 377 -26 l 554 -26 l 678 -281 l 557 -281 l 451 -128 l 288 -280 l 154 -280 l 377 -26 "},"ﬢ":{"x_min":109.1875,"x_max":1241.046875,"ha":1236,"o":"m 1075 586 l 961 0 l 718 0 l 832 586 l 109 586 l 143 759 l 1241 759 l 1207 586 l 1075 586 "},"ᐧ":{"x_min":111.21875,"x_max":329.59375,"ha":430,"o":"m 143 589 l 329 589 l 297 422 l 111 422 l 143 589 "},"✡":{"x_min":126.8125,"x_max":1036.921875,"ha":1164,"o":"m 581 1033 l 733 770 l 1036 770 l 885 507 l 1036 245 l 733 245 l 581 -18 l 429 245 l 126 245 l 278 507 l 126 770 l 429 770 l 581 1033 m 469 702 l 356 507 l 469 312 l 694 312 l 807 507 l 694 702 l 469 702 m 581 896 l 508 770 l 655 770 l 581 896 m 772 702 l 846 575 l 919 702 l 772 702 m 846 439 l 772 312 l 919 312 l 846 439 m 655 245 l 508 245 l 581 117 l 655 245 m 391 312 l 317 439 l 244 312 l 391 312 m 317 575 l 391 702 l 244 702 l 317 575 "},"ữ":{"x_min":79,"x_max":1101,"ha":989,"o":"m 89 295 l 178 759 l 421 759 l 345 363 q 333 298 337 325 q 329 255 329 270 q 352 188 329 212 q 420 165 376 165 q 550 223 495 165 q 624 385 604 281 l 697 759 l 941 759 l 794 0 l 549 0 l 571 110 q 440 12 509 45 q 296 -20 372 -20 q 135 34 192 -20 q 79 190 79 89 q 81 240 79 213 q 89 295 84 266 m 804 576 l 823 671 q 884 624 861 637 q 924 612 906 612 q 971 631 950 612 q 998 685 991 651 q 1003 737 1003 711 q 997 791 1003 763 l 1101 791 q 1101 721 1101 753 q 1095 662 1101 690 q 1040 542 1080 584 q 942 501 1001 501 q 872 519 906 501 q 804 576 838 537 m 545 925 l 512 950 q 505 954 510 951 q 459 975 479 975 q 418 951 436 975 q 394 888 400 928 l 299 888 q 361 1030 317 980 q 470 1080 406 1080 q 517 1070 494 1080 q 564 1041 539 1061 l 600 1012 q 624 996 613 1001 q 646 991 636 991 q 689 1013 672 991 q 714 1079 707 1036 l 809 1079 q 747 936 791 986 q 639 886 703 886 q 596 894 616 886 q 545 925 575 902 "},"ᓲ":{"x_min":-41.375,"x_max":996.234375,"ha":1014,"o":"m 233 64 l 219 0 l -41 0 l -14 138 q 256 525 33 388 q 655 663 479 663 l 723 1013 l 984 1013 l 879 472 l 733 472 q 405 376 531 472 q 233 64 280 280 m 809 1289 l 996 1289 l 964 1122 l 777 1122 l 809 1289 "},"ʐ":{"x_min":18.046875,"x_max":904.421875,"ha":964,"o":"m 182 759 l 845 759 l 812 590 l 331 173 l 732 173 l 700 13 q 690 -94 684 -72 q 703 -109 693 -106 q 791 -141 703 -141 l 904 -141 l 873 -300 l 682 -300 q 485 -220 543 -300 q 454 0 430 -141 l 18 0 l 51 169 l 532 586 l 148 586 l 182 759 "},"ὂ":{"x_min":50,"x_max":904,"ha":954,"o":"m 520 604 q 365 518 426 604 q 304 300 304 433 q 337 191 304 228 q 433 153 370 153 q 588 239 527 153 q 649 458 649 325 q 616 566 649 529 q 520 604 583 604 m 540 777 q 807 691 710 777 q 904 456 904 605 q 873 289 904 370 q 784 141 842 208 q 621 20 715 61 q 410 -20 526 -20 q 146 66 243 -20 q 50 300 50 152 q 81 468 50 386 q 170 617 112 549 q 332 736 238 696 q 540 777 426 777 m 269 1090 l 454 1090 l 441 1021 q 217 826 403 826 l 233 909 q 351 1000 332 909 l 251 1000 l 269 1090 m 710 1110 l 851 856 l 718 856 l 518 1110 l 710 1110 "},"î":{"x_min":42.71875,"x_max":575.09375,"ha":476,"o":"m 190 760 l 434 760 l 286 0 l 42 0 l 190 760 m 273 1111 l 451 1111 l 575 856 l 454 856 l 348 1008 l 185 856 l 51 856 l 273 1111 "},"ύ":{"x_min":75,"x_max":895,"ha":938,"o":"m 677 1111 l 869 1111 l 569 856 l 436 856 l 677 1111 m 649 434 q 664 541 664 510 q 607 759 664 700 l 793 759 q 886 587 859 695 q 895 518 895 556 q 885 432 895 480 q 733 102 844 218 q 386 -14 623 -14 q 131 37 188 -14 q 75 174 75 88 q 82 243 75 206 l 183 759 l 426 759 l 323 233 q 321 197 321 217 q 337 158 321 176 q 427 139 355 139 q 579 229 499 139 q 649 434 617 273 "},"ັ":{"x_min":-905.1875,"x_max":-37.875,"ha":0,"o":"m -532 848 q -826 911 -696 848 q -900 1072 -924 960 q -672 1241 -863 1241 q -502 1079 -469 1241 q -526 1010 -509 1043 q -252 1052 -259 1010 q -304 1117 -252 1086 q -142 1245 -226 1186 q -39 1061 -26 1139 q -532 848 -81 848 "},"ϰ":{"x_min":22.390625,"x_max":1008.4375,"ha":1033,"o":"m 413 239 q 99 -7 290 -23 q 26 119 4 0 q 86 223 30 146 q 271 380 126 277 q 313 565 328 466 q 237 606 307 606 q 122 532 198 606 l 160 730 q 307 760 220 769 q 534 576 549 736 q 507 459 525 481 l 617 513 q 931 760 740 776 q 1004 633 1026 752 q 944 529 1000 606 q 758 372 904 475 q 717 187 701 286 q 793 147 723 147 q 908 220 832 147 l 870 22 q 722 -7 810 -16 q 496 176 481 16 q 523 293 505 271 l 413 239 "},"ɓ":{"x_min":16.28125,"x_max":916.28125,"ha":994,"o":"m 341 213 q 450 156 372 156 q 580 213 528 156 q 653 379 632 270 q 644 544 674 487 q 537 602 615 602 q 406 544 459 602 q 332 378 353 487 q 341 213 311 270 m 386 650 q 515 746 448 715 q 661 778 582 778 q 870 666 802 778 q 904 379 939 554 q 758 91 870 203 q 506 -20 646 -20 q 372 12 427 -20 q 280 109 317 43 l 259 0 l 16 0 l 160 741 q 280 975 189 892 q 507 1055 368 1055 l 698 1055 l 667 896 l 554 896 q 453 864 485 896 q 404 742 421 833 l 386 650 "},"ᒂ":{"x_min":72.5625,"x_max":1280.765625,"ha":1361,"o":"m 423 329 l 556 1012 l 817 1012 l 748 654 q 909 671 821 671 q 1217 585 1131 671 q 1271 329 1304 499 q 1108 68 1238 156 q 775 -20 978 -20 q 493 70 594 -20 q 423 329 391 161 m 811 169 q 931 210 875 169 q 1002 329 987 251 q 982 442 1016 403 q 870 482 948 482 q 749 444 797 482 q 685 329 700 407 q 708 210 670 251 q 811 169 747 169 m 182 790 l 368 790 l 336 623 l 150 623 l 182 790 m 104 388 l 290 388 l 258 221 l 72 221 l 104 388 "},"ǫ":{"x_min":50,"x_max":904,"ha":954,"o":"m 520 604 q 365 518 426 604 q 304 301 304 433 q 337 191 304 229 q 433 153 370 153 q 588 239 527 153 q 649 458 649 325 q 616 567 649 529 q 520 604 583 604 m 540 778 q 807 691 710 778 q 904 457 904 605 q 873 289 904 370 q 784 141 842 208 q 621 20 715 61 q 410 -20 526 -20 q 146 66 243 -20 q 50 300 50 152 q 81 468 50 386 q 170 617 112 550 q 332 737 238 696 q 540 778 426 778 m 331 -11 l 427 -11 q 361 -88 379 -61 q 344 -134 344 -115 q 360 -170 344 -157 q 407 -183 377 -183 q 460 -177 432 -183 q 517 -162 488 -172 l 498 -265 q 429 -278 459 -274 q 372 -283 398 -283 q 262 -259 300 -283 q 225 -191 225 -236 q 250 -104 225 -147 q 331 -11 275 -61 "},"⋕":{"x_min":147,"x_max":1016,"ha":1163,"o":"m 805 -138 l 656 -138 l 656 200 l 507 200 l 507 -138 l 358 -138 l 358 200 l 147 200 l 147 361 l 358 361 l 358 511 l 147 511 l 147 670 l 358 670 l 358 1013 l 507 1013 l 507 670 l 656 670 l 656 1013 l 805 1013 l 805 670 l 1016 670 l 1016 511 l 805 511 l 805 361 l 1016 361 l 1016 200 l 805 200 l 805 -138 m 656 361 l 656 511 l 507 511 l 507 361 l 656 361 "},"₠":{"x_min":64.6875,"x_max":1276.3125,"ha":1291,"o":"m 747 760 l 1276 760 l 1247 612 l 914 612 l 887 470 l 1200 470 l 1171 322 l 858 322 l 824 148 l 1168 148 l 1140 0 l 600 0 l 655 281 q 534 239 595 253 q 409 225 472 225 q 129 331 219 225 q 74 619 39 437 q 241 906 109 800 q 562 1013 373 1013 q 681 998 625 1013 q 786 956 737 984 l 755 799 q 658 853 708 836 q 550 871 609 871 q 372 803 446 871 q 276 618 299 736 q 301 434 254 501 q 453 367 347 367 q 567 384 511 367 q 685 438 623 401 l 747 760 "},"ᕩ":{"x_min":65,"x_max":1360.640625,"ha":1461,"o":"m 1174 589 l 1360 589 l 1328 422 l 1142 422 l 1174 589 m 763 787 q 850 764 796 764 q 946 787 903 764 q 995 843 988 810 q 996 853 996 848 q 968 898 996 879 q 880 922 934 922 q 784 898 827 922 q 736 843 742 875 q 735 832 735 837 q 763 787 735 806 m 606 800 q 475 736 532 780 q 346 507 376 657 q 338 423 338 462 q 386 276 338 331 q 615 197 455 197 l 970 197 l 932 0 l 656 0 q 321 32 429 0 q 147 144 214 65 q 73 302 90 212 q 65 385 65 341 q 77 507 65 442 q 152 709 100 620 q 288 868 203 799 q 503 980 384 947 q 853 1013 623 1013 l 902 1013 q 1071 963 1004 1013 q 1126 866 1126 922 q 1123 843 1126 855 q 1024 722 1109 772 q 832 673 939 673 q 660 722 726 673 q 606 800 615 756 m 623 1289 l 809 1289 l 777 1122 l 591 1122 l 623 1289 "},"⠗":{"x_min":203,"x_max":881,"ha":1084,"o":"m 203 1085 l 474 1085 l 474 814 l 203 814 l 203 1085 m 203 723 l 474 723 l 474 452 l 203 452 l 203 723 m 203 361 l 474 361 l 474 90 l 203 90 l 203 361 m 610 723 l 881 723 l 881 452 l 610 452 l 610 723 "},"⌅":{"x_min":268.625,"x_max":896.390625,"ha":1164,"o":"m 874 588 l 874 425 l 291 425 l 291 588 l 874 588 m 535 152 l 366 -16 l 268 82 l 535 349 l 629 349 l 896 82 l 798 -16 l 629 152 l 535 152 "},"℁":{"x_min":21,"x_max":1536.625,"ha":1537,"o":"m 1497 179 q 1179 -16 1460 -16 q 934 22 1042 -16 l 966 191 l 983 182 q 1185 131 1079 131 q 1299 177 1290 131 q 1290 203 1302 194 q 1226 219 1278 212 l 1194 223 q 1028 283 1072 239 q 1002 419 984 327 q 1304 609 1039 609 q 1536 574 1430 609 l 1504 406 l 1487 413 q 1289 462 1382 462 q 1189 420 1196 462 q 1197 398 1186 406 q 1257 383 1209 390 l 1289 378 q 1474 314 1432 357 q 1497 179 1516 272 m 363 676 q 271 658 300 676 q 242 606 242 640 q 257 567 242 580 q 302 554 273 554 q 384 583 351 554 q 430 670 417 613 l 430 676 l 363 676 m 664 756 l 598 419 l 382 419 l 390 464 q 330 430 383 457 q 214 404 277 404 q 73 450 126 404 q 21 573 21 497 q 110 750 21 689 q 365 812 199 812 l 457 812 l 457 814 q 459 823 459 820 q 460 828 460 826 q 434 869 460 855 q 350 883 408 883 q 245 871 296 883 q 116 822 194 860 l 151 999 q 280 1023 219 1016 q 407 1031 341 1031 q 607 983 540 1031 q 674 841 674 936 q 671 802 674 823 q 664 756 669 781 m 512 -33 l 305 -33 l 1165 1044 l 1371 1044 l 512 -33 "},"‸":{"x_min":140.375,"x_max":877.546875,"ha":1018,"o":"m 877 -330 l 740 -330 l 508 -159 l 277 -330 l 140 -330 l 508 41 l 877 -330 "},"↨":{"x_min":268.625,"x_max":896.390625,"ha":1164,"o":"m 534 163 l 268 429 l 366 527 l 501 393 l 501 787 l 366 652 l 268 751 l 534 1017 l 630 1017 l 896 751 l 798 652 l 664 787 l 664 393 l 798 527 l 896 429 l 630 163 l 874 163 l 874 0 l 291 0 l 291 163 l 534 163 "},"Ξ":{"x_min":37.984375,"x_max":859.234375,"ha":878,"o":"m 231 627 l 713 627 l 674 430 l 192 430 l 231 627 m 234 1013 l 859 1013 l 821 816 l 196 816 l 234 1013 m 75 197 l 700 197 l 662 0 l 37 0 l 75 197 "},"⎩":{"x_min":425,"x_max":928,"ha":1042,"o":"m 616 1084 l 616 17 q 638 -116 616 -87 q 737 -149 671 -149 l 928 -149 l 928 -334 l 741 -334 q 508 -238 592 -334 q 425 23 425 -141 l 425 1084 l 616 1084 "},"Ԃ":{"x_min":48,"x_max":1550.046875,"ha":1610,"o":"m 329 -20 q 102 58 186 -20 q 48 209 48 107 q 58 312 48 255 q 203 546 90 474 q 519 626 327 626 l 692 626 l 767 1012 l 1027 1012 l 909 405 q 899 307 899 349 q 915 226 899 256 q 1019 172 946 172 q 1143 226 1092 172 q 1219 405 1195 280 l 1288 759 l 1550 759 l 1480 405 q 1310 85 1438 190 q 981 -20 1182 -20 q 694 85 781 -20 q 655 151 670 114 q 501 21 581 62 q 329 -20 422 -20 m 654 429 l 500 429 q 376 398 418 429 q 318 304 330 366 q 315 271 315 286 q 339 208 315 231 q 449 177 371 177 q 575 233 521 177 q 648 399 627 288 l 654 429 "},"𝕗":{"x_min":31.640625,"x_max":732,"ha":703,"o":"m 355 798 q 400 974 355 912 q 266 938 296 974 q 232 811 232 896 l 232 81 l 355 81 l 355 798 m 732 1055 l 732 974 l 614 974 q 474 935 513 974 q 436 798 436 897 l 436 751 l 699 751 l 699 670 l 436 670 l 436 0 l 151 0 l 151 670 l 31 670 l 31 751 l 151 751 l 151 812 q 209 996 151 940 q 397 1055 269 1055 l 732 1055 "},"⡉":{"x_min":203,"x_max":881,"ha":1084,"o":"m 203 1085 l 474 1085 l 474 814 l 203 814 l 203 1085 m 610 1085 l 881 1085 l 881 814 l 610 814 l 610 1085 m 203 0 l 474 0 l 474 -271 l 203 -271 l 203 0 "},"ŵ":{"x_min":147,"x_max":1286.828125,"ha":1283,"o":"m 683 1111 l 861 1111 l 985 856 l 864 856 l 758 1008 l 595 856 l 461 856 l 683 1111 m 147 760 l 357 760 l 357 237 l 599 760 l 806 760 l 806 238 l 1048 760 l 1286 760 l 939 0 l 669 0 l 669 522 l 424 0 l 147 0 l 147 760 "},"ᾚ":{"x_min":40.6875,"x_max":1707.625,"ha":1737,"o":"m 800 1012 l 1062 1012 l 986 627 l 1371 627 l 1446 1012 l 1707 1012 l 1510 0 l 1249 0 l 1332 430 l 948 430 l 864 0 l 603 0 l 800 1012 m 92 1090 l 278 1090 l 264 1021 q 40 826 226 826 l 56 909 q 174 1000 155 909 l 74 1000 l 92 1090 m 533 1111 l 674 856 l 541 856 l 341 1111 l 533 1111 m 1148 -289 l 1026 -289 q 991 -165 967 -289 l 1011 -62 l 1144 -62 l 1123 -166 q 1144 -237 1110 -237 l 1158 -237 l 1148 -289 "},"№":{"x_min":-51.1875,"x_max":1605,"ha":1671,"o":"m 226 1013 l 517 1013 l 751 318 l 841 780 q 939 964 867 916 q 1214 1013 1010 1013 l 1185 863 q 1111 841 1126 863 q 1088 780 1096 820 l 936 0 l 645 0 l 412 694 l 321 231 q 223 48 295 96 q -51 0 152 0 l -22 150 q 51 170 36 150 q 74 231 66 191 l 226 1013 m 1258 658 q 1429 725 1328 725 q 1567 669 1530 725 q 1605 548 1605 614 q 1597 477 1605 516 q 1504 295 1575 361 q 1333 229 1434 229 q 1195 284 1232 229 q 1158 406 1158 339 q 1165 477 1158 438 q 1258 658 1187 592 m 1409 623 q 1342 585 1370 623 q 1300 477 1314 547 q 1294 415 1294 442 q 1304 359 1294 388 q 1353 331 1314 331 q 1462 477 1433 331 q 1469 538 1469 512 q 1458 594 1469 565 q 1409 623 1448 623 m 1099 136 l 1531 136 l 1504 0 l 1072 0 l 1099 136 "},"⁐":{"x_min":-43,"x_max":1194,"ha":1151,"o":"m 1194 1067 q 878 1138 1032 1115 q 574 1162 724 1162 q 271 1138 424 1162 q -43 1067 117 1114 l -43 1176 q 275 1259 123 1232 q 576 1287 427 1287 q 875 1259 724 1287 q 1194 1176 1026 1232 l 1194 1067 m 1194 -109 l 1194 -218 q 875 -301 1026 -274 q 576 -329 724 -329 q 275 -301 427 -329 q -43 -218 123 -274 l -43 -109 q 271 -180 117 -156 q 574 -204 424 -204 q 878 -180 724 -204 q 1194 -109 1032 -157 "},"ᐛ":{"x_min":86.125,"x_max":1227.484375,"ha":1257,"o":"m 900 675 l 354 506 l 835 337 l 900 675 m 1030 0 l 86 350 l 147 662 l 1227 1012 l 1030 0 m 600 1289 l 787 1289 l 755 1122 l 568 1122 l 600 1289 m 271 1051 l 457 1051 l 425 884 l 239 884 l 271 1051 "},"𝌦":{"x_min":115,"x_max":1130,"ha":1244,"o":"m 115 396 l 527 396 l 527 260 l 115 260 l 115 396 m 717 396 l 1129 396 l 1129 260 l 717 260 l 717 396 m 115 657 l 1130 657 l 1130 521 l 115 521 l 115 657 m 345 0 l 115 0 l 115 136 l 345 136 l 345 0 m 900 0 l 900 136 l 1130 136 l 1130 0 l 900 0 m 737 0 l 508 0 l 508 136 l 737 136 l 737 0 m 115 917 l 527 917 l 527 781 l 115 781 l 115 917 m 717 917 l 1129 917 l 1129 781 l 717 781 l 717 917 "},"ƫ":{"x_min":66.453125,"x_max":714.109375,"ha":664,"o":"m 505 975 l 463 759 l 714 759 l 680 586 l 429 586 l 367 263 q 374 192 357 210 q 454 173 391 173 l 579 173 l 545 0 q 429 -219 514 -142 q 201 -300 340 -300 l 81 -300 l 112 -141 l 154 -141 q 255 -109 223 -141 q 302 4 285 -80 q 145 57 187 4 q 124 263 96 119 l 187 586 l 66 586 l 100 759 l 221 759 l 263 975 l 505 975 "},"ᒋ":{"x_min":27.125,"x_max":1016.359375,"ha":1032,"o":"m 746 682 q 719 799 760 756 q 609 843 677 843 q 490 801 545 843 q 421 682 436 760 l 288 0 l 27 0 l 160 682 q 329 941 192 850 q 646 1032 465 1032 q 945 943 850 1032 q 1007 682 1040 855 l 746 682 "},"ເ":{"x_min":70.609375,"x_max":645,"ha":716,"o":"m 388 -18 q 125 33 193 -18 q 73 160 58 85 l 156 589 q 450 778 193 778 q 645 597 645 778 l 465 533 q 419 602 455 602 q 392 556 400 602 l 329 236 q 441 277 364 277 q 573 137 600 277 q 388 -18 543 -18 "},"𝙖":{"x_min":24,"x_max":849,"ha":938,"o":"m 457 342 q 320 313 366 342 q 274 230 274 285 q 301 164 274 188 q 377 141 328 141 q 501 186 451 141 q 568 314 552 231 l 574 342 l 457 342 m 836 432 l 752 0 l 509 0 l 529 112 q 403 12 469 44 q 258 -20 336 -20 q 87 35 150 -20 q 24 186 24 91 q 136 409 24 332 q 460 486 248 486 l 603 486 l 606 504 q 608 518 608 514 q 609 525 609 522 q 566 593 609 570 q 440 616 524 616 q 294 600 365 616 q 158 553 224 584 l 195 738 q 350 767 271 757 q 515 777 430 777 q 766 719 684 777 q 849 542 849 661 q 845 492 849 519 q 836 432 842 464 "},"̆":{"x_min":-307,"x_max":151.109375,"ha":0,"o":"m -304 1089 l -209 1089 l -209 1082 q -179 1015 -209 1039 q -96 992 -150 992 q -6 1015 -41 992 q 48 1089 29 1039 l 151 1089 q 58 940 128 992 q -116 888 -10 888 q -259 929 -211 888 q -307 1053 -307 971 q -307 1075 -307 1068 q -304 1089 -307 1082 "},"⚯":{"x_min":7,"x_max":1157,"ha":1164,"o":"m 688 557 q 701 598 693 577 q 753 675 717 639 q 830 727 787 708 q 920 745 871 745 q 1010 727 971 745 q 1087 675 1056 706 q 1139 598 1121 641 q 1157 506 1157 555 q 1139 415 1157 458 q 1087 338 1121 372 q 1010 286 1053 305 q 920 269 969 269 q 830 286 869 269 q 753 338 784 307 q 701 415 717 373 q 688 455 692 438 l 474 455 q 462 415 470 435 q 410 338 444 372 q 333 286 376 305 q 243 269 292 269 q 153 286 192 269 q 76 338 107 307 q 24 415 42 372 q 7 505 7 458 q 24 598 7 555 q 76 675 42 641 q 153 727 110 708 q 243 745 194 745 q 333 727 294 745 q 410 675 379 706 q 462 598 446 639 q 475 557 470 577 l 688 557 m 972 632 q 920 643 948 643 q 869 632 892 643 q 824 603 844 622 q 795 559 805 582 q 785 506 785 534 q 795 455 785 479 q 824 410 805 431 q 869 381 844 391 q 920 371 892 371 q 972 381 948 371 q 1016 410 996 391 q 1045 455 1035 431 q 1056 506 1056 479 q 1045 559 1056 534 q 1016 603 1035 582 q 972 632 996 622 m 294 632 q 243 643 271 643 q 192 632 215 643 q 147 603 164 620 q 118 559 128 582 q 108 506 108 534 q 118 455 108 479 q 147 411 129 429 q 192 381 167 392 q 243 371 215 371 q 295 381 271 371 q 339 410 319 391 q 368 455 358 431 q 379 506 379 479 q 368 559 379 534 q 339 603 357 585 q 294 632 319 622 "},"₩":{"x_min":32.453125,"x_max":1586.375,"ha":1531,"o":"m 152 678 l 152 758 l 67 758 l 86 857 l 143 857 l 143 1012 l 393 1012 l 393 857 l 672 857 l 738 1012 l 993 1012 l 993 857 l 1271 857 l 1338 1012 l 1586 1012 l 1519 857 l 1579 857 l 1559 758 l 1477 758 l 1442 678 l 1544 678 l 1525 579 l 1399 579 l 1150 0 l 837 0 l 837 579 l 734 579 l 484 0 l 171 0 l 171 579 l 32 579 l 51 678 l 152 678 m 1014 579 l 1014 276 l 1150 579 l 1014 579 m 1002 758 l 1002 678 l 1193 678 l 1228 758 l 1002 758 m 415 579 l 415 276 l 552 579 l 415 579 m 811 758 l 776 678 l 818 678 l 818 758 l 811 758 m 402 758 l 402 678 l 594 678 l 629 758 l 402 758 "},"ῳ":{"x_min":46,"x_max":1159,"ha":1207,"o":"m 589 -289 l 467 -289 q 432 -165 408 -289 l 452 -62 l 585 -62 l 565 -166 q 586 -237 551 -237 l 599 -237 l 589 -289 m 566 176 q 282 -19 505 -19 q 46 234 46 -19 q 62 384 46 300 q 267 759 96 558 l 476 759 q 315 387 357 599 q 303 278 303 323 q 370 174 303 174 q 503 482 446 174 l 746 482 q 718 258 718 343 q 760 174 718 174 q 898 387 856 174 q 915 571 915 476 q 881 759 915 666 l 1089 759 q 1159 478 1159 611 q 1150 384 1159 430 q 773 -19 1072 -19 q 565 152 565 -19 q 566 176 565 164 "},"ˬ":{"x_min":19.671875,"x_max":472.6875,"ha":694,"o":"m 120 -361 l 19 -29 l 133 -29 l 201 -249 l 357 -29 l 472 -29 l 242 -361 l 120 -361 "},"⢶":{"x_min":203,"x_max":881,"ha":1084,"o":"m 203 724 l 474 724 l 474 453 l 203 453 l 203 724 m 203 362 l 474 362 l 474 91 l 203 91 l 203 362 m 610 724 l 881 724 l 881 453 l 610 453 l 610 724 m 610 362 l 881 362 l 881 91 l 610 91 l 610 362 m 610 0 l 881 0 l 881 -271 l 610 -271 l 610 0 "},"Ӳ":{"x_min":106.46875,"x_max":1127.796875,"ha":1071,"o":"m 889 1288 l 1078 1288 l 862 1109 l 722 1109 l 889 1288 m 573 1288 l 763 1288 l 547 1109 l 406 1109 l 573 1288 m 138 1012 l 410 1012 l 545 551 l 853 1013 l 1127 1013 l 565 167 q 480 73 527 110 q 153 0 384 0 l 106 0 l 144 197 l 216 197 q 343 243 311 197 l 357 264 l 138 1012 "},"▇":{"x_min":-13,"x_max":1082,"ha":1069,"o":"m -13 -347 l -13 892 l 1082 892 l 1082 -347 l -13 -347 "},"✏":{"x_min":36,"x_max":1138.375,"ha":1164,"o":"m 976 489 q 979 505 979 497 q 976 521 979 513 q 969 534 974 527 q 959 542 966 538 l 817 628 q 802 592 817 606 q 837 505 837 554 q 802 418 837 456 q 817 382 817 405 l 959 468 q 969 476 966 472 q 976 489 974 483 m 218 432 l 218 579 l 155 654 l 91 579 l 91 432 l 155 356 l 218 432 m 36 600 l 155 736 l 730 736 l 1138 505 l 730 275 l 155 275 l 36 410 l 36 600 m 258 614 l 728 614 q 745 646 745 631 q 721 682 745 665 l 204 682 l 258 614 m 741 451 q 776 505 776 467 q 741 560 776 543 l 279 560 l 279 451 l 741 451 m 123 479 q 121 505 121 491 q 123 531 121 519 q 131 553 125 542 q 142 568 135 562 q 155 574 148 574 q 167 568 161 574 q 178 553 174 562 q 186 531 184 542 q 189 505 189 519 q 186 479 189 491 q 178 457 184 468 q 167 443 174 448 q 155 438 161 438 q 142 443 148 438 q 131 457 135 448 q 123 479 125 468 m 258 397 l 204 329 l 721 329 q 745 364 745 346 q 728 397 745 379 l 258 397 "},"Ý":{"x_min":87.484375,"x_max":1123.71875,"ha":1006,"o":"m 87 1013 l 348 1013 l 520 637 l 821 1013 l 1123 1013 l 623 422 l 541 0 l 280 0 l 362 422 l 87 1013 m 676 1288 l 866 1288 l 650 1109 l 509 1109 l 676 1288 "},"ᴞ":{"x_min":54.25,"x_max":1244.4375,"ha":1316,"o":"m 54 183 l 85 343 l 252 343 l 221 183 l 54 183 m 106 452 l 136 611 l 303 611 l 273 452 l 106 452 m 800 15 l 337 15 l 384 259 l 460 259 q 615 259 522 259 q 739 259 708 259 q 872 263 830 259 q 933 278 913 268 q 977 317 960 293 q 1001 373 995 342 q 966 492 1016 449 q 813 536 916 536 l 438 536 l 484 779 l 1244 779 l 1197 536 l 1087 536 q 1163 419 1143 480 q 1168 283 1182 358 q 1048 83 1142 152 q 800 15 954 15 "},"ຸ":{"x_min":-575.953125,"x_max":-223.03125,"ha":0,"o":"m -418 -180 q -456 -208 -453 -180 q -429 -239 -463 -239 q -392 -208 -396 -239 q -418 -180 -385 -180 m -377 -326 q -446 -339 -408 -339 q -572 -210 -597 -339 q -402 -76 -543 -76 q -268 -133 -318 -76 q -227 -300 -208 -199 q -429 -535 -245 -387 l -501 -446 q -377 -326 -390 -377 "},"ℝ":{"x_min":136,"x_max":1101.96875,"ha":1113,"o":"m 634 421 q 758 266 701 379 l 852 81 l 960 81 l 867 266 q 766 387 827 344 q 634 421 719 421 m 808 468 q 882 406 844 451 q 962 276 920 362 l 1101 0 l 789 0 l 656 266 q 565 385 614 350 q 434 421 515 421 l 421 421 l 421 0 l 136 0 l 136 1012 l 622 1012 q 881 939 796 1012 q 967 720 967 866 q 887 513 967 579 q 808 468 854 485 m 421 931 l 421 502 l 641 502 q 673 503 657 502 l 673 929 q 641 931 657 931 l 421 931 m 758 912 l 758 521 q 817 557 797 537 q 872 716 872 609 q 818 876 872 823 q 758 912 795 898 m 217 931 l 217 81 l 340 81 l 340 931 l 217 931 "},"⁉":{"x_min":-3.21875,"x_max":1110,"ha":1151,"o":"m 194 1013 l 439 1013 l 362 624 l 273 341 l 108 341 l 108 624 l 194 1013 m 44 241 l 288 241 l 241 0 l -3 0 l 44 241 m 532 241 l 776 241 l 728 0 l 484 0 l 532 241 m 796 342 l 551 342 l 556 375 q 596 472 567 429 q 715 583 626 514 l 765 623 q 843 700 819 664 q 868 772 868 736 q 840 832 868 811 q 761 853 813 853 q 638 830 707 853 q 492 762 570 807 l 534 975 q 692 1017 620 1004 q 829 1031 763 1031 q 1035 973 960 1031 q 1110 814 1110 915 q 1074 669 1110 733 q 951 536 1038 606 l 899 496 q 826 428 845 454 q 801 372 806 401 l 796 342 "},"ẅ":{"x_min":147,"x_max":1286.828125,"ha":1283,"o":"m 560 1075 l 721 1075 l 688 908 l 528 908 l 560 1075 m 830 1075 l 989 1075 l 956 908 l 797 908 l 830 1075 m 147 760 l 357 760 l 357 237 l 599 760 l 806 760 l 806 238 l 1048 760 l 1286 760 l 939 0 l 669 0 l 669 522 l 424 0 l 147 0 l 147 760 "},"ǡ":{"x_min":24,"x_max":861.890625,"ha":938,"o":"m 520 1048 l 706 1048 l 674 881 l 488 881 l 520 1048 m 434 1224 l 861 1224 l 836 1096 l 408 1096 l 434 1224 m 457 342 q 320 313 366 342 q 274 230 274 285 q 301 164 274 188 q 377 141 328 141 q 501 186 451 141 q 568 314 552 231 l 574 342 l 457 342 m 836 432 l 752 0 l 509 0 l 529 112 q 403 12 469 44 q 258 -20 336 -20 q 87 35 150 -20 q 24 186 24 91 q 136 409 24 332 q 460 486 248 486 l 603 486 l 606 504 q 608 518 608 514 q 609 525 609 522 q 566 593 609 570 q 440 616 524 616 q 294 600 365 616 q 158 553 224 584 l 195 738 q 350 767 271 757 q 515 777 430 777 q 766 719 684 777 q 849 542 849 661 q 845 492 849 519 q 836 432 842 464 "},"ᐥ":{"x_min":-2.71875,"x_max":767.015625,"ha":783,"o":"m 630 1040 l 767 986 l 469 454 l 332 508 l 630 1040 m 295 1040 l 431 986 l 133 454 l -2 508 l 295 1040 "},"⪛":{"x_min":147,"x_max":1016,"ha":1163,"o":"m 1016 840 l 147 612 l 147 777 l 1016 1005 l 1016 840 m 1016 588 l 147 360 l 147 525 l 1016 753 l 1016 588 m 1016 53 l 1016 -111 l 147 114 l 147 274 l 1016 501 l 1016 337 l 407 195 l 1016 53 "},"К":{"x_min":29.15625,"x_max":1190.859375,"ha":1135,"o":"m 29 0 l 225 1013 l 486 1013 l 405 595 l 895 1013 l 1190 1013 l 709 602 l 1016 0 l 729 0 l 508 431 l 347 294 l 290 0 l 29 0 "},"ΰ":{"x_min":75,"x_max":916.703125,"ha":938,"o":"m 341 1075 l 502 1075 l 469 908 l 309 908 l 341 1075 m 611 1075 l 770 1075 l 737 908 l 577 908 l 611 1075 m 724 1357 l 916 1357 l 617 1102 l 484 1102 l 724 1357 m 649 434 q 664 541 664 510 q 607 759 664 700 l 793 759 q 886 587 859 695 q 895 518 895 556 q 885 432 895 480 q 733 102 844 218 q 386 -14 623 -14 q 131 37 188 -14 q 75 174 75 88 q 82 243 75 206 l 183 759 l 426 759 l 323 233 q 321 197 321 217 q 337 158 321 176 q 427 139 355 139 q 579 229 499 139 q 649 434 617 273 "},"꜋":{"x_min":80.703125,"x_max":654.4375,"ha":694,"o":"m 210 209 l 80 209 l 105 337 l 235 337 l 210 209 m 339 0 l 526 963 l 654 963 l 467 0 l 339 0 "},"Ⴡ":{"x_min":-32.203125,"x_max":763.015625,"ha":835,"o":"m 408 330 l 443 470 q 452 531 452 514 q 452 553 452 548 q 450 588 452 574 q 428 619 443 608 q 390 630 414 630 q 354 622 371 630 q 323 602 337 615 q 300 571 309 588 q 286 532 290 553 l 173 -51 l -32 -51 l 182 1052 l 387 1052 l 334 775 q 380 806 357 794 q 426 818 404 818 q 535 795 487 818 q 614 734 583 773 q 654 656 645 696 q 664 588 664 617 q 658 532 664 561 l 655 515 l 763 515 l 727 330 l 408 330 "},"⅞":{"x_min":71.890625,"x_max":1398.78125,"ha":1438,"o":"m 402 -18 l 236 -18 l 1074 1031 l 1240 1031 l 402 -18 m 111 1020 l 580 1020 l 564 938 l 228 453 l 71 453 l 390 913 l 90 913 l 111 1020 m 1131 254 q 1057 231 1086 254 q 1021 167 1029 209 q 1032 104 1013 126 q 1097 82 1052 82 q 1170 104 1142 82 q 1206 167 1198 126 q 1195 231 1214 209 q 1131 254 1175 254 m 1023 301 q 947 350 969 318 q 934 431 925 383 q 1015 540 948 502 q 1194 578 1080 578 q 1359 540 1306 578 q 1395 431 1409 503 q 1351 350 1386 380 q 1255 301 1314 318 q 1341 249 1317 285 q 1357 160 1367 214 q 1270 32 1340 76 q 1080 -10 1201 -10 q 905 32 958 -10 q 868 160 851 76 q 917 250 878 214 q 1023 301 956 286 m 1083 416 q 1093 364 1076 382 q 1149 346 1110 346 q 1210 364 1186 346 q 1241 416 1234 382 q 1230 467 1247 450 q 1176 486 1213 486 q 1114 468 1137 486 q 1083 416 1089 450 "},"₣":{"x_min":4.75,"x_max":958.25,"ha":966,"o":"m 116 304 l 254 1012 l 958 1012 l 919 815 l 476 815 l 440 626 l 857 626 l 817 429 l 401 429 l 377 304 l 457 304 l 432 176 l 352 176 l 318 0 l 56 0 l 91 176 l 4 176 l 29 304 l 116 304 "},"ﬆ":{"x_min":11.9375,"x_max":1454.359375,"ha":1416,"o":"m 567 773 q 571 810 567 791 q 688 966 588 902 q 941 1030 785 1030 q 1154 965 1075 1030 q 1217 844 1217 914 q 1213 810 1217 828 l 1203 759 l 1454 759 l 1420 586 l 1170 586 l 1108 263 q 1104 228 1104 243 q 1114 192 1104 203 q 1194 173 1132 173 l 1319 173 l 1285 0 l 1077 0 q 885 59 933 0 q 855 169 855 97 q 865 263 855 211 l 927 586 l 807 586 l 840 759 l 961 759 l 969 802 q 971 814 971 808 q 952 860 971 839 q 882 885 929 885 q 803 856 842 885 q 761 792 767 831 q 759 778 759 785 q 775 735 759 755 l 740 551 q 598 599 668 583 q 465 616 529 616 q 359 599 396 616 q 315 545 322 581 q 314 535 314 539 q 332 501 314 513 q 418 478 353 485 l 459 471 q 695 393 645 444 q 734 286 734 355 q 727 223 734 257 q 602 41 703 102 q 323 -20 500 -20 q 169 -8 247 -20 q 11 27 97 2 l 47 211 q 186 158 113 176 q 337 141 259 141 q 448 160 408 141 q 495 219 488 180 q 496 233 496 226 q 480 268 496 255 q 386 292 461 283 l 345 297 q 132 373 186 318 q 94 481 94 412 q 100 540 94 508 q 217 719 123 661 q 481 777 311 777 q 567 773 525 777 "},"ǈ":{"x_min":29.15625,"x_max":1376.6875,"ha":1360,"o":"m 1075 759 l 1319 759 l 1173 13 q 1057 -223 1142 -146 q 828 -300 972 -300 l 707 -300 l 737 -141 l 780 -141 q 880 -110 849 -141 q 929 13 912 -79 l 1075 759 m 1132 1055 l 1376 1055 l 1338 857 l 1093 857 l 1132 1055 m 226 1012 l 487 1012 l 328 197 l 786 197 l 748 0 l 29 0 l 226 1012 "},"ῤ":{"x_min":12.828125,"x_max":970,"ha":994,"o":"m 811 91 q 552 -20 699 -20 q 332 109 405 -20 l 255 -289 l 12 -289 l 140 361 q 291 642 176 551 q 493 753 405 733 q 635 773 581 773 q 714 773 689 773 q 923 665 844 773 q 970 498 970 602 q 957 378 970 444 q 811 91 923 203 m 715 459 q 589 601 715 601 q 458 543 511 601 q 385 378 406 486 q 377 290 377 334 q 394 213 377 247 q 503 156 425 156 q 633 212 581 156 q 706 378 685 269 q 715 459 715 423 m 516 1090 l 702 1090 l 688 1021 q 465 826 650 826 l 481 909 q 598 1000 580 909 l 498 1000 l 516 1090 "},"ͼ":{"x_min":52,"x_max":807.09375,"ha":764,"o":"m 422 509 l 666 509 l 615 246 l 371 246 l 422 509 m 807 735 l 768 537 q 672 587 719 570 q 579 604 624 604 q 385 524 460 604 q 310 320 310 444 q 356 197 310 241 q 489 153 403 153 q 600 170 546 153 q 705 220 655 187 l 668 22 q 546 -9 607 1 q 424 -20 485 -20 q 148 60 245 -20 q 52 288 52 140 q 87 469 52 381 q 189 626 123 556 q 359 740 263 703 q 579 777 454 777 q 693 767 636 777 q 807 735 750 756 "},"▵":{"x_min":4.0625,"x_max":693.09375,"ha":697,"o":"m 120 92 l 577 92 l 348 551 l 120 92 m 4 15 l 348 706 l 693 15 l 4 15 "}," ":{"x_min":0,"x_max":0,"ha":309},"ϧ":{"x_min":-22.953125,"x_max":1022.875,"ha":1033,"o":"m 618 543 q 485 612 563 612 q 436 601 472 612 q 397 582 419 597 q 368 556 379 570 q 355 529 358 544 q 356 505 352 515 q 373 486 360 496 q 404 474 384 478 q 440 472 421 472 q 497 480 469 472 q 568 511 533 491 q 618 543 596 527 m 702 415 q 514 331 631 369 q 368 304 431 304 q 278 312 337 304 q 191 342 236 318 q 133 416 156 362 q 122 470 122 441 q 126 504 122 486 q 166 592 134 548 q 244 673 200 638 q 375 745 302 719 q 539 778 466 778 q 794 681 708 778 q 891 799 850 733 l 1022 731 q 880 551 956 629 q 932 361 932 454 q 925 297 932 329 q 780 72 902 176 q 434 -20 671 -20 q 244 11 319 -20 q 145 35 188 35 q 18 -9 92 35 l -22 131 q 174 183 97 183 q 341 151 275 183 q 461 128 391 128 q 648 188 578 128 q 716 297 705 237 q 721 335 721 316 q 702 415 721 378 "},"Ἁ":{"x_min":-90.203125,"x_max":959.609375,"ha":1075,"o":"m 682 185 l 278 185 l 177 0 l -90 0 l 482 1013 l 780 1013 l 959 1 l 711 1 l 682 185 m 376 369 l 648 369 l 587 759 l 376 369 m 332 1091 l 314 1001 l 214 1001 q 297 910 197 910 l 280 827 q 132 1022 94 827 l 146 1091 l 332 1091 "},"ӽ":{"x_min":-23.734375,"x_max":964.359375,"ha":896,"o":"m 964 760 l 618 390 q 812 36 648 335 q 816 0 820 21 q 704 -217 789 -139 q 472 -300 614 -300 l 351 -300 l 382 -141 q 515 -117 482 -141 q 572 0 553 -91 l 448 240 l 233 0 l -23 0 l 339 388 l 137 760 l 394 760 l 505 534 l 707 760 l 964 760 "},"̼":{"x_min":-695.4375,"x_max":-140,"ha":0,"o":"m -695 -331 q -573 -146 -663 -190 q -494 -130 -537 -130 q -388 -177 -421 -130 q -264 -130 -338 -130 q -140 -259 -140 -130 q -142 -331 -140 -292 l -237 -331 q -285 -234 -237 -238 q -367 -320 -340 -234 q -370 -331 -368 -326 l -464 -331 q -513 -234 -464 -238 q -590 -307 -561 -234 q -598 -331 -595 -320 l -695 -331 "},"ù":{"x_min":83,"x_max":945.390625,"ha":988,"o":"m 93 295 l 182 759 l 425 759 l 349 363 q 337 297 341 325 q 333 255 333 270 q 356 188 333 212 q 424 165 380 165 q 554 223 499 165 q 628 385 608 281 l 701 760 l 945 760 l 798 0 l 553 0 l 575 110 q 444 12 513 45 q 300 -20 376 -20 q 139 34 196 -20 q 83 190 83 89 q 85 240 83 213 q 93 295 88 266 m 520 1110 l 661 856 l 528 856 l 328 1110 l 520 1110 "},"◅":{"x_min":4.328125,"x_max":1064,"ha":1068,"o":"m 197 360 l 987 130 l 987 590 l 197 360 m 4 360 l 1064 706 l 1064 14 l 4 360 "},"⍵":{"x_min":60,"x_max":1148,"ha":1208,"o":"m 603 177 q 359 -18 580 -18 q 60 386 60 -18 q 192 760 60 559 l 401 760 q 313 387 313 600 q 406 175 313 175 q 484 483 484 175 l 723 483 q 800 175 723 175 q 895 387 895 175 q 806 760 895 600 l 1015 760 q 1148 386 1148 559 q 848 -18 1148 -18 q 603 177 626 -18 "},"ⱹ":{"x_min":13.953125,"x_max":734,"ha":747,"o":"m 56 207 q 115 184 84 192 q 176 178 144 178 q 332 237 271 178 q 408 375 385 291 l 479 742 q 488 815 488 785 q 477 864 488 848 q 388 896 458 896 l 275 896 l 306 1055 l 499 1055 q 696 975 638 1055 q 734 837 734 921 q 723 741 734 794 l 579 0 l 336 0 l 335 0 l 359 122 q 233 16 299 50 q 80 -18 165 -18 q 53 -18 68 -18 q 13 -12 40 -16 l 56 207 "},"◖":{"x_min":76,"x_max":606,"ha":732,"o":"m 341 -97 q 76 361 76 55 q 341 819 76 666 q 606 896 473 896 l 606 -174 q 341 -97 473 -174 "},"ԣ":{"x_min":39.328125,"x_max":1263.4375,"ha":1359,"o":"m 187 759 l 429 759 l 373 471 l 614 471 l 670 759 l 913 759 l 853 450 l 1028 450 q 1225 369 1167 450 q 1253 135 1283 289 l 1229 13 q 1110 -219 1199 -139 q 882 -300 1022 -300 l 761 -300 l 792 -141 l 834 -141 q 935 -109 904 -141 q 985 13 967 -78 l 1009 136 q 1007 259 1026 229 q 918 291 988 291 l 821 291 l 765 0 l 522 0 l 585 321 l 344 321 l 282 0 l 39 0 l 187 759 "},"˝":{"x_min":198.703125,"x_max":781.921875,"ha":694,"o":"m 358 1111 l 527 1111 l 316 856 l 198 856 l 358 1111 m 612 1111 l 781 1111 l 548 856 l 430 856 l 612 1111 "},"⫺":{"x_min":147,"x_max":1016,"ha":1163,"o":"m 147 -105 l 1016 122 l 1016 -42 l 147 -270 l 147 -105 m 147 145 l 1016 373 l 1016 208 l 147 -18 l 147 145 m 147 681 l 147 846 l 1016 619 l 1016 460 l 147 232 l 147 397 l 755 539 l 147 681 "},"䷥":{"x_min":115,"x_max":1130,"ha":1245,"o":"m 115 574 l 1130 574 l 1130 438 l 115 438 l 115 574 m 115 793 l 527 793 l 527 657 l 115 657 l 115 793 m 717 793 l 1129 793 l 1129 657 l 717 657 l 717 793 m 115 1013 l 1130 1013 l 1130 877 l 115 877 l 115 1013 m 115 -84 l 1130 -84 l 1130 -220 l 115 -220 l 115 -84 m 115 135 l 1130 135 l 1130 -1 l 115 -1 l 115 135 m 115 355 l 527 355 l 527 219 l 115 219 l 115 355 m 717 355 l 1129 355 l 1129 219 l 717 219 l 717 355 "},"Ɇ":{"x_min":29.15625,"x_max":945.375,"ha":949,"o":"m 828 1141 l 945 1141 l 881 1013 l 930 1013 l 892 816 l 783 816 l 690 627 l 829 627 l 790 430 l 592 430 l 477 197 l 786 197 l 748 0 l 379 0 l 316 -128 l 200 -128 l 263 0 l 29 0 l 225 1013 l 764 1013 l 828 1141 m 361 197 l 476 430 l 373 430 l 328 197 l 361 197 m 573 627 l 667 816 l 448 816 l 412 627 l 573 627 "},"בּ":{"x_min":-22.203125,"x_max":848.203125,"ha":934,"o":"m 508 352 q 521 461 521 416 q 506 535 521 509 q 388 586 479 586 l 126 586 l 160 759 l 490 759 l 537 759 q 745 676 692 759 q 777 542 777 627 q 762 411 777 484 l 716 173 l 848 173 l 814 0 l 386 0 l -22 0 l 11 173 l 474 173 l 508 352 m 285 379 l 285 379 m 230 448 l 366 448 l 339 312 l 204 312 l 230 448 m 285 379 l 285 379 "},"Ứ":{"x_min":94,"x_max":1301,"ha":1129,"o":"m 729 1288 l 919 1288 l 703 1109 l 563 1109 l 729 1288 m 226 1012 l 486 1012 l 368 406 q 359 348 362 373 q 356 304 356 323 q 391 204 356 237 q 497 172 427 172 q 643 225 592 172 q 719 405 694 278 l 837 1012 l 1098 1012 l 980 405 q 813 80 936 181 q 460 -20 690 -20 q 187 57 281 -20 q 94 280 94 134 q 97 335 94 304 q 108 405 100 365 l 226 1012 m 1004 842 l 1023 937 q 1084 890 1061 903 q 1124 878 1106 878 q 1171 898 1150 878 q 1198 951 1191 918 q 1203 1003 1203 977 q 1197 1057 1203 1029 l 1301 1057 q 1301 987 1301 1019 q 1295 928 1301 956 q 1240 808 1280 850 q 1142 767 1201 767 q 1072 785 1106 767 q 1004 842 1038 803 "},"ϫ":{"x_min":-9.5,"x_max":935.875,"ha":932,"o":"m 331 136 l 497 136 l 436 243 l 331 136 m 37 136 q 108 174 70 136 l 337 408 l 234 584 q 175 610 219 610 q 147 607 164 610 q 107 603 126 605 l 139 767 q 185 775 163 772 q 244 778 210 778 q 394 743 358 778 q 423 707 410 728 l 500 576 l 629 707 q 671 743 650 728 q 834 778 721 778 q 892 775 868 778 q 935 767 913 772 l 904 603 q 865 607 887 605 q 838 610 850 610 q 770 584 794 610 l 598 408 l 736 174 q 792 136 759 136 l 813 136 l 786 0 l -9 0 l 16 136 l 37 136 "},"⅃":{"x_min":15.59375,"x_max":931.796875,"ha":885,"o":"m 931 1012 l 735 0 l 15 0 l 54 197 l 512 197 l 670 1012 l 931 1012 "},"⁂":{"x_min":27.953125,"x_max":1393.359375,"ha":1421,"o":"m 698 387 l 474 270 l 698 152 l 647 56 l 421 181 l 421 -52 l 306 -52 l 306 181 l 79 56 l 27 152 l 254 270 l 27 387 l 79 482 l 306 359 l 306 593 l 421 593 l 421 359 l 647 482 l 698 387 m 1393 387 l 1169 270 l 1393 152 l 1341 56 l 1116 181 l 1116 -52 l 1001 -52 l 1001 181 l 773 56 l 722 152 l 949 270 l 722 387 l 773 482 l 1001 359 l 1001 593 l 1116 593 l 1116 359 l 1341 482 l 1393 387 m 1047 949 l 822 832 l 1047 714 l 995 618 l 769 743 l 769 510 l 654 510 l 654 743 l 427 618 l 375 714 l 602 832 l 375 949 l 427 1045 l 654 921 l 654 1155 l 769 1155 l 769 921 l 995 1045 l 1047 949 "},"⡿":{"x_min":203,"x_max":881,"ha":1084,"o":"m 203 1085 l 474 1085 l 474 814 l 203 814 l 203 1085 m 203 724 l 474 724 l 474 453 l 203 453 l 203 724 m 203 362 l 474 362 l 474 91 l 203 91 l 203 362 m 610 1085 l 881 1085 l 881 814 l 610 814 l 610 1085 m 610 724 l 881 724 l 881 453 l 610 453 l 610 724 m 610 362 l 881 362 l 881 91 l 610 91 l 610 362 m 203 0 l 474 0 l 474 -271 l 203 -271 l 203 0 "},"𝞺":{"x_min":12.828125,"x_max":970,"ha":994,"o":"m 811 91 q 552 -20 699 -20 q 332 109 405 -20 l 255 -289 l 12 -289 l 140 361 q 291 642 176 551 q 493 753 405 733 q 635 773 581 773 q 714 773 689 773 q 923 665 844 773 q 970 498 970 602 q 957 378 970 444 q 811 91 923 203 m 715 459 q 589 601 715 601 q 458 543 511 601 q 385 378 406 486 q 377 290 377 334 q 394 213 377 247 q 503 156 425 156 q 633 212 581 156 q 706 378 685 269 q 715 459 715 423 "},"⣄":{"x_min":203,"x_max":881,"ha":1084,"o":"m 203 362 l 474 362 l 474 91 l 203 91 l 203 362 m 203 0 l 474 0 l 474 -271 l 203 -271 l 203 0 m 610 0 l 881 0 l 881 -271 l 610 -271 l 610 0 "},"ʌ":{"x_min":-52.890625,"x_max":811.09375,"ha":905,"o":"m 811 0 l 568 0 l 481 525 l 190 0 l -52 0 l 394 760 l 660 760 l 811 0 "},"ģ":{"x_min":28.265625,"x_max":947.921875,"ha":995,"o":"m 676 861 l 456 861 l 646 1063 l 777 1063 l 676 861 m 581 128 q 462 31 522 62 q 330 0 401 0 q 126 83 201 0 q 52 309 52 166 q 78 463 52 386 q 153 607 104 540 q 290 732 212 689 q 456 776 367 776 q 590 745 536 776 q 682 646 645 714 l 703 760 l 947 760 l 819 99 q 651 -202 780 -104 q 293 -300 522 -300 q 157 -289 222 -300 q 28 -255 92 -278 l 64 -66 q 179 -121 121 -103 q 297 -139 237 -139 q 483 -87 418 -139 q 570 76 547 -35 l 581 128 m 513 601 q 364 520 423 601 q 305 317 305 439 q 336 212 305 248 q 429 176 368 176 q 578 256 518 176 q 638 456 638 336 q 606 564 638 527 q 513 601 574 601 "},"Ẵ":{"x_min":-89.9375,"x_max":962.59375,"ha":1075,"o":"m 456 1263 l 552 1263 q 587 1203 559 1222 q 668 1185 614 1185 q 753 1205 717 1185 q 804 1263 788 1226 l 908 1263 q 814 1129 881 1175 q 647 1084 747 1084 q 505 1129 555 1084 q 456 1260 456 1175 l 456 1263 m 698 1338 l 664 1364 q 637 1381 648 1377 q 614 1386 626 1386 q 571 1364 589 1386 q 546 1304 554 1342 l 453 1304 q 516 1438 471 1391 q 624 1485 560 1485 q 671 1476 649 1485 q 717 1450 694 1468 l 753 1422 q 776 1408 764 1413 q 799 1404 788 1404 q 844 1424 826 1404 q 869 1485 862 1445 l 962 1485 q 900 1350 944 1397 q 793 1304 856 1304 q 745 1311 767 1304 q 698 1338 723 1319 m 682 185 l 278 185 l 177 1 l -89 1 l 482 1013 l 780 1013 l 959 1 l 711 1 l 682 185 m 376 369 l 648 369 l 587 759 l 376 369 "},"䷻":{"x_min":115,"x_max":1130,"ha":1245,"o":"m 115 574 l 527 574 l 527 438 l 115 438 l 115 574 m 717 574 l 1129 574 l 1129 438 l 717 438 l 717 574 m 115 793 l 1130 793 l 1130 657 l 115 657 l 115 793 m 115 1013 l 527 1013 l 527 877 l 115 877 l 115 1013 m 717 1013 l 1129 1013 l 1129 877 l 717 877 l 717 1013 m 115 -84 l 1130 -84 l 1130 -220 l 115 -220 l 115 -84 m 115 135 l 1130 135 l 1130 -1 l 115 -1 l 115 135 m 115 355 l 527 355 l 527 219 l 115 219 l 115 355 m 717 355 l 1129 355 l 1129 219 l 717 219 l 717 355 "},"➘":{"x_min":170.90625,"x_max":946.71875,"ha":1164,"o":"m 688 267 l 170 737 l 285 852 l 755 335 l 899 543 l 946 75 l 478 124 l 688 267 "},"῟":{"x_min":241.421875,"x_max":750.0625,"ha":694,"o":"m 485 1143 l 452 1168 q 424 1185 436 1181 q 401 1190 413 1190 q 359 1168 377 1190 q 334 1109 341 1146 l 241 1109 q 303 1242 259 1195 q 412 1289 347 1289 q 459 1280 437 1289 q 505 1254 481 1272 l 541 1227 q 564 1213 552 1218 q 587 1209 576 1209 q 631 1229 613 1209 q 656 1289 649 1250 l 750 1289 q 688 1155 732 1202 q 580 1109 643 1109 q 533 1116 554 1109 q 485 1143 511 1123 m 544 1090 l 526 1000 l 427 1000 q 509 909 409 909 l 493 826 q 345 1021 307 826 l 358 1090 l 544 1090 "},"⪵":{"x_min":147,"x_max":1016,"ha":1163,"o":"m 1016 740 q 498 555 815 555 q 1016 344 816 529 l 1016 149 q 147 461 765 392 l 147 622 q 1016 934 776 701 l 1016 740 m 1016 125 l 1016 -36 l 698 -36 l 648 -123 l 1016 -123 l 1016 -284 l 555 -284 l 475 -422 l 336 -343 l 370 -284 l 147 -284 l 147 -123 l 464 -123 l 514 -36 l 147 -36 l 147 125 l 607 125 l 687 263 l 826 184 l 792 125 l 1016 125 "},"✆":{"x_min":58,"x_max":1105,"ha":1163,"o":"m 360 210 q 356 202 358 206 q 350 168 350 186 q 356 132 350 149 q 377 102 364 115 q 406 82 390 90 q 581 48 482 48 q 756 82 673 48 q 903 183 837 115 q 1003 330 971 250 q 1037 503 1037 411 q 1003 680 1037 599 q 903 828 972 757 q 756 928 839 893 q 581 963 675 963 q 406 928 490 963 q 259 828 326 895 q 159 680 191 760 q 126 503 126 599 q 159 330 126 412 q 208 242 178 284 l 208 139 q 96 305 135 213 q 58 503 58 398 q 96 706 58 610 q 212 875 132 794 q 381 990 285 950 q 581 1031 476 1031 q 782 990 686 1031 q 951 875 873 952 q 1066 706 1027 800 q 1105 503 1105 613 q 1066 305 1105 400 q 951 135 1030 216 q 782 20 876 59 q 581 -20 686 -20 q 380 20 474 -20 q 329 54 352 32 q 294 106 306 77 q 282 168 282 135 q 294 229 282 199 q 322 273 303 252 q 320 294 320 284 q 393 595 320 433 q 630 867 515 867 q 689 861 685 867 q 700 809 700 848 q 675 724 700 770 q 646 681 652 681 q 581 652 610 681 q 514 547 560 631 q 472 403 472 469 q 482 366 472 381 q 495 328 495 348 q 480 291 495 322 q 421 216 457 244 q 382 198 394 198 q 360 210 371 198 m 422 160 q 465 191 438 168 q 516 261 499 220 q 534 316 532 299 q 568 285 564 290 q 579 261 580 271 q 560 206 572 228 q 518 152 541 172 q 479 134 493 130 q 422 160 461 138 m 741 854 q 799 828 784 839 q 810 786 810 820 q 795 720 810 756 q 766 670 786 695 q 740 662 759 662 q 693 668 733 662 q 725 717 705 681 q 746 801 746 757 q 741 854 746 837 "},"⋇":{"x_min":147,"x_max":1016,"ha":1163,"o":"m 478 949 l 686 949 l 686 739 l 478 739 l 478 949 m 478 133 l 686 133 l 686 -77 l 478 -77 l 478 133 m 387 356 l 147 356 l 147 516 l 387 516 l 173 729 l 287 843 l 581 549 l 875 843 l 989 729 l 776 516 l 1016 516 l 1016 356 l 775 356 l 989 142 l 875 28 l 581 321 l 287 28 l 173 142 l 387 356 "},"⁴":{"x_min":4.0625,"x_max":538.46875,"ha":608,"o":"m 332 887 l 127 668 l 289 668 l 332 887 m 345 1019 l 514 1019 l 445 668 l 538 668 l 518 563 l 425 563 l 404 453 l 248 453 l 269 563 l 4 563 l 26 676 l 345 1019 "},"ᔵ":{"x_min":111.21875,"x_max":1363.796875,"ha":1393,"o":"m 143 589 l 329 589 l 297 422 l 111 422 l 143 589 m 785 0 l 425 472 l 461 661 l 1034 661 l 1102 1012 l 1363 1012 l 1258 472 l 686 472 l 1047 0 l 785 0 "},"⅖":{"x_min":62.609375,"x_max":1385.671875,"ha":1438,"o":"m 403 -19 l 236 -19 l 1074 1030 l 1240 1030 l 403 -19 m 287 567 l 543 567 l 521 453 l 62 453 l 83 556 l 331 737 q 412 810 386 776 q 439 872 439 844 q 416 915 439 899 q 355 931 394 931 q 259 915 309 931 q 161 869 209 899 l 186 995 q 292 1022 242 1013 q 390 1031 343 1031 q 545 994 491 1031 q 599 889 599 957 q 562 785 599 835 q 444 677 525 734 l 287 567 m 986 566 l 1385 566 l 1364 459 l 1094 459 l 1077 372 q 1115 379 1096 376 q 1154 382 1134 382 q 1321 329 1267 382 q 1355 185 1374 278 q 1259 41 1338 92 q 1057 -10 1180 -10 q 955 -1 1004 -10 q 857 27 905 8 l 879 142 q 968 102 925 115 q 1052 89 1011 89 q 1148 115 1108 89 q 1195 185 1187 141 q 1176 256 1204 230 q 1089 282 1147 282 q 1014 273 1054 282 q 924 248 973 265 l 986 566 "},"𝕥":{"x_min":37.4375,"x_max":671.015625,"ha":704,"o":"m 333 894 l 210 894 l 210 248 q 252 101 210 125 q 358 83 286 83 q 333 190 333 127 q 333 226 333 209 l 333 894 m 414 975 l 414 751 l 671 751 l 671 670 l 414 670 l 414 226 q 439 107 414 133 q 542 81 464 81 l 671 81 l 671 0 l 383 0 q 183 53 238 0 q 129 249 129 107 l 129 670 l 37 670 l 37 751 l 129 751 l 129 975 l 414 975 "},"❼":{"x_min":81,"x_max":1094,"ha":1175,"o":"m 1094 486 q 945 127 1094 275 q 586 -20 797 -20 q 229 127 377 -20 q 81 486 81 275 q 149 740 81 618 q 339 927 217 862 q 586 993 460 993 q 836 927 714 993 q 1026 740 958 862 q 1094 486 1094 619 m 322 640 l 636 640 l 389 148 l 594 148 l 860 678 l 860 783 l 322 783 l 322 640 "},"ᴅ":{"x_min":42.71875,"x_max":858.15625,"ha":939,"o":"m 402 605 l 316 156 l 339 156 q 536 213 461 156 q 633 380 612 271 q 601 547 655 490 q 426 605 548 605 l 402 605 m 190 759 l 414 759 q 667 734 591 759 q 796 650 746 709 q 852 532 839 599 q 849 380 865 465 q 793 226 832 294 q 691 108 754 159 q 527 24 618 49 q 266 -1 432 -1 l 42 -1 l 190 759 "},"ắ":{"x_min":24,"x_max":897.828125,"ha":938,"o":"m 707 1234 l 897 1234 l 681 1055 l 541 1055 l 707 1234 m 383 1027 l 480 1027 q 514 969 486 987 q 595 951 541 951 q 680 971 644 951 q 731 1028 716 991 l 835 1028 q 741 895 808 941 q 574 850 674 850 q 432 895 482 850 q 383 1025 383 941 l 383 1027 m 457 342 q 320 313 366 342 q 274 230 274 285 q 301 164 274 188 q 377 141 328 141 q 501 186 451 141 q 568 314 552 231 l 574 342 l 457 342 m 836 432 l 752 0 l 509 0 l 529 112 q 403 12 469 44 q 258 -20 336 -20 q 87 35 150 -20 q 24 186 24 91 q 136 409 24 332 q 460 486 248 486 l 603 486 l 606 504 q 608 518 608 514 q 609 525 609 522 q 566 593 609 570 q 440 616 524 616 q 294 600 365 616 q 158 553 224 584 l 195 738 q 350 767 271 757 q 515 777 430 777 q 766 719 684 777 q 849 542 849 661 q 845 492 849 519 q 836 432 842 464 "},"²":{"x_min":62.609375,"x_max":599,"ha":608,"o":"m 287 567 l 543 567 l 521 453 l 62 453 l 83 556 l 331 737 q 412 810 386 776 q 439 872 439 844 q 416 915 439 899 q 355 931 394 931 q 259 915 309 931 q 161 869 209 899 l 186 995 q 292 1022 242 1013 q 390 1031 343 1031 q 545 994 491 1031 q 599 889 599 957 q 562 785 599 835 q 444 677 525 734 l 287 567 "},"⡹":{"x_min":203,"x_max":881,"ha":1084,"o":"m 203 1085 l 474 1085 l 474 814 l 203 814 l 203 1085 m 610 1085 l 881 1085 l 881 814 l 610 814 l 610 1085 m 610 724 l 881 724 l 881 453 l 610 453 l 610 724 m 610 362 l 881 362 l 881 91 l 610 91 l 610 362 m 203 0 l 474 0 l 474 -271 l 203 -271 l 203 0 "},"◱":{"x_min":126,"x_max":1186,"ha":1312,"o":"m 203 399 l 694 399 l 694 -94 l 1109 -94 l 1109 815 l 203 815 l 203 399 m 126 -171 l 126 892 l 1186 892 l 1186 -171 l 126 -171 m 203 -94 l 617 -94 l 617 322 l 203 322 l 203 -94 "},"ზ":{"x_min":20,"x_max":674,"ha":768,"o":"m 449 791 q 455 838 455 818 q 387 913 455 913 q 285 791 310 913 q 281 746 281 765 q 348 669 281 669 q 449 791 427 677 m 455 344 q 465 429 465 393 q 385 534 465 534 l 382 534 l 381 534 q 243 344 281 534 q 233 246 233 287 q 307 139 233 139 q 455 344 415 139 m 664 342 q 277 -16 595 -16 q 20 224 20 -16 q 32 342 20 277 q 195 605 68 524 q 117 752 117 660 q 121 799 117 774 q 411 1056 171 1056 q 624 883 624 1056 q 616 811 624 850 q 528 661 604 753 q 674 435 674 599 q 664 342 674 392 "},"Ʋ":{"x_min":91.296875,"x_max":1072.1875,"ha":1130,"o":"m 495 0 l 442 0 q 149 93 234 0 q 102 376 65 187 l 225 1012 l 486 1012 l 363 376 q 379 242 346 287 q 493 197 411 197 l 533 197 q 739 276 654 197 q 853 457 836 367 q 848 659 880 595 q 690 833 791 769 l 709 932 l 892 932 q 1059 653 1003 839 q 1060 448 1084 570 q 863 143 1027 276 q 495 0 686 0 "},"Ǆ":{"x_min":29.28125,"x_max":2181.140625,"ha":2150,"o":"m 1329 1013 l 2181 1013 l 2148 851 l 1492 197 l 2038 197 l 1998 0 l 1117 0 l 1147 161 l 1806 816 l 1290 816 l 1329 1013 m 1886 1109 l 1650 1109 l 1557 1288 l 1673 1288 l 1774 1178 l 1930 1288 l 2051 1288 l 1886 1109 m 450 816 l 329 197 l 422 197 q 711 299 605 197 q 818 576 818 402 q 748 755 818 695 q 541 816 678 816 l 450 816 m 226 1013 l 501 1013 q 796 989 697 1013 q 959 911 894 966 q 1058 777 1025 856 q 1092 600 1092 699 q 1035 340 1092 462 q 876 136 978 218 q 668 31 786 62 q 304 0 550 0 l 29 0 l 226 1013 "},"⨑":{"x_min":20.53125,"x_max":800.28125,"ha":782,"o":"m 534 284 q 549 362 549 320 l 485 300 l 468 313 l 468 196 q 490 219 480 206 q 534 284 520 250 m 496 436 l 573 529 l 641 529 l 800 371 l 729 301 l 666 362 q 642 239 666 297 q 573 135 618 182 q 470 67 532 93 q 444 61 462 64 l 444 -114 q 368 -278 444 -220 q 232 -315 321 -315 q 70 -261 122 -315 q 20 -128 33 -223 l 171 -113 q 228 -152 183 -152 q 276 -90 276 -152 l 276 50 q 227 67 254 56 q 121 136 167 92 q 53 240 79 176 q 28 363 28 300 l 145 363 q 161 285 145 326 q 204 219 176 248 q 271 176 235 189 q 319 169 281 172 l 319 847 q 398 1011 319 953 q 539 1048 446 1048 q 709 994 654 1048 q 761 861 748 956 l 610 846 q 550 885 597 885 q 496 822 496 885 l 496 436 "},"⨁":{"x_min":39,"x_max":1349,"ha":1388,"o":"m 694 848 q 508 812 590 848 q 352 705 420 774 q 245 548 280 633 q 211 361 211 463 q 246 177 211 263 q 352 20 281 90 q 508 -84 424 -49 q 694 -122 595 -122 q 880 -84 793 -122 q 1036 20 967 -48 q 1142 178 1107 92 q 1177 361 1177 263 q 1141 548 1177 463 q 1035 705 1106 636 q 879 812 962 778 q 694 848 793 848 m 443 971 q 694 1020 559 1020 q 944 971 828 1020 q 1157 826 1060 922 q 1301 613 1253 729 q 1349 361 1349 498 q 1301 111 1349 227 q 1157 -100 1253 -3 q 944 -245 1060 -196 q 694 -294 828 -294 q 443 -245 559 -294 q 230 -100 327 -196 q 86 111 134 -3 q 39 361 39 227 q 86 613 39 498 q 230 826 134 729 q 443 971 327 922 m 775 797 l 775 441 l 1129 441 l 1129 281 l 775 281 l 775 -74 l 614 -74 l 614 281 l 260 281 l 260 441 l 614 441 l 614 797 l 775 797 "},"↝":{"x_min":6.703125,"x_max":1146,"ha":1164,"o":"m 6 405 q 75 507 31 463 q 176 575 116 548 q 294 599 227 599 q 413 575 361 599 q 514 507 471 550 q 583 405 558 464 q 615 357 594 380 q 663 325 637 336 q 720 314 690 314 q 777 325 751 314 q 825 357 804 336 l 891 422 l 701 422 l 701 561 l 1078 561 l 1146 494 l 1146 116 l 1007 116 l 1007 307 l 940 242 q 839 174 898 200 q 720 151 787 151 q 602 174 656 151 q 501 242 540 200 q 432 343 454 290 q 400 391 421 369 q 351 424 378 412 q 294 436 325 436 q 237 424 264 436 q 189 391 211 412 q 157 343 168 371 l 6 405 "},"©":{"x_min":192,"x_max":1197,"ha":1389,"o":"m 897 763 l 897 618 q 821 655 858 643 q 744 667 783 667 q 625 623 668 667 q 582 502 582 580 q 624 381 582 424 q 744 339 667 339 q 827 351 788 339 q 897 387 866 363 l 897 242 q 808 219 853 227 q 722 212 764 212 q 493 291 579 212 q 407 502 407 370 q 493 713 407 634 q 722 793 579 793 q 812 785 769 793 q 897 763 855 778 m 694 903 q 541 873 612 903 q 412 784 471 843 q 323 655 353 725 q 294 502 294 585 q 323 350 294 420 q 412 220 353 279 q 541 133 470 162 q 694 104 612 104 q 847 132 778 104 q 976 220 917 161 q 1065 350 1035 279 q 1095 502 1095 420 q 1065 655 1095 585 q 976 784 1035 725 q 846 873 917 844 q 694 903 776 903 m 694 1007 q 886 969 797 1007 q 1049 858 975 932 q 1160 695 1123 784 q 1197 502 1197 606 q 1160 310 1197 399 q 1049 148 1123 222 q 886 37 975 74 q 694 0 797 0 q 502 37 591 0 q 339 148 413 74 q 228 310 265 222 q 192 502 192 399 q 228 695 192 606 q 339 858 265 784 q 502 969 413 932 q 694 1007 591 1007 "},"✳":{"x_min":76,"x_max":1088,"ha":1164,"o":"m 664 472 l 963 172 l 915 124 l 616 424 l 616 0 l 548 0 l 548 423 l 248 124 l 200 172 l 499 472 l 76 472 l 76 540 l 500 540 l 200 840 l 248 888 l 548 588 l 548 1013 l 616 1013 l 616 588 l 915 888 l 963 840 l 663 540 l 1088 540 l 1088 472 l 664 472 "},"⠏":{"x_min":203,"x_max":881,"ha":1084,"o":"m 203 1085 l 474 1085 l 474 814 l 203 814 l 203 1085 m 203 723 l 474 723 l 474 452 l 203 452 l 203 723 m 203 361 l 474 361 l 474 90 l 203 90 l 203 361 m 610 1085 l 881 1085 l 881 814 l 610 814 l 610 1085 "}," ":{"x_min":0,"x_max":0,"ha":528},"\\":{"x_min":98.328125,"x_max":383.171875,"ha":507,"o":"m 233 -129 l 98 1013 l 248 1013 l 383 -129 l 233 -129 "},"≀":{"x_min":118.359375,"x_max":401.625,"ha":521,"o":"m 401 0 l 235 0 q 159 131 182 70 q 136 257 136 192 q 175 431 136 359 q 180 443 178 438 q 186 457 182 447 q 227 627 227 563 q 201 745 227 686 q 118 870 175 803 l 284 870 q 360 737 337 798 q 384 610 384 677 q 344 437 384 515 q 339 426 340 428 q 333 411 337 422 q 293 242 293 306 q 318 126 293 184 q 401 0 343 69 "},"ᶽ":{"x_min":37.984375,"x_max":561.953125,"ha":652,"o":"m 131 878 l 548 878 l 529 783 l 233 550 l 301 550 q 316 582 307 566 q 454 655 383 655 q 560 564 575 655 q 413 454 541 454 l 358 454 l 347 399 l 263 399 l 273 453 l 37 453 l 56 547 l 354 781 l 112 781 l 131 878 m 432 550 q 497 563 495 550 q 444 582 500 582 q 383 551 404 582 q 396 550 385 550 l 432 550 "},"⪉":{"x_min":147,"x_max":1017,"ha":1163,"o":"m 621 313 l 759 266 l 714 130 q 774 123 748 123 q 890 148 833 123 q 1017 231 947 174 l 1017 66 q 884 -11 945 11 q 759 -35 824 -35 q 664 -21 715 -35 l 638 -98 q 774 -128 721 -128 q 890 -102 833 -128 q 1017 -19 947 -77 l 1017 -184 q 884 -262 945 -239 q 759 -286 824 -286 q 589 -246 686 -286 l 542 -389 l 403 -342 l 451 -200 q 390 -193 417 -193 q 272 -218 331 -193 q 148 -301 214 -244 l 148 -136 q 280 -58 220 -81 q 406 -35 341 -35 q 501 -49 449 -35 l 527 28 q 390 58 444 58 q 272 31 331 58 q 148 -50 214 5 l 148 114 q 279 191 219 168 q 406 215 340 215 q 576 176 478 215 l 621 313 m 1017 710 l 408 568 l 1017 426 l 1017 261 l 147 489 l 147 649 l 1017 875 l 1017 710 "},"Ḳ":{"x_min":29.15625,"x_max":1162.375,"ha":1076,"o":"m 226 1013 l 487 1013 l 416 648 l 847 1013 l 1162 1013 l 581 521 l 1019 0 l 712 0 l 372 422 l 290 0 l 29 0 l 226 1013 m 528 -295 l 343 -295 l 376 -128 l 562 -128 l 528 -295 "},"ե":{"x_min":54.4375,"x_max":920.28125,"ha":989,"o":"m 399 759 l 920 759 l 887 585 l 366 585 l 330 403 q 308 272 311 309 q 313 213 304 233 q 345 176 323 189 q 398 164 366 164 q 528 222 474 164 q 603 384 583 281 l 623 488 l 866 488 l 771 0 l 528 0 l 550 109 q 414 12 482 43 q 273 -20 347 -20 q 88 60 141 -20 q 65 295 35 141 l 212 1055 l 457 1055 l 399 759 "},"ṙ":{"x_min":42.71875,"x_max":756.84375,"ha":685,"o":"m 714 552 q 658 574 689 567 q 592 582 627 582 q 438 522 499 582 q 355 350 377 462 l 286 0 l 42 0 l 190 760 l 434 760 l 408 629 q 528 739 456 701 q 689 778 600 778 q 718 776 701 778 q 756 772 734 775 l 714 552 m 448 1076 l 634 1076 l 600 909 l 414 909 l 448 1076 "},"➟":{"x_min":79,"x_max":1096.03125,"ha":1164,"o":"m 472 300 l 309 300 l 309 571 l 472 571 l 472 300 m 255 300 l 174 300 l 174 571 l 255 571 l 255 300 m 120 300 l 79 300 l 79 571 l 120 571 l 120 300 m 799 300 l 527 300 l 527 571 l 799 571 l 799 732 l 1096 435 l 799 138 l 799 300 "},"ς":{"x_min":76,"x_max":825.921875,"ha":823,"o":"m 787 537 q 599 604 703 604 q 427 545 495 604 q 338 378 359 485 q 332 318 332 346 q 500 176 332 176 q 641 111 593 176 q 674 1 674 67 q 667 -60 674 -27 q 576 -228 646 -168 q 391 -289 505 -289 l 421 -136 q 488 -116 468 -136 q 516 -64 516 -90 q 501 -19 516 -39 q 448 0 488 0 q 149 80 222 0 q 76 281 76 162 q 86 379 76 326 q 259 672 122 567 q 600 778 395 778 q 825 735 718 778 l 787 537 "},"ʇ":{"x_min":-34.59375,"x_max":613.0625,"ha":664,"o":"m 173 -215 l 215 0 l -34 0 l 0 173 l 249 173 l 311 495 q 305 567 322 548 q 225 586 287 586 l 100 586 l 134 759 l 342 759 q 534 699 486 759 q 554 495 582 639 l 492 173 l 613 173 l 579 0 l 458 0 l 416 -215 l 173 -215 "},"Ḋ":{"x_min":29.28125,"x_max":1092,"ha":1153,"o":"m 568 1289 l 754 1289 l 723 1122 l 536 1122 l 568 1289 m 450 816 l 329 197 l 422 197 q 711 299 605 197 q 818 576 818 402 q 748 755 818 695 q 541 816 678 816 l 450 816 m 226 1013 l 501 1013 q 796 989 697 1013 q 959 911 894 966 q 1058 777 1025 856 q 1092 600 1092 699 q 1035 340 1092 462 q 876 136 978 218 q 668 31 786 62 q 304 0 550 0 l 29 0 l 226 1013 "},"ᵩ":{"x_min":66.40625,"x_max":655.53125,"ha":684,"o":"m 497 429 q 612 380 561 429 q 649 212 671 324 q 395 0 613 24 l 363 -161 l 211 -161 l 243 0 q 71 212 35 24 q 173 376 92 317 q 312 425 240 425 l 295 338 q 261 306 286 338 q 227 226 236 273 q 262 97 210 135 l 290 246 q 497 429 326 429 m 482 328 q 442 246 458 326 l 414 97 q 498 226 478 133 q 504 303 509 276 q 482 328 498 329 "},"⧒":{"x_min":147,"x_max":1241.203125,"ha":1388,"o":"m 1241 -67 l 693 337 l 147 -67 l 147 936 l 693 531 l 1241 936 l 1241 -67 m 563 434 l 306 624 l 306 244 l 563 434 "},"ᶵ":{"x_min":101.046875,"x_max":506.59375,"ha":538,"o":"m 372 999 l 349 879 l 506 879 l 487 782 l 330 782 l 295 601 q 300 560 289 571 q 351 550 311 550 l 429 550 l 410 453 q 341 330 393 373 q 198 285 286 285 l 122 285 l 139 375 l 166 375 q 229 392 209 375 q 257 455 247 408 q 158 487 185 455 q 141 601 126 520 l 177 782 l 101 782 l 120 879 l 195 879 l 219 999 l 372 999 "},"ç":{"x_min":52,"x_max":806.921875,"ha":823,"o":"m 806 735 l 768 537 q 671 587 719 570 q 579 604 624 604 q 385 524 460 604 q 310 320 310 444 q 356 197 310 241 q 488 153 403 153 q 600 170 545 153 q 705 221 655 187 l 667 22 q 546 -9 607 1 q 423 -20 485 -20 q 148 60 245 -20 q 52 288 52 140 q 87 469 52 381 q 189 626 123 556 q 358 740 263 703 q 579 778 454 778 q 693 767 636 778 q 806 735 750 756 m 467 0 q 504 -65 492 -35 q 516 -123 516 -94 q 464 -232 516 -193 q 320 -272 413 -272 q 254 -267 287 -272 q 187 -254 222 -263 l 207 -148 q 261 -165 234 -159 q 314 -172 289 -172 q 385 -152 359 -172 q 411 -101 411 -133 q 401 -60 411 -84 q 371 0 392 -37 l 467 0 "},"Ⅼ":{"x_min":29.15625,"x_max":786,"ha":885,"o":"m 226 1012 l 487 1012 l 328 197 l 786 197 l 748 0 l 29 0 l 226 1012 "},"ִ":{"x_min":398.765625,"x_max":560.171875,"ha":0,"o":"m 424 -101 l 560 -101 l 534 -237 l 398 -237 l 424 -101 "},"Δ":{"x_min":-91.546875,"x_max":969.78125,"ha":1075,"o":"m 969 0 l -91 0 l 480 1012 l 791 1012 l 969 0 m 278 197 l 674 197 l 590 774 l 278 197 "},"‰":{"x_min":77,"x_max":1946,"ha":2020,"o":"m 1711 531 q 1881 473 1817 531 q 1946 320 1946 415 q 1855 74 1946 169 q 1619 -20 1765 -20 q 1449 38 1513 -20 q 1385 192 1385 97 q 1475 437 1385 343 q 1711 531 1566 531 m 1690 417 q 1594 360 1631 417 q 1557 212 1557 303 q 1577 124 1557 153 q 1640 95 1598 95 q 1736 151 1699 95 q 1774 300 1774 208 q 1752 387 1774 358 q 1690 417 1731 417 m 1061 417 q 965 360 1003 417 q 928 212 928 303 q 948 124 928 153 q 1011 95 969 95 q 1107 151 1070 95 q 1145 300 1145 208 q 1123 387 1145 358 q 1061 417 1102 417 m 1080 531 q 1250 473 1186 531 q 1315 320 1315 415 q 1225 74 1315 168 q 990 -20 1135 -20 q 820 38 884 -20 q 756 192 756 97 q 845 437 756 343 q 1080 531 935 531 m 361 -20 l 194 -20 l 1032 1030 l 1198 1030 l 361 -20 m 403 1031 q 573 972 509 1031 q 638 819 638 914 q 547 573 638 667 q 311 479 456 479 q 141 536 205 479 q 77 690 77 594 q 167 935 77 840 q 403 1031 258 1031 m 382 917 q 286 859 323 917 q 249 712 249 802 q 269 622 249 652 q 331 592 290 592 q 428 649 391 592 q 466 800 466 707 q 444 887 466 857 q 382 917 423 917 "},"Ä":{"x_min":-90.203125,"x_max":959.609375,"ha":1075,"o":"m 682 185 l 278 185 l 177 1 l -90 1 l 482 1013 l 780 1013 l 959 1 l 711 1 l 682 185 m 376 369 l 648 369 l 587 759 l 376 369 m 454 1289 l 614 1289 l 582 1122 l 422 1122 l 454 1289 m 722 1289 l 883 1289 l 850 1122 l 690 1122 l 722 1289 "},"Ṣ":{"x_min":20.765625,"x_max":923.609375,"ha":1000,"o":"m 923 980 l 881 766 q 730 823 804 804 q 584 842 655 842 q 431 811 486 842 q 377 726 377 780 q 401 672 377 692 q 500 635 425 653 l 608 608 q 805 510 742 574 q 868 345 868 446 q 742 80 868 180 q 406 -19 617 -19 q 211 0 308 -19 q 20 53 113 17 l 62 273 q 237 195 152 221 q 405 170 322 170 q 551 206 495 170 q 607 300 607 243 q 581 358 607 337 q 471 400 556 378 l 364 427 q 189 519 247 456 q 132 682 132 582 q 253 935 132 840 q 579 1031 374 1031 q 747 1018 661 1031 q 923 980 834 1005 m 444 -295 l 258 -295 l 291 -128 l 478 -128 l 444 -295 "},"⣰":{"x_min":203,"x_max":881,"ha":1084,"o":"m 610 724 l 881 724 l 881 453 l 610 453 l 610 724 m 610 362 l 881 362 l 881 91 l 610 91 l 610 362 m 203 0 l 474 0 l 474 -271 l 203 -271 l 203 0 m 610 0 l 881 0 l 881 -271 l 610 -271 l 610 0 "},"—":{"x_min":33.234375,"x_max":1307.515625,"ha":1389,"o":"m 67 468 l 1307 468 l 1272 293 l 33 293 l 67 468 "},"N":{"x_min":29.15625,"x_max":1133.21875,"ha":1162,"o":"m 226 1013 l 518 1013 l 750 311 l 886 1013 l 1133 1013 l 935 0 l 644 0 l 412 701 l 276 0 l 29 0 l 226 1013 "},"⇄":{"x_min":68,"x_max":1096,"ha":1164,"o":"m 68 184 l 68 280 l 334 546 l 432 448 l 298 314 l 1085 314 l 1085 151 l 298 151 l 432 16 l 334 -81 l 68 184 m 1096 687 l 1096 591 l 829 325 l 731 423 l 865 558 l 79 558 l 79 721 l 865 721 l 731 855 l 829 953 l 1096 687 "},"ⅺ":{"x_min":-56.96875,"x_max":1361.078125,"ha":1345,"o":"m 307 387 l 105 759 l 358 759 l 470 533 l 668 759 l 931 759 l 585 389 l 797 -1 l 544 -1 l 425 239 l 206 -1 l -56 -1 l 307 387 m 1059 759 l 1304 759 l 1155 -1 l 912 -1 l 1059 759 m 1116 1055 l 1361 1055 l 1322 857 l 1077 857 l 1116 1055 "},"2":{"x_min":10.921875,"x_max":889,"ha":966,"o":"m 343 192 l 783 192 l 746 0 l 10 0 l 48 193 l 479 518 q 587 628 550 572 q 624 736 624 684 q 586 822 624 791 q 479 853 548 853 q 335 827 415 853 q 156 749 256 802 l 200 964 q 381 1014 292 997 q 556 1031 469 1031 q 800 964 711 1031 q 889 782 889 897 q 834 601 889 683 q 596 382 780 520 l 343 192 "},"וֹ":{"x_min":18.3125,"x_max":417.75,"ha":476,"o":"m 282 1004 l 417 1004 l 391 868 l 256 868 l 282 1004 m 261 0 l 139 0 l 18 0 l 166 760 l 287 760 l 408 760 l 261 0 m 18 542 l 18 542 "},"☘":{"x_min":108,"x_max":1137,"ha":1245,"o":"m 602 526 l 456 735 q 406 881 406 805 q 465 997 406 953 q 516 1012 490 1012 q 605 975 576 1012 q 664 975 635 938 q 733 1012 694 1012 q 834 934 796 1012 q 843 881 843 906 q 781 716 843 794 l 646 528 l 866 596 q 1042 604 959 630 q 1089 577 1065 596 q 1137 488 1137 533 q 1132 459 1137 474 q 1075 404 1120 421 q 1056 349 1030 388 q 1063 252 1082 309 q 1034 208 1056 227 q 952 181 995 181 q 906 189 929 181 q 782 281 834 212 l 642 469 q 572 0 670 201 l 508 0 q 602 469 629 200 l 462 281 q 339 189 410 212 q 292 181 315 181 q 211 208 249 181 q 180 252 188 227 q 188 349 162 309 q 169 404 214 388 q 112 459 124 421 q 108 487 108 474 q 155 577 108 533 q 203 604 179 596 q 378 596 285 630 l 602 526 "},"῁":{"x_min":210.90625,"x_max":750.0625,"ha":694,"o":"m 485 1143 l 452 1168 q 424 1185 436 1181 q 401 1190 413 1190 q 359 1168 377 1190 q 334 1109 341 1146 l 241 1109 q 303 1242 259 1195 q 412 1289 347 1289 q 459 1280 437 1289 q 505 1254 481 1272 l 541 1227 q 564 1213 552 1218 q 587 1209 576 1209 q 631 1229 613 1209 q 656 1289 649 1250 l 750 1289 q 688 1155 732 1202 q 580 1109 643 1109 q 533 1116 554 1109 q 485 1143 511 1123 m 242 1075 l 404 1075 l 370 908 l 210 908 l 242 1075 m 512 1075 l 672 1075 l 638 908 l 479 908 l 512 1075 "},"ǃ":{"x_min":37.78125,"x_max":479.9375,"ha":517,"o":"m 235 1013 l 479 1013 l 403 624 l 314 341 l 149 341 l 149 624 l 235 1013 m 85 241 l 329 241 l 282 0 l 37 0 l 85 241 "},"⠩":{"x_min":203,"x_max":881,"ha":1084,"o":"m 203 1085 l 474 1085 l 474 814 l 203 814 l 203 1085 m 610 1085 l 881 1085 l 881 814 l 610 814 l 610 1085 m 610 361 l 881 361 l 881 90 l 610 90 l 610 361 "},"ḩ":{"x_min":-60.796875,"x_max":908,"ha":989,"o":"m 895 462 l 805 0 l 561 0 l 638 396 q 650 461 646 434 q 655 504 655 488 q 630 571 655 547 q 562 595 606 595 q 433 536 487 595 q 358 373 379 477 l 285 0 l 42 0 l 247 1055 l 490 1055 l 411 648 q 546 746 478 714 q 688 778 614 778 q 850 723 793 778 q 908 568 908 668 q 904 520 908 546 q 895 462 901 493 m 219 0 q 256 -65 244 -36 q 268 -124 268 -95 q 216 -233 268 -194 q 72 -273 165 -273 q 6 -268 39 -273 q -60 -255 -26 -264 l -41 -149 q 13 -166 -14 -160 q 66 -173 40 -173 q 137 -153 111 -173 q 163 -102 163 -134 q 153 -61 163 -84 q 123 0 144 -38 l 219 0 "},"Ў":{"x_min":106.390625,"x_max":1127.71875,"ha":1071,"o":"m 138 1012 l 410 1012 l 545 551 l 853 1013 l 1127 1013 l 565 167 q 480 73 527 110 q 153 0 384 0 l 106 0 l 144 197 l 216 197 q 343 243 311 197 l 357 264 l 138 1012 m 476 1288 l 572 1288 q 607 1228 579 1247 q 688 1210 634 1210 q 773 1230 737 1210 q 824 1288 808 1251 l 928 1288 q 834 1154 901 1200 q 667 1109 767 1109 q 525 1154 575 1109 q 476 1285 476 1200 l 476 1288 "},"𝞣":{"x_min":66.453125,"x_max":1038.953125,"ha":947,"o":"m 105 1012 l 1038 1012 l 1000 815 l 663 815 l 505 0 l 244 0 l 402 815 l 66 815 l 105 1012 "},"⋎":{"x_min":67.8125,"x_max":1059.296875,"ha":1127,"o":"m 67 804 l 322 804 q 564 404 480 623 q 805 804 647 623 l 1059 804 q 667 0 735 544 l 459 0 q 67 804 392 544 "},"𝞑":{"x_min":29.234375,"x_max":971,"ha":1058,"o":"m 555 621 q 664 656 625 621 q 704 753 704 691 q 676 814 704 793 q 597 835 649 835 l 451 835 l 409 621 l 555 621 m 478 178 q 615 220 567 178 q 664 343 664 263 q 630 418 664 394 q 529 443 597 443 l 375 443 l 323 178 l 478 178 m 787 542 q 889 472 853 523 q 926 347 926 422 q 804 91 926 183 q 462 0 682 0 l 29 0 l 226 1013 l 617 1013 q 884 960 798 1013 q 971 796 971 907 q 920 633 971 703 q 787 542 869 563 "},"𝕊":{"x_min":100,"x_max":899,"ha":1001,"o":"m 259 885 q 181 716 181 827 q 232 572 181 635 q 413 475 284 509 l 514 448 q 688 355 648 412 q 728 194 728 297 q 709 100 728 139 q 818 311 818 153 q 763 467 818 403 q 568 565 709 531 l 457 592 q 282 698 322 625 q 256 836 256 747 q 259 885 256 872 m 832 868 q 669 937 748 914 q 519 961 590 961 q 381 929 426 961 q 337 831 337 897 q 367 719 337 748 q 476 672 397 691 l 587 644 q 827 518 755 604 q 899 311 899 433 q 799 61 899 143 q 495 -20 700 -20 q 302 -1 399 -20 q 108 52 205 16 l 108 185 q 296 92 205 123 q 470 61 386 61 q 601 95 556 61 q 647 192 647 129 q 616 313 647 283 q 493 369 586 344 l 392 396 q 169 522 238 438 q 100 716 100 606 q 197 949 100 868 q 478 1031 295 1031 q 649 1018 561 1031 q 832 980 737 1005 l 832 868 "},"ǚ":{"x_min":83,"x_max":945.390625,"ha":988,"o":"m 719 1094 l 482 1094 l 389 1273 l 506 1273 l 606 1163 l 763 1273 l 884 1273 l 719 1094 m 387 1073 l 547 1073 l 516 906 l 356 906 l 387 1073 m 655 1073 l 817 1073 l 783 906 l 623 906 l 655 1073 m 93 295 l 182 759 l 425 759 l 349 363 q 337 297 341 325 q 333 255 333 270 q 356 188 333 212 q 424 165 380 165 q 554 223 499 165 q 628 385 608 281 l 701 760 l 945 760 l 798 0 l 553 0 l 575 110 q 444 12 513 45 q 300 -20 376 -20 q 139 34 196 -20 q 83 190 83 89 q 85 240 83 213 q 93 295 88 266 "},"⊇":{"x_min":138,"x_max":1025,"ha":1163,"o":"m 990 142 l 990 0 l 138 0 l 138 142 l 990 142 m 695 883 q 928 786 833 883 q 1025 551 1025 688 q 928 316 1025 414 q 694 220 833 220 l 138 220 l 138 373 l 695 373 q 821 425 768 373 q 873 551 873 476 q 821 677 873 625 q 695 730 769 730 l 138 730 l 138 883 l 695 883 "},"ᒔ":{"x_min":111.21875,"x_max":1413.078125,"ha":1429,"o":"m 143 589 l 329 589 l 297 422 l 111 422 l 143 589 m 1143 682 q 1115 799 1157 756 q 1006 843 1074 843 q 887 801 942 843 q 817 682 832 760 l 684 0 l 423 0 l 556 682 q 725 941 589 850 q 1043 1032 862 1032 q 1342 943 1247 1032 q 1404 682 1437 855 l 1143 682 "},"Վ":{"x_min":160.265625,"x_max":1218.46875,"ha":1367,"o":"m 950 173 l 967 173 q 1184 99 1119 173 q 1208 -108 1236 37 l 1199 -156 l 1026 -156 l 1032 -122 q 1018 -25 1045 -51 q 925 0 990 0 l 655 0 l 706 260 q 527 239 614 239 q 219 344 302 239 q 173 664 132 453 l 191 759 l 453 759 l 434 664 q 440 485 410 538 q 564 431 471 431 q 709 485 657 431 q 785 664 760 538 l 852 1012 l 1113 1012 l 950 173 "},"⪆":{"x_min":147,"x_max":1017,"ha":1163,"o":"m 1017 231 l 1017 66 q 884 -11 945 11 q 758 -35 823 -35 q 589 4 686 -35 q 574 10 580 8 q 559 16 569 12 q 390 58 454 58 q 272 31 331 58 q 148 -50 214 5 l 148 114 q 279 191 219 168 q 406 215 340 215 q 580 174 481 215 q 590 170 587 172 q 605 164 596 168 q 774 123 710 123 q 890 148 832 123 q 1017 231 947 174 m 1017 -19 l 1017 -184 q 884 -262 945 -239 q 758 -286 823 -286 q 589 -246 686 -286 q 574 -239 580 -242 q 559 -234 569 -238 q 390 -193 454 -193 q 272 -218 331 -193 q 148 -301 214 -244 l 148 -136 q 280 -58 220 -81 q 406 -35 341 -35 q 576 -74 479 -35 q 590 -80 586 -78 q 605 -85 596 -82 q 774 -128 711 -128 q 890 -102 832 -128 q 1017 -19 947 -77 m 147 710 l 147 875 l 1017 649 l 1017 489 l 147 261 l 147 426 l 755 568 l 147 710 "},"•":{"x_min":200,"x_max":688,"ha":888,"o":"m 200 517 q 217 611 200 567 q 270 689 235 655 q 350 742 306 724 q 444 760 394 760 q 538 741 493 760 q 616 689 582 723 q 670 610 652 654 q 688 517 688 566 q 669 422 688 466 q 616 343 651 377 q 537 290 582 308 q 442 272 493 272 q 349 290 393 272 q 270 343 305 308 q 218 422 236 377 q 200 517 200 466 "},"Ἲ":{"x_min":40.6875,"x_max":1049.8125,"ha":1079,"o":"m 788 1013 l 1049 1013 l 852 0 l 591 0 l 788 1013 m 92 1090 l 278 1090 l 264 1021 q 40 826 226 826 l 56 909 q 174 1000 155 909 l 74 1000 l 92 1090 m 533 1111 l 674 856 l 541 856 l 341 1111 l 533 1111 "},"⠢":{"x_min":203,"x_max":881,"ha":1084,"o":"m 203 723 l 474 723 l 474 452 l 203 452 l 203 723 m 610 361 l 881 361 l 881 90 l 610 90 l 610 361 "},"◊":{"x_min":4.0625,"x_max":682.234375,"ha":686,"o":"m 343 955 l 82 401 l 343 -158 l 604 401 l 343 955 m 343 1121 l 682 401 l 343 -323 l 4 401 l 343 1121 "},"ḅ":{"x_min":42.421875,"x_max":940,"ha":994,"o":"m 563 601 q 410 514 469 601 q 351 289 351 428 q 384 191 351 227 q 477 156 418 156 q 629 241 569 156 q 689 459 689 326 q 656 564 689 528 q 563 601 624 601 m 308 109 l 285 0 l 42 0 l 247 1055 l 491 1055 l 412 647 q 528 745 467 714 q 662 777 589 777 q 865 695 790 777 q 940 474 940 614 q 913 303 940 386 q 838 153 887 221 q 699 24 777 68 q 532 -20 621 -20 q 400 11 454 -20 q 308 109 345 42 m 513 -296 l 327 -296 l 360 -129 l 547 -129 l 513 -296 "},"ᾃ":{"x_min":53,"x_max":960.9375,"ha":954,"o":"m 712 686 l 750 760 l 960 760 l 752 368 l 752 264 q 796 153 752 153 l 851 153 l 821 0 l 752 0 q 601 57 645 0 q 589 76 591 69 q 512 8 549 35 q 323 -17 475 -17 q 84 86 138 -17 q 53 225 53 146 q 69 389 53 304 q 200 669 107 588 q 510 776 320 776 q 712 686 661 776 m 564 399 l 564 510 q 474 613 564 613 q 380 554 429 613 q 308 377 332 495 q 297 274 297 317 q 309 204 297 231 q 384 150 333 150 q 488 252 436 150 l 564 399 m 449 1090 l 431 1000 l 331 1000 q 413 909 313 909 l 397 826 q 249 1021 211 826 l 263 1090 l 449 1090 m 689 1110 l 830 856 l 697 856 l 497 1110 l 689 1110 m 416 -289 l 295 -289 q 259 -165 235 -289 l 279 -62 l 412 -62 l 392 -166 q 413 -237 378 -237 l 426 -237 l 416 -289 "},"ᴌ":{"x_min":-35.9375,"x_max":657.140625,"ha":749,"o":"m 190 759 l 436 759 l 394 545 l 512 616 l 567 512 l 364 389 l 326 197 l 657 197 l 618 0 l 42 0 l 94 263 l 18 218 l -35 322 l 124 420 l 190 759 "},"⇍":{"x_min":68,"x_max":1085,"ha":1164,"o":"m 606 141 l 504 200 l 547 276 l 376 276 l 433 219 l 334 121 l 68 388 l 68 482 l 334 749 l 433 651 l 376 595 l 732 595 l 809 729 l 912 670 l 868 595 l 1085 595 l 1085 486 l 805 486 l 747 385 l 1085 385 l 1085 276 l 684 276 l 606 141 m 669 486 l 268 486 l 217 435 l 268 385 l 610 385 l 669 486 "},"Ầ":{"x_min":-90.203125,"x_max":1053.203125,"ha":1075,"o":"m 955 1469 l 1053 1290 l 932 1290 l 776 1469 l 955 1469 m 558 1289 l 794 1289 l 897 1110 l 782 1110 l 671 1219 l 514 1110 l 393 1110 l 558 1289 m 682 185 l 278 185 l 177 1 l -90 1 l 482 1013 l 780 1013 l 959 1 l 711 1 l 682 185 m 376 369 l 648 369 l 587 759 l 376 369 "},"✸":{"x_min":56.96875,"x_max":1106.765625,"ha":1164,"o":"m 581 1031 l 697 784 l 952 877 l 859 621 l 1106 505 l 859 390 l 952 134 l 697 227 l 581 -19 l 466 227 l 210 134 l 303 390 l 56 505 l 303 621 l 210 877 l 466 784 l 581 1031 "},"Ỹ":{"x_min":87.484375,"x_max":1123.71875,"ha":1006,"o":"m 642 1143 l 609 1168 q 581 1185 592 1181 q 558 1190 570 1190 q 516 1168 533 1190 q 491 1109 498 1146 l 398 1109 q 460 1242 415 1195 q 568 1289 504 1289 q 616 1280 594 1289 q 661 1254 638 1272 l 697 1227 q 720 1213 708 1218 q 743 1209 733 1209 q 788 1229 770 1209 q 813 1289 806 1250 l 906 1289 q 844 1155 889 1202 q 737 1109 800 1109 q 689 1116 711 1109 q 642 1143 668 1123 m 87 1013 l 348 1013 l 520 637 l 821 1013 l 1123 1013 l 623 422 l 541 0 l 280 0 l 362 422 l 87 1013 "},"✫":{"x_min":32.40625,"x_max":1130.59375,"ha":1163,"o":"m 665 659 q 581 676 626 676 q 497 659 536 676 q 426 611 458 641 q 378 539 393 577 q 362 454 362 499 q 378 370 362 410 q 426 298 393 332 q 497 250 458 267 q 581 234 536 234 q 665 250 626 234 q 736 298 704 267 q 784 370 769 332 q 801 454 801 410 q 784 539 801 499 q 736 611 769 577 q 665 659 704 641 m 581 1032 l 710 633 l 1130 633 l 791 386 l 921 -12 l 581 234 l 241 -12 l 371 386 l 32 633 l 452 633 l 581 1032 "},"⢬":{"x_min":203,"x_max":881,"ha":1084,"o":"m 203 362 l 474 362 l 474 91 l 203 91 l 203 362 m 610 1085 l 881 1085 l 881 814 l 610 814 l 610 1085 m 610 362 l 881 362 l 881 91 l 610 91 l 610 362 m 610 0 l 881 0 l 881 -271 l 610 -271 l 610 0 "},"✺":{"x_min":76,"x_max":1088,"ha":1164,"o":"m 541 710 l 541 1013 l 622 1013 l 622 712 l 737 989 l 812 958 l 697 680 l 910 893 l 968 835 l 754 622 l 1034 738 l 1065 662 l 785 547 l 1088 547 l 1088 466 l 787 466 l 1065 350 l 1034 275 l 754 391 l 968 177 l 910 119 l 698 332 l 812 54 l 737 23 l 622 300 l 622 0 l 541 0 l 541 301 l 425 23 l 350 54 l 465 333 l 252 119 l 195 177 l 408 390 l 129 275 l 98 350 l 376 466 l 76 466 l 76 547 l 378 547 l 98 662 l 129 738 l 406 623 l 195 835 l 252 893 l 465 681 l 350 958 l 425 989 l 541 710 "},"✢":{"x_min":57.015625,"x_max":1106.984375,"ha":1164,"o":"m 548 540 l 548 561 q 496 771 548 688 q 467 898 467 818 q 503 998 467 966 q 582 1031 541 1031 q 661 998 623 1031 q 698 898 698 966 q 667 771 698 818 q 616 561 616 688 l 616 540 l 637 540 q 846 591 764 540 q 974 622 894 622 q 1074 585 1041 622 q 1106 506 1106 547 q 1074 427 1106 465 q 974 391 1041 391 q 846 420 894 391 q 637 472 764 472 l 616 472 l 616 450 q 667 241 616 323 q 698 114 698 194 q 661 13 698 46 q 582 -19 623 -19 q 503 13 541 -19 q 467 114 467 46 q 496 241 467 194 q 548 450 548 323 l 548 472 l 526 472 q 317 420 400 472 q 190 391 270 391 q 89 427 122 391 q 57 506 57 465 q 89 585 57 547 q 190 622 122 622 q 317 591 270 622 q 526 540 400 540 l 548 540 "},"ẽ":{"x_min":50,"x_max":889,"ha":942,"o":"m 873 350 l 865 312 l 297 312 q 296 300 297 307 q 296 288 296 292 q 340 177 296 214 q 473 141 384 141 q 634 164 549 141 q 813 232 719 187 l 776 44 q 599 -4 687 11 q 420 -20 511 -20 q 146 62 243 -20 q 50 293 50 144 q 80 462 50 380 q 170 611 111 544 q 338 735 240 693 q 554 777 435 777 q 798 694 708 777 q 889 474 889 612 q 885 416 889 446 q 873 350 881 386 m 643 462 q 646 479 645 470 q 648 497 648 489 q 615 584 648 552 q 527 616 582 616 q 406 576 456 616 q 330 462 356 537 l 643 462 m 594 925 l 561 950 q 554 954 559 951 q 508 975 528 975 q 467 951 485 975 q 443 888 450 928 l 348 888 q 411 1030 366 980 q 519 1080 455 1080 q 566 1070 543 1080 q 614 1041 589 1061 l 650 1012 q 673 996 662 1001 q 695 991 685 991 q 738 1013 721 991 q 764 1078 756 1036 l 858 1078 q 796 936 840 986 q 688 886 752 886 q 645 894 665 886 q 594 925 624 902 "},"ĕ":{"x_min":50,"x_max":889,"ha":942,"o":"m 387 1088 l 483 1088 l 483 1082 q 512 1014 483 1038 q 595 991 541 991 q 685 1015 650 991 q 739 1088 720 1039 l 842 1088 q 750 939 819 991 q 575 887 680 887 q 432 929 480 887 q 385 1053 385 971 q 385 1074 385 1067 q 387 1088 385 1081 m 873 350 l 865 312 l 297 312 q 296 300 297 307 q 296 288 296 292 q 340 177 296 214 q 473 141 384 141 q 634 164 549 141 q 813 232 719 187 l 776 44 q 599 -4 687 11 q 420 -20 511 -20 q 146 62 243 -20 q 50 293 50 144 q 80 462 50 380 q 170 611 111 544 q 338 735 240 693 q 554 777 435 777 q 798 694 708 777 q 889 474 889 612 q 885 416 889 446 q 873 350 881 386 m 643 462 q 646 479 645 470 q 648 497 648 489 q 615 584 648 552 q 527 616 582 616 q 406 576 456 616 q 330 462 356 537 l 643 462 "},"ż":{"x_min":-12.203125,"x_max":813.796875,"ha":808,"o":"m 460 1055 l 646 1055 l 613 888 l 426 888 l 460 1055 m 151 759 l 813 759 l 780 590 l 307 173 l 699 173 l 666 0 l -12 0 l 19 169 l 494 586 l 118 586 l 151 759 "},"⏏":{"x_min":126,"x_max":1186,"ha":1312,"o":"m 1186 456 l 126 456 l 655 827 l 1186 456 m 1186 0 l 126 0 l 126 342 l 1186 342 l 1186 0 "},"⠸":{"x_min":610,"x_max":881,"ha":1084,"o":"m 610 1085 l 881 1085 l 881 814 l 610 814 l 610 1085 m 610 723 l 881 723 l 881 452 l 610 452 l 610 723 m 610 361 l 881 361 l 881 90 l 610 90 l 610 361 "},"➆":{"x_min":6,"x_max":1158,"ha":1164,"o":"m 777 976 q 582 1015 686 1015 q 386 976 477 1015 q 223 864 297 939 q 112 700 147 789 q 74 503 74 609 q 112 310 74 401 q 223 146 147 221 q 386 34 297 70 q 582 -4 477 -4 q 777 34 686 -4 q 940 146 867 70 q 1052 310 1016 221 q 1090 503 1090 401 q 1052 700 1090 609 q 940 864 1016 789 q 777 976 867 939 m 319 911 l 840 911 l 840 864 l 545 100 l 431 100 l 708 819 l 319 819 l 319 911 m 360 1039 q 582 1083 463 1083 q 803 1039 700 1083 q 989 912 904 997 q 1115 726 1074 827 q 1158 503 1158 623 q 1115 284 1158 387 q 989 98 1074 183 q 803 -28 904 13 q 582 -72 700 -72 q 360 -28 463 -72 q 174 98 259 13 q 48 284 89 183 q 6 503 6 387 q 48 726 6 623 q 174 912 89 827 q 360 1039 259 997 "},"שׁ":{"x_min":45.4375,"x_max":1295.984375,"ha":1318,"o":"m 1160 987 l 1295 987 l 1270 851 l 1134 851 l 1160 987 m 385 500 q 562 578 509 514 q 621 760 594 616 l 866 760 q 750 459 821 532 q 364 350 642 350 q 356 350 360 350 l 326 197 q 344 197 335 197 q 663 226 491 197 q 912 378 819 251 q 1048 760 1001 506 l 1291 760 q 1102 250 1230 450 q 503 0 941 0 l 288 0 l 45 0 l 193 760 l 436 760 l 385 500 m 912 599 l 912 599 m 534 0 l 534 0 "},"ȼ":{"x_min":-84.09375,"x_max":906.03125,"ha":823,"o":"m -20 -64 l -84 0 l 78 144 q 59 379 31 238 q 232 672 95 566 q 574 778 368 778 q 689 767 634 778 q 760 749 725 761 l 845 825 l 906 757 l 781 647 l 760 538 q 701 576 731 561 l 321 238 q 336 212 327 224 q 483 153 381 153 q 594 170 540 153 q 699 220 649 187 l 660 22 q 539 -9 599 1 q 419 -20 478 -20 q 132 70 228 -20 l -20 -64 m 307 347 l 595 604 q 571 604 583 604 q 401 545 469 604 q 312 379 332 485 q 307 347 309 362 "},"Ӟ":{"x_min":-0.78125,"x_max":928,"ha":987,"o":"m 421 1288 l 581 1288 l 549 1121 l 389 1121 l 421 1288 m 689 1288 l 850 1288 l 817 1121 l 657 1121 l 689 1288 m 284 605 l 414 605 q 587 635 533 605 q 653 729 641 666 q 656 754 656 742 q 619 823 656 795 q 489 852 583 852 q 308 835 395 852 q 170 795 222 818 l 208 986 q 359 1016 256 1002 q 526 1030 462 1030 q 928 820 928 1030 q 923 770 928 797 q 694 545 889 592 q 859 348 859 500 q 852 287 859 317 q 320 -20 791 -20 q 0 30 140 -20 l 38 231 q 172 176 104 195 q 348 158 241 158 q 518 193 455 158 q 596 324 596 238 q 551 405 596 373 q 376 437 507 437 l 251 437 l 284 605 "},"Ѐ":{"x_min":29.15625,"x_max":930.453125,"ha":949,"o":"m 658 1288 l 756 1109 l 635 1109 l 479 1288 l 658 1288 m 226 1013 l 930 1013 l 891 816 l 448 816 l 412 627 l 829 627 l 790 430 l 373 430 l 328 197 l 786 197 l 748 0 l 29 0 l 226 1013 "},"𝌉":{"x_min":115,"x_max":1130,"ha":1245,"o":"m 115 396 l 527 396 l 527 260 l 115 260 l 115 396 m 717 396 l 1129 396 l 1129 260 l 717 260 l 717 396 m 115 657 l 1130 657 l 1130 521 l 115 521 l 115 657 m 115 136 l 1130 136 l 1130 0 l 115 0 l 115 136 m 115 917 l 1130 917 l 1130 781 l 115 781 l 115 917 "},"⡢":{"x_min":203,"x_max":881,"ha":1084,"o":"m 203 724 l 474 724 l 474 453 l 203 453 l 203 724 m 610 362 l 881 362 l 881 91 l 610 91 l 610 362 m 203 0 l 474 0 l 474 -271 l 203 -271 l 203 0 "},"︈":{"x_min":0,"x_max":0,"ha":0},"ʨ":{"x_min":46.453125,"x_max":1281.390625,"ha":1291,"o":"m 485 975 l 443 759 l 694 759 l 669 632 q 714 672 690 653 q 1056 777 850 777 q 1171 767 1115 777 q 1281 735 1227 756 l 1242 537 q 1153 587 1200 571 q 1052 604 1106 604 q 883 545 951 604 q 794 378 814 485 q 794 263 780 311 q 1002 386 888 386 q 1180 220 1198 386 l 1181 220 l 1179 218 q 1176 198 1179 209 q 900 -20 1137 -20 q 825 -18 831 -20 q 812 -95 820 -57 l 675 -95 q 697 16 687 -31 q 600 85 639 41 q 555 155 572 116 l 525 0 l 317 0 q 125 59 173 0 q 104 263 76 119 l 167 586 l 46 586 l 80 759 l 201 759 l 242 975 l 485 975 m 871 171 q 943 156 902 156 q 947 156 945 156 q 1053 194 1046 156 q 974 244 1062 244 q 871 171 917 244 m 629 586 l 409 586 l 347 263 q 354 192 336 210 q 434 173 371 173 l 548 173 q 541 379 517 259 q 629 586 564 499 "},"⡔":{"x_min":203,"x_max":881,"ha":1084,"o":"m 203 362 l 474 362 l 474 91 l 203 91 l 203 362 m 610 724 l 881 724 l 881 453 l 610 453 l 610 724 m 203 0 l 474 0 l 474 -271 l 203 -271 l 203 0 "},"⟅":{"x_min":1,"x_max":608,"ha":635,"o":"m 437 -227 q 362 -227 431 -227 q 257 -219 293 -227 q 1 9 1 -170 q 6 66 1 36 q 220 512 29 190 q 418 864 411 834 q 421 885 421 876 q 381 919 421 919 q 311 874 341 919 l 179 942 q 429 1067 279 1067 l 430 1067 q 608 926 608 1067 q 420 536 608 850 q 204 111 229 216 q 198 58 198 82 q 338 -63 198 -51 q 412 -72 386 -67 q 448 -75 429 -75 q 466 -75 457 -75 l 437 -227 "},"↔":{"x_min":68,"x_max":1096,"ha":1164,"o":"m 68 387 l 68 483 l 334 749 l 432 651 l 298 517 l 865 517 l 731 651 l 829 749 l 1096 483 l 1096 387 l 829 121 l 731 219 l 865 354 l 298 354 l 432 219 l 334 121 l 68 387 "},"ⱬ":{"x_min":7.453125,"x_max":841.609375,"ha":808,"o":"m 171 759 l 834 759 l 801 590 l 320 173 l 841 173 l 771 -191 l 527 -191 l 564 0 l 7 0 l 40 169 l 521 586 l 138 586 l 171 759 "},"ᾦ":{"x_min":46,"x_max":1159,"ha":1207,"o":"m 589 -289 l 467 -289 q 432 -165 408 -289 l 452 -62 l 585 -62 l 565 -166 q 586 -237 551 -237 l 599 -237 l 589 -289 m 747 1143 l 714 1168 q 687 1185 698 1181 q 663 1190 676 1190 q 621 1168 639 1190 q 596 1109 604 1146 l 503 1109 q 565 1242 521 1195 q 674 1289 610 1289 q 721 1280 699 1289 q 767 1254 743 1272 l 803 1227 q 826 1213 814 1218 q 849 1209 838 1209 q 894 1229 876 1209 q 919 1289 912 1250 l 1012 1289 q 950 1155 994 1202 q 842 1109 906 1109 q 795 1116 817 1109 q 747 1143 773 1123 m 606 1090 l 792 1090 l 778 1021 q 554 826 740 826 l 571 909 q 688 1000 669 909 l 588 1000 l 606 1090 m 566 176 q 282 -19 505 -19 q 46 234 46 -19 q 62 384 46 300 q 267 759 96 558 l 476 759 q 315 387 357 599 q 303 278 303 323 q 370 174 303 174 q 503 482 446 174 l 746 482 q 718 258 718 343 q 760 174 718 174 q 898 387 856 174 q 915 571 915 476 q 881 759 915 666 l 1089 759 q 1159 478 1159 611 q 1150 384 1159 430 q 773 -19 1072 -19 q 565 152 565 -19 q 566 176 565 164 "}}}
